<?xml version="1.0" encoding="UTF-8" standalone="no"?><!DOCTYPE svg PUBLIC "-//W3C//DTD SVG 1.1//EN" "http://www.w3.org/Graphics/SVG/1.1/DTD/svg11.dtd"><svg width="100%" height="100%" viewBox="0 0 64 64" version="1.1" xmlns="http://www.w3.org/2000/svg" xmlns:xlink="http://www.w3.org/1999/xlink" xml:space="preserve" xmlns:serif="http://www.serif.com/" style="fill-rule:evenodd;clip-rule:evenodd;stroke-linejoin:round;stroke-miterlimit:1.41421;"><path d="M55.639,9.002l0.115,0.004l0.114,0.008l0.114,0.01l0.112,0.013l0.112,0.016l0.111,0.018l0.11,0.021l0.108,0.024l0.108,0.027l0.107,0.029l0.106,0.031l0.104,0.034l0.104,0.037l0.102,0.039l0.101,0.041l0.1,0.044l0.098,0.046l0.098,0.048l0.096,0.051l0.094,0.053l0.093,0.055l0.092,0.057l0.09,0.059l0.088,0.062l0.087,0.063l0.085,0.066l0.084,0.067l0.082,0.07l0.08,0.071l0.079,0.073l0.077,0.075l0.075,0.077l0.073,0.079l0.071,0.08l0.07,0.082l0.067,0.084l0.065,0.085l0.064,0.087l0.061,0.089l0.059,0.09l0.058,0.091l0.054,0.093l0.053,0.094l0.051,0.096l0.048,0.097l0.046,0.099l0.044,0.099l0.041,0.101l0.039,0.102l0.036,0.104l0.034,0.104l0.031,0.106l0.029,0.106l0.027,0.108l0.023,0.109l0.021,0.109l0.018,0.111l0.016,0.111l0.013,0.112l0.01,0.113l0.007,0.114l0.005,0.115l0.001,0.115l0,3.799l0.07,0.028l0.069,0.029l0.068,0.03l0.068,0.032l0.067,0.032l0.066,0.034l0.065,0.035l0.065,0.037l0.064,0.037l0.063,0.039l0.063,0.039l0.062,0.041l0.06,0.042l0.061,0.043l0.059,0.044l0.058,0.045l0.058,0.047l0.056,0.047l0.056,0.048l0.055,0.049l0.054,0.051l0.053,0.051l0.052,0.052l0.051,0.053l0.05,0.054l0.049,0.055l0.048,0.056l0.047,0.057l0.046,0.058l0.045,0.058l0.044,0.06l0.043,0.06l0.042,0.061l0.04,0.062l0.04,0.063l0.038,0.063l0.037,0.064l0.037,0.065l0.034,0.066l0.034,0.066l0.033,0.067l0.031,0.068l0.03,0.069l0.029,0.069l0.027,0.07l0.026,0.07l0.025,0.071l0.024,0.072l0.022,0.072l0.021,0.073l0.02,0.073l0.018,0.074l0.017,0.074l0.015,0.075l0.015,0.076l0.012,0.076l0.011,0.076l0.01,0.077l0.008,0.077l0.007,0.078l0.006,0.078l0.003,0.079l0.003,0.079l0.001,0.079l-0.001,0.079l-0.003,0.079l-0.003,0.079l-0.006,0.078l-0.007,0.078l-0.008,0.077l-0.01,0.077l-0.011,0.076l-0.012,0.076l-0.015,0.076l-0.015,0.075l-0.017,0.074l-0.018,0.074l-0.02,0.073l-0.021,0.073l-0.022,0.072l-0.024,0.072l-0.025,0.071l-0.026,0.07l-0.027,0.07l-0.029,0.069l-0.03,0.069l-0.031,0.068l-0.033,0.067l-0.034,0.066l-0.034,0.066l-0.037,0.065l-0.037,0.064l-0.038,0.063l-0.04,0.063l-0.04,0.062l-0.042,0.061l-0.043,0.06l-0.044,0.06l-0.045,0.058l-0.046,0.058l-0.047,0.057l-0.048,0.056l-0.049,0.055l-0.05,0.054l-0.051,0.053l-0.052,0.052l-0.053,0.051l-0.054,0.051l-0.055,0.049l-0.056,0.048l-0.056,0.047l-0.058,0.047l-0.058,0.045l-0.059,0.044l-0.061,0.043l-0.06,0.042l-0.062,0.041l-0.063,0.039l-0.063,0.039l-0.064,0.037l-0.065,0.037l-0.065,0.035l-0.066,0.034l-0.067,0.032l-0.068,0.032l-0.068,0.03l-0.069,0.029l-0.07,0.028l0,25.799l-0.001,0.115l-0.005,0.115l-0.007,0.114l-0.01,0.113l-0.013,0.112l-0.016,0.112l-0.018,0.111l-0.021,0.109l-0.024,0.109l-0.026,0.108l-0.029,0.107l-0.031,0.105l-0.034,0.105l-0.037,0.103l-0.039,0.102l-0.041,0.101l-0.044,0.1l-0.046,0.099l-0.048,0.097l-0.051,0.096l-0.052,0.094l-0.055,0.093l-0.058,0.092l-0.059,0.09l-0.061,0.088l-0.064,0.087l-0.065,0.086l-0.068,0.083l-0.069,0.082l-0.071,0.081l-0.074,0.078l-0.075,0.077l-0.077,0.075l-0.078,0.074l-0.081,0.071l-0.082,0.069l-0.083,0.068l-0.086,0.065l-0.087,0.064l-0.088,0.061l-0.09,0.059l-0.092,0.058l-0.093,0.055l-0.094,0.052l-0.096,0.051l-0.097,0.048l-0.099,0.046l-0.1,0.044l-0.101,0.041l-0.102,0.039l-0.103,0.037l-0.105,0.034l-0.105,0.031l-0.107,0.029l-0.108,0.026l-0.109,0.024l-0.109,0.021l-0.111,0.018l-0.112,0.016l-0.112,0.013l-0.113,0.01l-0.114,0.007l-0.115,0.005l-0.115,0.001l-47.048,0l-0.115,-0.001l-0.115,-0.005l-0.114,-0.007l-0.113,-0.01l-0.112,-0.013l-0.112,-0.016l-0.111,-0.018l-0.109,-0.021l-0.109,-0.024l-0.108,-0.026l-0.107,-0.029l-0.105,-0.031l-0.105,-0.034l-0.103,-0.037l-0.102,-0.039l-0.101,-0.041l-0.1,-0.044l-0.099,-0.046l-0.097,-0.048l-0.096,-0.051l-0.094,-0.052l-0.093,-0.055l-0.092,-0.058l-0.09,-0.059l-0.088,-0.061l-0.087,-0.064l-0.086,-0.065l-0.083,-0.068l-0.082,-0.069l-0.081,-0.071l-0.078,-0.074l-0.077,-0.075l-0.075,-0.077l-0.074,-0.078l-0.071,-0.081l-0.069,-0.082l-0.068,-0.083l-0.065,-0.086l-0.064,-0.087l-0.061,-0.088l-0.059,-0.09l-0.058,-0.092l-0.055,-0.093l-0.052,-0.094l-0.051,-0.096l-0.048,-0.097l-0.046,-0.099l-0.044,-0.1l-0.041,-0.101l-0.039,-0.102l-0.037,-0.103l-0.034,-0.105l-0.031,-0.105l-0.029,-0.107l-0.026,-0.108l-0.024,-0.109l-0.021,-0.109l-0.018,-0.111l-0.016,-0.112l-0.013,-0.112l-0.01,-0.113l-0.007,-0.114l-0.005,-0.115l-0.001,-0.115l0,-13.799l-0.07,-0.028l-0.069,-0.029l-0.068,-0.03l-0.068,-0.032l-0.067,-0.032l-0.066,-0.034l-0.065,-0.035l-0.065,-0.037l-0.064,-0.037l-0.063,-0.039l-0.063,-0.039l-0.062,-0.041l-0.06,-0.042l-0.061,-0.043l-0.059,-0.044l-0.058,-0.045l-0.058,-0.047l-0.056,-0.047l-0.056,-0.048l-0.055,-0.049l-0.054,-0.051l-0.053,-0.051l-0.052,-0.052l-0.051,-0.053l-0.05,-0.054l-0.049,-0.055l-0.048,-0.056l-0.047,-0.057l-0.046,-0.058l-0.045,-0.058l-0.044,-0.06l-0.043,-0.06l-0.042,-0.061l-0.04,-0.062l-0.04,-0.063l-0.038,-0.063l-0.037,-0.064l-0.037,-0.065l-0.034,-0.066l-0.034,-0.066l-0.033,-0.067l-0.031,-0.068l-0.03,-0.069l-0.029,-0.069l-0.027,-0.07l-0.026,-0.07l-0.025,-0.071l-0.024,-0.072l-0.022,-0.072l-0.021,-0.073l-0.02,-0.073l-0.018,-0.074l-0.017,-0.074l-0.015,-0.075l-0.015,-0.076l-0.012,-0.076l-0.011,-0.076l-0.01,-0.077l-0.008,-0.077l-0.007,-0.078l-0.006,-0.078l-0.003,-0.079l-0.003,-0.079l-0.001,-0.079l0.001,-0.079l0.003,-0.079l0.003,-0.079l0.006,-0.078l0.007,-0.078l0.008,-0.077l0.01,-0.077l0.011,-0.076l0.012,-0.076l0.015,-0.076l0.015,-0.075l0.017,-0.074l0.018,-0.074l0.02,-0.073l0.021,-0.073l0.022,-0.072l0.024,-0.072l0.025,-0.071l0.026,-0.07l0.027,-0.07l0.029,-0.069l0.03,-0.069l0.031,-0.068l0.033,-0.067l0.034,-0.066l0.034,-0.066l0.037,-0.065l0.037,-0.064l0.038,-0.063l0.04,-0.063l0.04,-0.062l0.042,-0.061l0.043,-0.06l0.044,-0.06l0.045,-0.058l0.046,-0.058l0.047,-0.057l0.048,-0.056l0.049,-0.055l0.05,-0.054l0.051,-0.053l0.052,-0.052l0.053,-0.051l0.054,-0.051l0.055,-0.049l0.056,-0.048l0.056,-0.047l0.058,-0.047l0.058,-0.045l0.059,-0.044l0.061,-0.043l0.06,-0.042l0.062,-0.041l0.063,-0.039l0.063,-0.039l0.064,-0.037l0.065,-0.037l0.065,-0.035l0.066,-0.034l0.067,-0.032l0.068,-0.032l0.068,-0.03l0.069,-0.029l0.07,-0.028l0,-4.55l-0.07,-0.028l-0.069,-0.029l-0.068,-0.03l-0.068,-0.032l-0.067,-0.032l-0.066,-0.034l-0.065,-0.035l-0.065,-0.037l-0.064,-0.037l-0.063,-0.039l-0.063,-0.039l-0.062,-0.041l-0.06,-0.042l-0.061,-0.043l-0.059,-0.044l-0.058,-0.045l-0.058,-0.047l-0.056,-0.047l-0.056,-0.048l-0.055,-0.049l-0.054,-0.051l-0.053,-0.051l-0.052,-0.052l-0.051,-0.053l-0.05,-0.054l-0.049,-0.055l-0.048,-0.056l-0.047,-0.057l-0.046,-0.058l-0.045,-0.058l-0.044,-0.06l-0.043,-0.06l-0.042,-0.061l-0.04,-0.062l-0.04,-0.063l-0.038,-0.063l-0.037,-0.064l-0.037,-0.065l-0.034,-0.066l-0.034,-0.066l-0.033,-0.067l-0.031,-0.068l-0.03,-0.069l-0.029,-0.069l-0.027,-0.07l-0.026,-0.07l-0.025,-0.071l-0.024,-0.072l-0.022,-0.072l-0.021,-0.073l-0.02,-0.073l-0.018,-0.074l-0.017,-0.074l-0.015,-0.075l-0.015,-0.076l-0.012,-0.076l-0.011,-0.076l-0.01,-0.077l-0.008,-0.077l-0.007,-0.078l-0.006,-0.078l-0.003,-0.079l-0.003,-0.079l-0.001,-0.079l0.001,-0.079l0.003,-0.079l0.003,-0.079l0.006,-0.078l0.007,-0.078l0.008,-0.077l0.01,-0.077l0.011,-0.076l0.012,-0.076l0.015,-0.076l0.015,-0.075l0.017,-0.074l0.018,-0.074l0.02,-0.073l0.021,-0.073l0.022,-0.072l0.024,-0.072l0.025,-0.071l0.026,-0.07l0.027,-0.07l0.029,-0.069l0.03,-0.069l0.031,-0.068l0.033,-0.067l0.034,-0.066l0.034,-0.066l0.037,-0.065l0.037,-0.064l0.038,-0.063l0.04,-0.063l0.04,-0.062l0.042,-0.061l0.043,-0.06l0.044,-0.06l0.045,-0.058l0.046,-0.058l0.047,-0.057l0.048,-0.056l0.049,-0.055l0.05,-0.054l0.051,-0.053l0.052,-0.052l0.053,-0.051l0.054,-0.051l0.055,-0.049l0.056,-0.048l0.056,-0.047l0.058,-0.047l0.058,-0.045l0.059,-0.044l0.061,-0.043l0.06,-0.042l0.062,-0.041l0.063,-0.039l0.063,-0.039l0.064,-0.037l0.065,-0.037l0.065,-0.035l0.066,-0.034l0.067,-0.032l0.068,-0.032l0.068,-0.03l0.069,-0.029l0.07,-0.028l0,-3.799l0.001,-0.115l0.005,-0.115l0.007,-0.114l0.01,-0.113l0.013,-0.112l0.016,-0.111l0.018,-0.111l0.021,-0.109l0.023,-0.109l0.027,-0.108l0.029,-0.106l0.031,-0.106l0.034,-0.104l0.036,-0.104l0.039,-0.102l0.041,-0.101l0.044,-0.099l0.046,-0.099l0.048,-0.097l0.051,-0.096l0.053,-0.094l0.054,-0.093l0.058,-0.091l0.059,-0.09l0.061,-0.089l0.064,-0.087l0.065,-0.085l0.067,-0.084l0.07,-0.082l0.071,-0.08l0.073,-0.079l0.075,-0.077l0.077,-0.075l0.079,-0.073l0.08,-0.071l0.082,-0.07l0.084,-0.067l0.085,-0.066l0.087,-0.063l0.088,-0.062l0.09,-0.059l0.092,-0.057l0.093,-0.055l0.094,-0.053l0.096,-0.051l0.098,-0.048l0.098,-0.046l0.1,-0.044l0.101,-0.041l0.102,-0.039l0.104,-0.037l0.104,-0.034l0.106,-0.031l0.107,-0.029l0.108,-0.027l0.108,-0.024l0.11,-0.021l0.111,-0.018l0.112,-0.016l0.112,-0.013l0.114,-0.01l0.114,-0.008l0.115,-0.004l0.115,-0.002l47.048,0l0.115,0.002Zm-47.145,2.498l-0.066,0.001l-0.052,0.002l-0.051,0.003l-0.051,0.005l-0.05,0.006l-0.049,0.007l-0.049,0.008l-0.048,0.009l-0.048,0.011l-0.048,0.011l-0.047,0.013l-0.046,0.014l-0.046,0.015l-0.045,0.016l-0.045,0.017l-0.044,0.018l-0.044,0.019l-0.044,0.021l-0.043,0.021l-0.042,0.022l-0.041,0.024l-0.042,0.024l-0.04,0.025l-0.04,0.027l-0.039,0.027l-0.039,0.028l-0.038,0.029l-0.037,0.03l-0.037,0.031l-0.035,0.032l-0.035,0.032l-0.035,0.034l-0.033,0.034l-0.033,0.035l-0.031,0.036l-0.031,0.036l-0.03,0.037l-0.029,0.038l-0.028,0.039l-0.027,0.039l-0.027,0.04l-0.025,0.04l-0.024,0.041l-0.023,0.042l-0.023,0.042l-0.021,0.043l-0.02,0.043l-0.019,0.043l-0.018,0.044l-0.017,0.045l-0.016,0.045l-0.015,0.046l-0.013,0.046l-0.013,0.046l-0.011,0.047l-0.011,0.048l-0.009,0.048l-0.008,0.048l-0.007,0.049l-0.006,0.05l-0.004,0.05l-0.003,0.051l-0.002,0.051l-0.001,0.068l0,3.783l-0.011,0.229l-0.031,0.227l-0.052,0.224l-0.072,0.217l-0.092,0.21l-0.111,0.201l-0.129,0.189l-0.145,0.177l-0.161,0.163l-0.176,0.148l-0.188,0.131l-0.199,0.113l-0.209,0.094l-0.048,0.019l-0.025,0.011l-0.025,0.011l-0.025,0.012l-0.025,0.012l-0.024,0.012l-0.025,0.013l-0.024,0.014l-0.024,0.014l-0.023,0.014l-0.024,0.015l-0.023,0.015l-0.022,0.016l-0.023,0.016l-0.022,0.017l-0.022,0.017l-0.022,0.017l-0.021,0.018l-0.021,0.018l-0.021,0.018l-0.02,0.019l-0.02,0.02l-0.02,0.02l-0.019,0.02l-0.019,0.02l-0.018,0.021l-0.018,0.021l-0.018,0.021l-0.018,0.022l-0.017,0.022l-0.016,0.022l-0.016,0.023l-0.016,0.023l-0.015,0.023l-0.015,0.024l-0.014,0.023l-0.014,0.024l-0.014,0.025l-0.013,0.024l-0.012,0.025l-0.012,0.025l-0.012,0.025l-0.011,0.025l-0.011,0.026l-0.01,0.026l-0.009,0.026l-0.01,0.026l-0.008,0.026l-0.009,0.027l-0.007,0.027l-0.008,0.027l-0.006,0.027l-0.007,0.028l-0.005,0.028l-0.006,0.028l-0.004,0.028l-0.004,0.028l-0.004,0.029l-0.003,0.029l-0.003,0.03l-0.002,0.029l-0.001,0.03l-0.001,0.03l0,0.031l0,0.031l0.001,0.03l0.001,0.03l0.002,0.029l0.003,0.03l0.003,0.029l0.004,0.029l0.004,0.028l0.004,0.028l0.006,0.028l0.005,0.028l0.007,0.028l0.006,0.027l0.008,0.027l0.007,0.027l0.009,0.027l0.008,0.026l0.01,0.026l0.009,0.026l0.01,0.026l0.011,0.026l0.011,0.025l0.012,0.025l0.012,0.025l0.012,0.025l0.013,0.024l0.014,0.025l0.014,0.024l0.014,0.023l0.015,0.024l0.015,0.023l0.016,0.023l0.016,0.023l0.016,0.022l0.017,0.022l0.018,0.022l0.017,0.021l0.019,0.021l0.018,0.021l0.019,0.02l0.019,0.02l0.02,0.02l0.02,0.02l0.02,0.019l0.021,0.018l0.021,0.018l0.021,0.018l0.022,0.017l0.022,0.017l0.022,0.017l0.023,0.016l0.022,0.016l0.023,0.015l0.024,0.015l0.023,0.014l0.024,0.014l0.024,0.014l0.025,0.013l0.024,0.012l0.025,0.012l0.025,0.012l0.025,0.011l0.025,0.011l0.048,0.019l0.209,0.094l0.199,0.113l0.188,0.131l0.176,0.148l0.161,0.163l0.145,0.177l0.129,0.189l0.111,0.201l0.092,0.21l0.072,0.217l0.052,0.224l0.031,0.227l0.011,0.229l0,4.55l-0.011,0.229l-0.031,0.227l-0.052,0.224l-0.072,0.217l-0.092,0.21l-0.111,0.201l-0.129,0.189l-0.145,0.177l-0.161,0.163l-0.176,0.148l-0.188,0.131l-0.199,0.113l-0.209,0.094l-0.048,0.019l-0.025,0.011l-0.025,0.011l-0.025,0.012l-0.025,0.012l-0.024,0.012l-0.025,0.013l-0.024,0.014l-0.024,0.014l-0.023,0.014l-0.024,0.015l-0.023,0.015l-0.022,0.016l-0.023,0.016l-0.022,0.017l-0.022,0.017l-0.022,0.017l-0.021,0.018l-0.021,0.018l-0.021,0.019l-0.02,0.018l-0.02,0.02l-0.02,0.02l-0.019,0.02l-0.019,0.02l-0.018,0.021l-0.019,0.021l-0.017,0.021l-0.018,0.022l-0.017,0.022l-0.016,0.022l-0.016,0.023l-0.016,0.023l-0.015,0.023l-0.015,0.024l-0.014,0.023l-0.014,0.024l-0.014,0.025l-0.013,0.024l-0.012,0.025l-0.012,0.025l-0.012,0.025l-0.011,0.025l-0.011,0.026l-0.01,0.026l-0.009,0.026l-0.01,0.026l-0.008,0.026l-0.009,0.027l-0.007,0.027l-0.008,0.027l-0.006,0.027l-0.007,0.028l-0.005,0.028l-0.006,0.028l-0.004,0.028l-0.004,0.028l-0.004,0.029l-0.003,0.029l-0.003,0.03l-0.002,0.029l-0.001,0.03l-0.001,0.03l0,0.031l0,0.031l0.001,0.03l0.001,0.03l0.002,0.029l0.003,0.03l0.003,0.029l0.004,0.029l0.004,0.028l0.004,0.028l0.006,0.028l0.005,0.028l0.007,0.028l0.006,0.027l0.008,0.027l0.007,0.027l0.009,0.027l0.008,0.026l0.01,0.026l0.009,0.026l0.01,0.026l0.011,0.026l0.011,0.025l0.012,0.025l0.012,0.025l0.012,0.025l0.013,0.024l0.014,0.025l0.014,0.024l0.014,0.023l0.015,0.024l0.015,0.023l0.016,0.023l0.016,0.023l0.016,0.022l0.017,0.022l0.018,0.022l0.017,0.021l0.019,0.021l0.018,0.021l0.019,0.02l0.019,0.02l0.02,0.02l0.02,0.02l0.02,0.018l0.021,0.019l0.021,0.018l0.021,0.018l0.022,0.017l0.022,0.017l0.022,0.017l0.023,0.016l0.022,0.016l0.023,0.015l0.024,0.015l0.023,0.014l0.024,0.014l0.024,0.014l0.025,0.013l0.024,0.012l0.025,0.012l0.025,0.012l0.025,0.011l0.025,0.011l0.048,0.019l0.209,0.094l0.199,0.113l0.188,0.131l0.176,0.148l0.161,0.163l0.145,0.177l0.129,0.189l0.111,0.201l0.092,0.21l0.072,0.217l0.052,0.224l0.031,0.227l0.011,0.229l0,13.783l0.001,0.068l0.002,0.051l0.003,0.051l0.005,0.05l0.005,0.05l0.007,0.049l0.008,0.049l0.009,0.048l0.011,0.047l0.011,0.047l0.013,0.047l0.014,0.046l0.014,0.046l0.016,0.045l0.017,0.045l0.018,0.044l0.02,0.044l0.02,0.043l0.021,0.043l0.022,0.042l0.024,0.041l0.024,0.041l0.025,0.041l0.026,0.04l0.028,0.039l0.028,0.039l0.029,0.038l0.03,0.037l0.031,0.036l0.032,0.036l0.032,0.035l0.034,0.034l0.034,0.034l0.035,0.032l0.036,0.032l0.036,0.031l0.037,0.03l0.038,0.029l0.039,0.028l0.039,0.028l0.04,0.026l0.041,0.025l0.041,0.024l0.041,0.024l0.042,0.022l0.043,0.021l0.043,0.02l0.044,0.02l0.044,0.018l0.045,0.017l0.045,0.016l0.046,0.014l0.046,0.014l0.047,0.013l0.047,0.011l0.047,0.011l0.048,0.009l0.049,0.008l0.049,0.007l0.05,0.005l0.05,0.005l0.051,0.003l0.051,0.002l0.068,0.001l47.016,0l0.068,-0.001l0.051,-0.002l0.051,-0.003l0.05,-0.005l0.05,-0.005l0.049,-0.007l0.049,-0.008l0.048,-0.009l0.047,-0.011l0.047,-0.011l0.047,-0.013l0.046,-0.014l0.046,-0.014l0.045,-0.016l0.045,-0.017l0.044,-0.018l0.044,-0.02l0.043,-0.02l0.043,-0.021l0.042,-0.022l0.041,-0.024l0.041,-0.024l0.041,-0.025l0.04,-0.026l0.039,-0.028l0.039,-0.028l0.038,-0.029l0.037,-0.03l0.036,-0.031l0.036,-0.032l0.035,-0.032l0.034,-0.034l0.034,-0.034l0.032,-0.035l0.032,-0.036l0.031,-0.036l0.03,-0.037l0.029,-0.038l0.028,-0.039l0.028,-0.039l0.026,-0.04l0.025,-0.041l0.024,-0.041l0.024,-0.041l0.022,-0.042l0.021,-0.043l0.02,-0.043l0.02,-0.044l0.018,-0.044l0.017,-0.045l0.016,-0.045l0.014,-0.046l0.014,-0.046l0.013,-0.047l0.011,-0.047l0.011,-0.047l0.009,-0.048l0.008,-0.049l0.007,-0.049l0.005,-0.05l0.005,-0.05l0.003,-0.051l0.002,-0.051l0.001,-0.068l0,-25.783l0.011,-0.229l0.031,-0.227l0.052,-0.224l0.072,-0.217l0.092,-0.21l0.111,-0.201l0.129,-0.189l0.145,-0.177l0.161,-0.163l0.176,-0.148l0.188,-0.131l0.199,-0.113l0.209,-0.094l0.048,-0.019l0.025,-0.011l0.025,-0.011l0.025,-0.012l0.025,-0.012l0.024,-0.012l0.025,-0.013l0.024,-0.014l0.024,-0.014l0.023,-0.014l0.024,-0.015l0.023,-0.015l0.022,-0.016l0.023,-0.016l0.022,-0.017l0.022,-0.017l0.022,-0.017l0.021,-0.018l0.021,-0.018l0.021,-0.018l0.02,-0.019l0.02,-0.02l0.02,-0.019l0.019,-0.021l0.019,-0.02l0.018,-0.021l0.018,-0.021l0.018,-0.021l0.018,-0.022l0.017,-0.022l0.016,-0.022l0.016,-0.023l0.016,-0.023l0.015,-0.023l0.015,-0.024l0.014,-0.023l0.014,-0.024l0.014,-0.025l0.013,-0.024l0.012,-0.025l0.012,-0.025l0.012,-0.025l0.011,-0.025l0.011,-0.026l0.01,-0.026l0.009,-0.026l0.01,-0.026l0.008,-0.026l0.009,-0.027l0.007,-0.027l0.008,-0.027l0.006,-0.027l0.007,-0.028l0.005,-0.028l0.006,-0.028l0.004,-0.028l0.004,-0.028l0.004,-0.029l0.003,-0.029l0.003,-0.03l0.002,-0.029l0.001,-0.03l0.001,-0.03l0,-0.031l0,-0.031l-0.001,-0.03l-0.001,-0.03l-0.002,-0.029l-0.003,-0.03l-0.003,-0.029l-0.004,-0.029l-0.004,-0.028l-0.004,-0.028l-0.006,-0.028l-0.005,-0.028l-0.007,-0.028l-0.006,-0.027l-0.008,-0.027l-0.007,-0.027l-0.009,-0.027l-0.008,-0.026l-0.01,-0.026l-0.009,-0.026l-0.01,-0.026l-0.011,-0.026l-0.011,-0.025l-0.012,-0.025l-0.012,-0.025l-0.012,-0.025l-0.013,-0.024l-0.014,-0.025l-0.014,-0.024l-0.014,-0.023l-0.015,-0.024l-0.015,-0.023l-0.016,-0.023l-0.016,-0.023l-0.016,-0.022l-0.017,-0.022l-0.018,-0.022l-0.018,-0.021l-0.018,-0.021l-0.018,-0.021l-0.019,-0.02l-0.019,-0.021l-0.02,-0.019l-0.02,-0.02l-0.02,-0.019l-0.021,-0.018l-0.021,-0.018l-0.021,-0.018l-0.022,-0.017l-0.022,-0.017l-0.022,-0.017l-0.023,-0.016l-0.022,-0.016l-0.023,-0.015l-0.024,-0.015l-0.023,-0.014l-0.024,-0.014l-0.024,-0.014l-0.025,-0.013l-0.024,-0.012l-0.025,-0.012l-0.025,-0.012l-0.025,-0.011l-0.025,-0.011l-0.048,-0.019l-0.209,-0.094l-0.199,-0.113l-0.188,-0.131l-0.176,-0.148l-0.161,-0.163l-0.145,-0.177l-0.129,-0.189l-0.111,-0.201l-0.092,-0.21l-0.072,-0.217l-0.052,-0.224l-0.031,-0.227l-0.011,-0.229l0,-3.783l-0.001,-0.068l-0.002,-0.051l-0.003,-0.051l-0.004,-0.05l-0.006,-0.05l-0.007,-0.049l-0.008,-0.048l-0.009,-0.048l-0.011,-0.048l-0.011,-0.047l-0.013,-0.046l-0.013,-0.046l-0.015,-0.046l-0.016,-0.045l-0.017,-0.045l-0.018,-0.044l-0.019,-0.043l-0.02,-0.043l-0.021,-0.043l-0.023,-0.042l-0.023,-0.042l-0.024,-0.041l-0.025,-0.04l-0.027,-0.04l-0.027,-0.039l-0.028,-0.039l-0.029,-0.038l-0.03,-0.037l-0.031,-0.036l-0.031,-0.036l-0.033,-0.035l-0.033,-0.034l-0.035,-0.034l-0.035,-0.032l-0.035,-0.032l-0.037,-0.031l-0.037,-0.03l-0.038,-0.029l-0.039,-0.028l-0.039,-0.027l-0.04,-0.027l-0.04,-0.025l-0.042,-0.024l-0.041,-0.024l-0.042,-0.022l-0.043,-0.021l-0.044,-0.021l-0.044,-0.019l-0.044,-0.018l-0.045,-0.017l-0.045,-0.016l-0.046,-0.015l-0.046,-0.014l-0.047,-0.013l-0.048,-0.011l-0.048,-0.011l-0.048,-0.009l-0.049,-0.008l-0.049,-0.007l-0.05,-0.006l-0.051,-0.005l-0.051,-0.003l-0.052,-0.002l-0.066,-0.001l-47.012,0Z"/><path d="M32.116,23.001l0.116,0.002l0.116,0.004l0.115,0.005l0.115,0.006l0.114,0.008l0.114,0.01l0.114,0.011l0.113,0.012l0.113,0.013l0.112,0.015l0.112,0.017l0.111,0.018l0.111,0.019l0.111,0.02l0.11,0.022l0.109,0.023l0.109,0.025l0.109,0.025l0.108,0.028l0.108,0.028l0.107,0.03l0.106,0.031l0.106,0.032l0.105,0.033l0.105,0.035l0.105,0.036l0.103,0.037l0.103,0.039l0.103,0.04l0.102,0.041l0.101,0.042l0.1,0.043l0.1,0.045l0.1,0.045l0.098,0.047l0.098,0.048l0.098,0.049l0.096,0.051l0.096,0.051l0.096,0.052l0.094,0.054l0.094,0.055l0.093,0.056l0.093,0.057l0.091,0.058l0.091,0.059l0.091,0.06l0.089,0.061l0.089,0.062l0.087,0.064l0.087,0.064l0.087,0.065l0.085,0.067l0.085,0.067l0.083,0.068l0.083,0.07l0.082,0.07l0.082,0.071l0.08,0.072l0.08,0.073l0.078,0.074l0.078,0.075l0.077,0.076l0.076,0.077l0.075,0.078l0.074,0.078l0.073,0.08l0.072,0.08l0.071,0.082l0.07,0.082l0.07,0.083l0.068,0.083l0.067,0.085l0.067,0.085l0.065,0.087l0.064,0.087l0.064,0.087l0.062,0.089l0.061,0.089l0.06,0.091l0.059,0.091l0.058,0.091l0.057,0.093l0.056,0.093l0.055,0.094l0.054,0.094l0.052,0.096l0.051,0.096l0.051,0.096l0.049,0.098l0.048,0.098l0.047,0.098l0.045,0.1l0.045,0.1l0.043,0.1l0.042,0.101l0.041,0.102l0.04,0.103l0.039,0.103l0.037,0.103l0.036,0.105l0.035,0.105l0.033,0.105l0.032,0.106l0.031,0.106l0.03,0.107l0.028,0.108l0.028,0.108l0.025,0.109l0.025,0.109l0.023,0.109l0.022,0.11l0.02,0.111l0.019,0.111l0.018,0.111l0.017,0.112l0.015,0.112l0.013,0.113l0.012,0.113l0.011,0.114l0.01,0.114l0.008,0.114l0.006,0.115l0.005,0.115l0.004,0.116l0.002,0.116l0.001,0.116l-0.001,0.116l-0.002,0.116l-0.004,0.116l-0.005,0.115l-0.006,0.115l-0.008,0.114l-0.01,0.114l-0.011,0.114l-0.012,0.113l-0.013,0.113l-0.015,0.112l-0.017,0.112l-0.018,0.111l-0.019,0.111l-0.02,0.111l-0.022,0.11l-0.023,0.109l-0.025,0.109l-0.025,0.109l-0.028,0.108l-0.028,0.108l-0.03,0.107l-0.031,0.106l-0.032,0.106l-0.033,0.105l-0.035,0.105l-0.036,0.105l-0.037,0.103l-0.039,0.103l-0.04,0.103l-0.041,0.102l-0.042,0.101l-0.043,0.1l-0.045,0.1l-0.045,0.1l-0.047,0.098l-0.048,0.098l-0.049,0.098l-0.051,0.096l-0.051,0.096l-0.052,0.096l-0.054,0.094l-0.055,0.094l-0.056,0.093l-0.057,0.093l-0.058,0.091l-0.059,0.091l-0.06,0.091l-0.061,0.089l-0.062,0.089l-0.064,0.087l-0.064,0.087l-0.065,0.087l-0.067,0.085l-0.067,0.085l-0.068,0.083l-0.07,0.083l-0.07,0.082l-0.071,0.082l-0.072,0.08l-0.073,0.08l-0.074,0.078l-0.075,0.078l-0.076,0.077l-0.077,0.076l-0.078,0.075l-0.078,0.074l-0.08,0.073l-0.08,0.072l-0.082,0.071l-0.082,0.07l-0.083,0.07l-0.083,0.068l-0.085,0.067l-0.085,0.067l-0.087,0.065l-0.087,0.064l-0.087,0.064l-0.089,0.062l-0.089,0.061l-0.091,0.06l-0.091,0.059l-0.091,0.058l-0.093,0.057l-0.093,0.056l-0.094,0.055l-0.094,0.054l-0.096,0.052l-0.096,0.051l-0.096,0.051l-0.098,0.049l-0.098,0.048l-0.098,0.047l-0.1,0.045l-0.1,0.045l-0.1,0.043l-0.101,0.042l-0.102,0.041l-0.103,0.04l-0.103,0.039l-0.103,0.037l-0.105,0.036l-0.105,0.035l-0.105,0.033l-0.106,0.032l-0.106,0.031l-0.107,0.03l-0.108,0.028l-0.108,0.028l-0.109,0.025l-0.109,0.025l-0.109,0.023l-0.11,0.022l-0.111,0.02l-0.111,0.019l-0.111,0.018l-0.112,0.017l-0.112,0.015l-0.113,0.013l-0.113,0.012l-0.114,0.011l-0.114,0.01l-0.114,0.008l-0.115,0.006l-0.115,0.005l-0.116,0.004l-0.116,0.002l-0.116,0.001l-0.116,-0.001l-0.116,-0.002l-0.116,-0.004l-0.115,-0.005l-0.115,-0.006l-0.114,-0.008l-0.114,-0.01l-0.114,-0.011l-0.113,-0.012l-0.113,-0.013l-0.112,-0.015l-0.112,-0.017l-0.111,-0.018l-0.111,-0.019l-0.111,-0.02l-0.11,-0.022l-0.109,-0.023l-0.109,-0.025l-0.109,-0.025l-0.108,-0.028l-0.108,-0.028l-0.107,-0.03l-0.106,-0.031l-0.106,-0.032l-0.105,-0.033l-0.105,-0.035l-0.105,-0.036l-0.103,-0.037l-0.103,-0.039l-0.103,-0.04l-0.102,-0.041l-0.101,-0.042l-0.1,-0.043l-0.1,-0.045l-0.1,-0.045l-0.098,-0.047l-0.098,-0.048l-0.098,-0.049l-0.096,-0.051l-0.096,-0.051l-0.096,-0.052l-0.094,-0.054l-0.094,-0.055l-0.093,-0.056l-0.093,-0.057l-0.091,-0.058l-0.091,-0.059l-0.091,-0.06l-0.089,-0.061l-0.089,-0.062l-0.087,-0.064l-0.087,-0.064l-0.087,-0.065l-0.085,-0.067l-0.085,-0.067l-0.083,-0.068l-0.083,-0.07l-0.082,-0.07l-0.082,-0.071l-0.08,-0.072l-0.08,-0.073l-0.078,-0.074l-0.078,-0.075l-0.077,-0.076l-0.076,-0.077l-0.075,-0.078l-0.074,-0.078l-0.073,-0.08l-0.072,-0.08l-0.071,-0.082l-0.07,-0.082l-0.07,-0.083l-0.068,-0.083l-0.067,-0.085l-0.067,-0.085l-0.065,-0.087l-0.064,-0.087l-0.064,-0.087l-0.062,-0.089l-0.061,-0.089l-0.06,-0.091l-0.059,-0.091l-0.058,-0.091l-0.057,-0.093l-0.056,-0.093l-0.055,-0.094l-0.054,-0.094l-0.052,-0.096l-0.051,-0.096l-0.051,-0.096l-0.049,-0.098l-0.048,-0.098l-0.047,-0.098l-0.045,-0.1l-0.045,-0.1l-0.043,-0.1l-0.042,-0.101l-0.041,-0.102l-0.04,-0.103l-0.039,-0.103l-0.037,-0.103l-0.036,-0.105l-0.035,-0.105l-0.033,-0.105l-0.032,-0.106l-0.031,-0.106l-0.03,-0.107l-0.028,-0.108l-0.028,-0.108l-0.025,-0.109l-0.025,-0.109l-0.023,-0.109l-0.022,-0.11l-0.02,-0.111l-0.019,-0.111l-0.018,-0.111l-0.017,-0.112l-0.015,-0.112l-0.013,-0.113l-0.012,-0.113l-0.011,-0.114l-0.01,-0.114l-0.008,-0.114l-0.006,-0.115l-0.005,-0.115l-0.004,-0.116l-0.002,-0.116l-0.001,-0.116l0.001,-0.116l0.002,-0.116l0.004,-0.116l0.005,-0.115l0.006,-0.115l0.008,-0.114l0.01,-0.114l0.011,-0.114l0.012,-0.113l0.013,-0.113l0.015,-0.112l0.017,-0.112l0.018,-0.111l0.019,-0.111l0.02,-0.111l0.022,-0.11l0.023,-0.109l0.025,-0.109l0.025,-0.109l0.028,-0.108l0.028,-0.108l0.03,-0.107l0.031,-0.106l0.032,-0.106l0.033,-0.105l0.035,-0.105l0.036,-0.105l0.037,-0.103l0.039,-0.103l0.04,-0.103l0.041,-0.102l0.042,-0.101l0.043,-0.1l0.045,-0.1l0.045,-0.1l0.047,-0.098l0.048,-0.098l0.049,-0.098l0.051,-0.096l0.051,-0.096l0.052,-0.096l0.054,-0.094l0.055,-0.094l0.056,-0.093l0.057,-0.093l0.058,-0.091l0.059,-0.091l0.06,-0.091l0.061,-0.089l0.062,-0.089l0.064,-0.087l0.064,-0.087l0.065,-0.087l0.067,-0.085l0.067,-0.085l0.068,-0.083l0.07,-0.083l0.07,-0.082l0.071,-0.082l0.072,-0.08l0.073,-0.08l0.074,-0.078l0.075,-0.078l0.076,-0.077l0.077,-0.076l0.078,-0.075l0.078,-0.074l0.08,-0.073l0.08,-0.072l0.082,-0.071l0.082,-0.07l0.083,-0.07l0.083,-0.068l0.085,-0.067l0.085,-0.067l0.087,-0.065l0.087,-0.064l0.087,-0.064l0.089,-0.062l0.089,-0.061l0.091,-0.06l0.091,-0.059l0.091,-0.058l0.093,-0.057l0.093,-0.056l0.094,-0.055l0.094,-0.054l0.096,-0.052l0.096,-0.051l0.096,-0.051l0.098,-0.049l0.098,-0.048l0.098,-0.047l0.1,-0.045l0.1,-0.045l0.1,-0.043l0.101,-0.042l0.102,-0.041l0.103,-0.04l0.103,-0.039l0.103,-0.037l0.105,-0.036l0.105,-0.035l0.105,-0.033l0.106,-0.032l0.106,-0.031l0.107,-0.03l0.108,-0.028l0.108,-0.028l0.109,-0.025l0.109,-0.025l0.109,-0.023l0.11,-0.022l0.111,-0.02l0.111,-0.019l0.111,-0.018l0.112,-0.017l0.112,-0.015l0.113,-0.013l0.113,-0.012l0.114,-0.011l0.114,-0.01l0.114,-0.008l0.115,-0.006l0.115,-0.005l0.116,-0.004l0.116,-0.002l0.116,-0.001l0.116,0.001Zm-0.201,2.5l-0.084,0.001l-0.084,0.003l-0.083,0.004l-0.083,0.004l-0.083,0.006l-0.083,0.007l-0.082,0.008l-0.082,0.009l-0.081,0.009l-0.081,0.011l-0.081,0.012l-0.08,0.013l-0.08,0.014l-0.08,0.014l-0.079,0.016l-0.079,0.017l-0.079,0.017l-0.078,0.019l-0.078,0.02l-0.077,0.02l-0.077,0.021l-0.077,0.023l-0.076,0.023l-0.076,0.024l-0.075,0.025l-0.075,0.026l-0.075,0.027l-0.074,0.028l-0.074,0.028l-0.073,0.03l-0.073,0.03l-0.073,0.031l-0.072,0.032l-0.071,0.033l-0.072,0.034l-0.07,0.035l-0.071,0.035l-0.069,0.036l-0.07,0.037l-0.068,0.038l-0.069,0.039l-0.067,0.04l-0.068,0.04l-0.066,0.041l-0.067,0.042l-0.065,0.043l-0.066,0.043l-0.064,0.045l-0.064,0.045l-0.064,0.045l-0.063,0.047l-0.062,0.047l-0.062,0.048l-0.061,0.049l-0.061,0.049l-0.06,0.05l-0.059,0.051l-0.059,0.052l-0.058,0.052l-0.058,0.053l-0.057,0.054l-0.056,0.054l-0.056,0.055l-0.055,0.056l-0.054,0.056l-0.054,0.057l-0.053,0.058l-0.052,0.058l-0.052,0.059l-0.051,0.059l-0.05,0.06l-0.049,0.061l-0.049,0.061l-0.048,0.062l-0.047,0.062l-0.047,0.063l-0.045,0.064l-0.045,0.064l-0.045,0.064l-0.043,0.066l-0.043,0.065l-0.042,0.067l-0.041,0.066l-0.04,0.068l-0.04,0.067l-0.039,0.069l-0.038,0.068l-0.037,0.07l-0.036,0.069l-0.035,0.071l-0.035,0.07l-0.034,0.072l-0.033,0.071l-0.032,0.072l-0.031,0.073l-0.03,0.073l-0.03,0.073l-0.028,0.074l-0.028,0.074l-0.027,0.075l-0.026,0.075l-0.025,0.075l-0.024,0.076l-0.023,0.076l-0.023,0.077l-0.021,0.077l-0.02,0.077l-0.02,0.078l-0.019,0.078l-0.017,0.079l-0.017,0.079l-0.016,0.079l-0.014,0.08l-0.014,0.08l-0.013,0.08l-0.012,0.081l-0.011,0.081l-0.009,0.081l-0.009,0.082l-0.008,0.082l-0.007,0.083l-0.006,0.083l-0.004,0.083l-0.004,0.083l-0.003,0.084l-0.001,0.084l-0.001,0.085l0.001,0.085l0.001,0.084l0.003,0.084l0.004,0.083l0.004,0.083l0.006,0.083l0.007,0.083l0.008,0.082l0.009,0.082l0.009,0.081l0.011,0.081l0.012,0.081l0.013,0.08l0.014,0.08l0.014,0.08l0.016,0.079l0.017,0.079l0.017,0.079l0.019,0.078l0.02,0.078l0.02,0.077l0.021,0.077l0.023,0.077l0.023,0.076l0.024,0.076l0.025,0.075l0.026,0.075l0.027,0.075l0.028,0.074l0.028,0.074l0.03,0.073l0.03,0.073l0.031,0.073l0.032,0.072l0.033,0.072l0.034,0.071l0.035,0.07l0.035,0.071l0.036,0.069l0.037,0.07l0.038,0.068l0.039,0.069l0.04,0.067l0.04,0.068l0.041,0.066l0.042,0.067l0.043,0.065l0.043,0.066l0.045,0.064l0.045,0.064l0.045,0.064l0.047,0.063l0.047,0.062l0.048,0.062l0.049,0.061l0.049,0.061l0.05,0.06l0.051,0.059l0.052,0.059l0.052,0.058l0.053,0.058l0.054,0.057l0.054,0.056l0.055,0.056l0.056,0.055l0.056,0.054l0.057,0.054l0.058,0.053l0.058,0.052l0.059,0.052l0.059,0.051l0.06,0.05l0.061,0.049l0.061,0.049l0.062,0.048l0.062,0.047l0.063,0.047l0.064,0.045l0.064,0.045l0.064,0.045l0.066,0.043l0.065,0.043l0.066,0.042l0.067,0.041l0.068,0.04l0.067,0.04l0.069,0.039l0.068,0.038l0.07,0.037l0.069,0.036l0.071,0.035l0.07,0.035l0.072,0.034l0.071,0.033l0.072,0.032l0.073,0.031l0.073,0.03l0.073,0.03l0.074,0.028l0.074,0.028l0.075,0.027l0.075,0.026l0.075,0.025l0.076,0.024l0.076,0.023l0.077,0.023l0.077,0.021l0.077,0.02l0.078,0.02l0.078,0.019l0.079,0.017l0.079,0.017l0.079,0.016l0.08,0.014l0.08,0.014l0.08,0.013l0.081,0.012l0.081,0.011l0.081,0.009l0.082,0.009l0.082,0.008l0.083,0.007l0.083,0.006l0.083,0.004l0.083,0.004l0.084,0.003l0.084,0.001l0.085,0.001l0.085,-0.001l0.084,-0.001l0.084,-0.003l0.083,-0.004l0.083,-0.004l0.083,-0.006l0.083,-0.007l0.082,-0.008l0.082,-0.009l0.081,-0.009l0.081,-0.011l0.081,-0.012l0.08,-0.013l0.08,-0.014l0.08,-0.014l0.079,-0.016l0.079,-0.017l0.079,-0.017l0.078,-0.019l0.078,-0.02l0.077,-0.02l0.077,-0.021l0.077,-0.023l0.076,-0.023l0.076,-0.024l0.075,-0.025l0.075,-0.026l0.075,-0.027l0.074,-0.028l0.074,-0.028l0.073,-0.03l0.073,-0.03l0.073,-0.031l0.072,-0.032l0.072,-0.033l0.071,-0.034l0.07,-0.035l0.071,-0.035l0.069,-0.036l0.07,-0.037l0.068,-0.038l0.069,-0.039l0.067,-0.04l0.068,-0.04l0.067,-0.041l0.066,-0.042l0.065,-0.043l0.066,-0.043l0.064,-0.045l0.064,-0.045l0.064,-0.045l0.063,-0.047l0.062,-0.047l0.062,-0.048l0.061,-0.049l0.061,-0.049l0.06,-0.05l0.059,-0.051l0.059,-0.052l0.058,-0.052l0.058,-0.053l0.057,-0.054l0.056,-0.054l0.056,-0.055l0.055,-0.056l0.054,-0.056l0.054,-0.057l0.053,-0.058l0.052,-0.058l0.052,-0.059l0.051,-0.059l0.05,-0.06l0.049,-0.061l0.049,-0.061l0.048,-0.062l0.047,-0.062l0.047,-0.063l0.045,-0.064l0.045,-0.064l0.045,-0.064l0.043,-0.066l0.043,-0.065l0.042,-0.066l0.041,-0.067l0.04,-0.068l0.04,-0.067l0.039,-0.069l0.038,-0.068l0.037,-0.07l0.036,-0.069l0.035,-0.071l0.035,-0.07l0.034,-0.071l0.033,-0.072l0.032,-0.072l0.031,-0.073l0.03,-0.073l0.03,-0.073l0.028,-0.074l0.028,-0.074l0.027,-0.075l0.026,-0.075l0.025,-0.075l0.024,-0.076l0.023,-0.076l0.023,-0.077l0.021,-0.077l0.02,-0.077l0.02,-0.078l0.019,-0.078l0.017,-0.079l0.017,-0.079l0.016,-0.079l0.014,-0.08l0.014,-0.08l0.013,-0.08l0.012,-0.081l0.011,-0.081l0.009,-0.081l0.009,-0.082l0.008,-0.082l0.007,-0.083l0.006,-0.083l0.004,-0.083l0.004,-0.083l0.003,-0.084l0.001,-0.084l0.001,-0.085l-0.001,-0.085l-0.001,-0.084l-0.003,-0.084l-0.004,-0.083l-0.004,-0.083l-0.006,-0.083l-0.007,-0.083l-0.008,-0.082l-0.009,-0.082l-0.009,-0.081l-0.011,-0.081l-0.012,-0.081l-0.013,-0.08l-0.014,-0.08l-0.014,-0.08l-0.016,-0.079l-0.017,-0.079l-0.017,-0.079l-0.019,-0.078l-0.02,-0.078l-0.02,-0.077l-0.021,-0.077l-0.023,-0.077l-0.023,-0.076l-0.024,-0.076l-0.025,-0.075l-0.026,-0.075l-0.027,-0.075l-0.028,-0.074l-0.028,-0.074l-0.03,-0.073l-0.03,-0.073l-0.031,-0.073l-0.032,-0.072l-0.033,-0.071l-0.034,-0.072l-0.035,-0.07l-0.035,-0.071l-0.036,-0.069l-0.037,-0.07l-0.038,-0.068l-0.039,-0.069l-0.04,-0.067l-0.04,-0.068l-0.041,-0.067l-0.042,-0.066l-0.043,-0.065l-0.043,-0.066l-0.045,-0.064l-0.045,-0.064l-0.045,-0.064l-0.047,-0.063l-0.047,-0.062l-0.048,-0.062l-0.049,-0.061l-0.049,-0.061l-0.05,-0.06l-0.051,-0.059l-0.052,-0.059l-0.052,-0.058l-0.053,-0.058l-0.054,-0.057l-0.054,-0.056l-0.055,-0.056l-0.056,-0.055l-0.056,-0.054l-0.057,-0.054l-0.058,-0.053l-0.058,-0.052l-0.059,-0.052l-0.059,-0.051l-0.06,-0.05l-0.061,-0.049l-0.061,-0.049l-0.062,-0.048l-0.062,-0.047l-0.063,-0.047l-0.064,-0.045l-0.064,-0.045l-0.064,-0.045l-0.066,-0.043l-0.065,-0.043l-0.067,-0.042l-0.066,-0.041l-0.068,-0.04l-0.067,-0.04l-0.069,-0.039l-0.068,-0.038l-0.07,-0.037l-0.069,-0.036l-0.071,-0.035l-0.07,-0.035l-0.071,-0.034l-0.072,-0.033l-0.072,-0.032l-0.073,-0.031l-0.073,-0.03l-0.073,-0.03l-0.074,-0.028l-0.074,-0.028l-0.075,-0.027l-0.075,-0.026l-0.075,-0.025l-0.076,-0.024l-0.076,-0.023l-0.077,-0.023l-0.077,-0.021l-0.077,-0.02l-0.078,-0.02l-0.078,-0.019l-0.079,-0.017l-0.079,-0.017l-0.079,-0.016l-0.08,-0.014l-0.08,-0.014l-0.08,-0.013l-0.081,-0.012l-0.081,-0.011l-0.081,-0.009l-0.082,-0.009l-0.082,-0.008l-0.083,-0.007l-0.083,-0.006l-0.083,-0.004l-0.083,-0.004l-0.084,-0.003l-0.084,-0.001l-0.085,-0.001l-0.085,0.001Z"/></svg>