<?xml version="1.0" encoding="UTF-8" standalone="no"?><!DOCTYPE svg PUBLIC "-//W3C//DTD SVG 1.1//EN" "http://www.w3.org/Graphics/SVG/1.1/DTD/svg11.dtd"><svg width="100%" height="100%" viewBox="0 0 64 64" version="1.1" xmlns="http://www.w3.org/2000/svg" xmlns:xlink="http://www.w3.org/1999/xlink" xml:space="preserve" xmlns:serif="http://www.serif.com/" style="fill-rule:evenodd;clip-rule:evenodd;stroke-linejoin:round;stroke-miterlimit:1.41421;"><g><path d="M23.34,40.531l-4.09,0l-6.047,-10.617l0,10.617l-4.113,0l0,-17.062l4.113,0l6.035,10.617l0,-10.617l4.102,0l0,17.062Z" style="fill-rule:nonzero;"/><path d="M40.391,32.352c0,1.664 -0.309,3.136 -0.926,4.418c-0.617,1.281 -1.494,2.267 -2.631,2.959c-1.137,0.691 -2.432,1.037 -3.885,1.037c-1.453,0 -2.742,-0.334 -3.867,-1.002c-1.125,-0.668 -2.002,-1.623 -2.631,-2.866c-0.629,-1.242 -0.959,-2.668 -0.99,-4.277l0,-0.961c0,-1.672 0.307,-3.146 0.92,-4.424c0.613,-1.277 1.492,-2.263 2.637,-2.959c1.144,-0.695 2.447,-1.043 3.908,-1.043c1.445,0 2.734,0.344 3.867,1.032c1.133,0.687 2.014,1.666 2.643,2.935c0.628,1.27 0.947,2.725 0.955,4.365l0,0.786Zm-4.184,-0.715c0,-1.696 -0.283,-2.983 -0.85,-3.862c-0.566,-0.879 -1.377,-1.318 -2.431,-1.318c-2.063,0 -3.153,1.547 -3.27,4.641l-0.011,1.254c0,1.671 0.277,2.957 0.832,3.855c0.554,0.898 1.378,1.348 2.472,1.348c1.039,0 1.84,-0.442 2.403,-1.325c0.562,-0.882 0.847,-2.152 0.855,-3.808l0,-0.785Z" style="fill-rule:nonzero;"/><path d="M54.91,26.645l-5.121,0l0,13.886l-4.113,0l0,-13.886l-5.028,0l0,-3.176l14.262,0l0,3.176Z" style="fill-rule:nonzero;"/></g></svg>