<?xml version="1.0" encoding="UTF-8" standalone="no"?><!DOCTYPE svg PUBLIC "-//W3C//DTD SVG 1.1//EN" "http://www.w3.org/Graphics/SVG/1.1/DTD/svg11.dtd"><svg width="100%" height="100%" viewBox="0 0 64 64" version="1.1" xmlns="http://www.w3.org/2000/svg" xmlns:xlink="http://www.w3.org/1999/xlink" xml:space="preserve" xmlns:serif="http://www.serif.com/" style="fill-rule:evenodd;clip-rule:evenodd;stroke-linejoin:round;stroke-miterlimit:1.41421;"><path d="M54.621,4.001l0.07,0.001l0.07,0.002l0.07,0.003l0.07,0.004l0.069,0.005l0.069,0.006l0.069,0.007l0.069,0.007l0.068,0.009l0.068,0.009l0.068,0.01l0.067,0.011l0.068,0.011l0.067,0.013l0.066,0.013l0.067,0.014l0.066,0.015l0.066,0.016l0.065,0.016l0.065,0.017l0.065,0.018l0.065,0.019l0.064,0.02l0.064,0.02l0.063,0.021l0.063,0.022l0.063,0.023l0.062,0.023l0.062,0.024l0.062,0.025l0.062,0.025l0.06,0.027l0.061,0.027l0.06,0.027l0.06,0.029l0.059,0.029l0.059,0.03l0.059,0.03l0.058,0.031l0.058,0.032l0.057,0.033l0.057,0.033l0.056,0.034l0.056,0.034l0.056,0.035l0.055,0.036l0.054,0.037l0.054,0.037l0.054,0.037l0.053,0.039l0.053,0.039l0.052,0.039l0.052,0.04l0.051,0.041l0.051,0.041l0.05,0.042l0.05,0.043l0.049,0.043l0.048,0.044l0.048,0.044l0.048,0.045l0.047,0.045l0.047,0.046l0.046,0.047l0.045,0.047l0.045,0.047l0.044,0.048l0.044,0.049l0.043,0.049l0.042,0.05l0.042,0.05l0.042,0.051l0.04,0.051l0.04,0.052l0.04,0.052l0.039,0.053l0.038,0.053l0.038,0.053l0.037,0.055l0.036,0.054l0.036,0.055l0.035,0.056l0.034,0.056l0.034,0.056l0.033,0.057l0.033,0.057l0.032,0.058l0.031,0.058l0.03,0.058l0.03,0.059l0.029,0.059l0.028,0.06l0.028,0.06l0.027,0.061l0.026,0.061l0.025,0.061l0.025,0.062l0.024,0.062l0.024,0.062l0.022,0.063l0.022,0.063l0.021,0.063l0.02,0.064l0.02,0.064l0.018,0.064l0.018,0.065l0.018,0.065l0.016,0.066l0.016,0.065l0.014,0.066l0.014,0.067l0.014,0.066l0.012,0.067l0.012,0.067l0.01,0.068l0.01,0.067l0.009,0.068l0.008,0.069l0.008,0.068l0.006,0.069l0.006,0.069l0.005,0.069l0.004,0.069l0.003,0.07l0.002,0.07l0.002,0.07l0,0.07l0,2.826l0.07,0.028l0.069,0.029l0.068,0.03l0.068,0.032l0.067,0.032l0.066,0.034l0.065,0.035l0.065,0.037l0.064,0.037l0.063,0.039l0.063,0.039l0.062,0.041l0.06,0.042l0.061,0.043l0.059,0.044l0.058,0.045l0.058,0.047l0.056,0.047l0.056,0.048l0.055,0.049l0.054,0.051l0.053,0.051l0.052,0.052l0.051,0.053l0.05,0.054l0.049,0.055l0.048,0.056l0.047,0.057l0.046,0.058l0.045,0.058l0.044,0.06l0.043,0.06l0.042,0.061l0.04,0.062l0.04,0.063l0.038,0.063l0.037,0.064l0.037,0.065l0.034,0.066l0.034,0.066l0.033,0.067l0.031,0.068l0.03,0.069l0.029,0.069l0.027,0.07l0.026,0.07l0.025,0.071l0.024,0.072l0.022,0.072l0.021,0.073l0.02,0.073l0.018,0.074l0.017,0.074l0.015,0.075l0.015,0.076l0.012,0.076l0.011,0.076l0.01,0.077l0.008,0.077l0.007,0.078l0.006,0.078l0.003,0.079l0.003,0.079l0.001,0.079l-0.001,0.079l-0.003,0.079l-0.003,0.079l-0.006,0.078l-0.007,0.078l-0.008,0.077l-0.01,0.077l-0.011,0.076l-0.012,0.076l-0.015,0.076l-0.015,0.075l-0.017,0.074l-0.018,0.074l-0.02,0.073l-0.021,0.073l-0.022,0.072l-0.024,0.072l-0.025,0.071l-0.026,0.07l-0.027,0.07l-0.029,0.069l-0.03,0.069l-0.031,0.068l-0.033,0.067l-0.034,0.066l-0.034,0.066l-0.037,0.065l-0.037,0.064l-0.038,0.063l-0.04,0.063l-0.04,0.062l-0.042,0.061l-0.043,0.06l-0.044,0.06l-0.045,0.058l-0.046,0.058l-0.047,0.057l-0.048,0.056l-0.049,0.055l-0.05,0.054l-0.051,0.053l-0.052,0.052l-0.053,0.051l-0.054,0.051l-0.055,0.049l-0.056,0.048l-0.056,0.047l-0.058,0.047l-0.058,0.045l-0.059,0.044l-0.061,0.043l-0.06,0.042l-0.062,0.041l-0.063,0.039l-0.063,0.039l-0.064,0.037l-0.065,0.037l-0.065,0.035l-0.066,0.034l-0.067,0.032l-0.068,0.032l-0.068,0.03l-0.069,0.029l-0.07,0.028l0,34.826l0,0.07l-0.002,0.07l-0.002,0.07l-0.003,0.07l-0.004,0.069l-0.005,0.07l-0.006,0.069l-0.006,0.068l-0.008,0.069l-0.008,0.068l-0.009,0.068l-0.01,0.068l-0.011,0.067l-0.011,0.068l-0.013,0.067l-0.013,0.066l-0.014,0.067l-0.015,0.066l-0.015,0.065l-0.017,0.066l-0.017,0.065l-0.018,0.065l-0.019,0.064l-0.019,0.064l-0.02,0.064l-0.022,0.064l-0.021,0.063l-0.023,0.062l-0.023,0.063l-0.024,0.062l-0.025,0.062l-0.026,0.061l-0.026,0.061l-0.027,0.06l-0.027,0.06l-0.029,0.06l-0.029,0.06l-0.03,0.059l-0.03,0.058l-0.031,0.058l-0.032,0.058l-0.032,0.057l-0.034,0.057l-0.033,0.056l-0.035,0.056l-0.035,0.056l-0.036,0.055l-0.036,0.055l-0.037,0.054l-0.038,0.053l-0.038,0.053l-0.039,0.053l-0.04,0.052l-0.04,0.052l-0.041,0.051l-0.041,0.051l-0.042,0.05l-0.043,0.05l-0.043,0.049l-0.043,0.049l-0.045,0.048l-0.044,0.048l-0.046,0.047l-0.046,0.046l-0.046,0.046l-0.047,0.046l-0.048,0.044l-0.048,0.045l-0.049,0.043l-0.049,0.043l-0.05,0.043l-0.05,0.042l-0.051,0.041l-0.051,0.041l-0.052,0.04l-0.052,0.04l-0.053,0.039l-0.053,0.038l-0.053,0.038l-0.054,0.037l-0.055,0.036l-0.055,0.036l-0.056,0.035l-0.056,0.035l-0.056,0.033l-0.057,0.034l-0.057,0.032l-0.058,0.032l-0.058,0.031l-0.058,0.03l-0.059,0.03l-0.06,0.029l-0.06,0.029l-0.06,0.027l-0.06,0.027l-0.061,0.026l-0.061,0.026l-0.062,0.025l-0.062,0.024l-0.063,0.023l-0.062,0.023l-0.063,0.021l-0.064,0.022l-0.064,0.02l-0.064,0.019l-0.064,0.019l-0.065,0.018l-0.065,0.017l-0.066,0.017l-0.065,0.015l-0.066,0.015l-0.067,0.014l-0.066,0.013l-0.067,0.013l-0.068,0.011l-0.067,0.011l-0.068,0.01l-0.068,0.009l-0.068,0.008l-0.069,0.008l-0.068,0.006l-0.069,0.006l-0.07,0.005l-0.069,0.004l-0.07,0.003l-0.07,0.002l-0.07,0.002l-0.07,0l-45.102,0l-0.07,0l-0.07,-0.002l-0.07,-0.002l-0.07,-0.003l-0.069,-0.004l-0.07,-0.005l-0.069,-0.006l-0.068,-0.006l-0.069,-0.008l-0.068,-0.008l-0.068,-0.009l-0.068,-0.01l-0.067,-0.011l-0.068,-0.011l-0.067,-0.013l-0.066,-0.013l-0.067,-0.014l-0.066,-0.015l-0.065,-0.015l-0.066,-0.017l-0.065,-0.017l-0.065,-0.018l-0.064,-0.019l-0.064,-0.019l-0.064,-0.02l-0.064,-0.022l-0.063,-0.021l-0.062,-0.023l-0.063,-0.023l-0.062,-0.024l-0.062,-0.025l-0.061,-0.026l-0.061,-0.026l-0.06,-0.027l-0.06,-0.027l-0.06,-0.029l-0.06,-0.029l-0.059,-0.03l-0.058,-0.03l-0.058,-0.031l-0.058,-0.032l-0.057,-0.032l-0.057,-0.034l-0.056,-0.033l-0.056,-0.035l-0.056,-0.035l-0.055,-0.036l-0.055,-0.036l-0.054,-0.037l-0.053,-0.038l-0.053,-0.038l-0.053,-0.039l-0.052,-0.04l-0.052,-0.04l-0.051,-0.041l-0.051,-0.041l-0.05,-0.042l-0.05,-0.043l-0.049,-0.043l-0.049,-0.043l-0.048,-0.045l-0.048,-0.044l-0.047,-0.046l-0.046,-0.046l-0.046,-0.046l-0.046,-0.047l-0.044,-0.048l-0.045,-0.048l-0.043,-0.049l-0.043,-0.049l-0.043,-0.05l-0.042,-0.05l-0.041,-0.051l-0.041,-0.051l-0.04,-0.052l-0.04,-0.052l-0.039,-0.053l-0.038,-0.053l-0.038,-0.053l-0.037,-0.054l-0.036,-0.055l-0.036,-0.055l-0.035,-0.056l-0.035,-0.056l-0.033,-0.056l-0.034,-0.057l-0.032,-0.057l-0.032,-0.058l-0.031,-0.058l-0.03,-0.058l-0.03,-0.059l-0.029,-0.06l-0.029,-0.06l-0.027,-0.06l-0.027,-0.06l-0.026,-0.061l-0.026,-0.061l-0.025,-0.062l-0.024,-0.062l-0.023,-0.063l-0.023,-0.062l-0.021,-0.063l-0.022,-0.064l-0.02,-0.064l-0.019,-0.064l-0.019,-0.064l-0.018,-0.065l-0.017,-0.065l-0.017,-0.066l-0.015,-0.065l-0.015,-0.066l-0.014,-0.067l-0.013,-0.066l-0.013,-0.067l-0.011,-0.068l-0.011,-0.067l-0.01,-0.068l-0.009,-0.068l-0.008,-0.068l-0.008,-0.069l-0.006,-0.068l-0.006,-0.069l-0.005,-0.07l-0.004,-0.069l-0.003,-0.07l-0.002,-0.07l-0.002,-0.07l0,-0.07l0,-22.551l-0.103,-0.001l-0.103,-0.005l-0.102,-0.006l-0.101,-0.009l-0.101,-0.012l-0.1,-0.014l-0.099,-0.017l-0.098,-0.019l-0.097,-0.021l-0.096,-0.023l-0.096,-0.026l-0.094,-0.029l-0.094,-0.03l-0.092,-0.033l-0.092,-0.034l-0.09,-0.037l-0.089,-0.04l-0.088,-0.041l-0.087,-0.043l-0.086,-0.045l-0.084,-0.047l-0.083,-0.05l-0.082,-0.051l-0.08,-0.053l-0.08,-0.055l-0.077,-0.056l-0.077,-0.059l-0.074,-0.06l-0.074,-0.062l-0.071,-0.064l-0.071,-0.065l-0.068,-0.067l-0.067,-0.069l-0.066,-0.07l-0.063,-0.072l-0.062,-0.073l-0.061,-0.075l-0.058,-0.076l-0.057,-0.078l-0.054,-0.079l-0.053,-0.081l-0.051,-0.081l-0.05,-0.083l-0.047,-0.085l-0.045,-0.085l-0.043,-0.087l-0.041,-0.088l-0.039,-0.089l-0.037,-0.09l-0.035,-0.092l-0.032,-0.092l-0.03,-0.093l-0.028,-0.095l-0.026,-0.095l-0.024,-0.096l-0.021,-0.097l-0.019,-0.098l-0.016,-0.099l-0.014,-0.099l-0.011,-0.101l-0.009,-0.101l-0.007,-0.102l-0.004,-0.102l-0.001,-0.103l0.001,-0.103l0.004,-0.102l0.007,-0.102l0.009,-0.101l0.011,-0.101l0.014,-0.099l0.016,-0.099l0.019,-0.098l0.021,-0.097l0.024,-0.096l0.026,-0.095l0.028,-0.095l0.03,-0.093l0.032,-0.092l0.035,-0.092l0.037,-0.09l0.039,-0.089l0.041,-0.088l0.043,-0.087l0.045,-0.085l0.047,-0.085l0.05,-0.083l0.051,-0.081l0.053,-0.081l0.054,-0.079l0.057,-0.078l0.058,-0.076l0.061,-0.075l0.062,-0.073l0.063,-0.072l0.066,-0.07l0.067,-0.069l0.068,-0.067l0.071,-0.065l0.071,-0.064l0.074,-0.062l0.074,-0.06l0.077,-0.059l0.077,-0.056l0.08,-0.055l0.08,-0.053l0.082,-0.051l0.083,-0.05l0.084,-0.047l0.086,-0.045l0.087,-0.043l0.088,-0.041l0.089,-0.04l0.09,-0.037l0.092,-0.034l0.092,-0.033l0.094,-0.03l0.094,-0.029l0.096,-0.026l0.096,-0.023l0.097,-0.021l0.098,-0.019l0.099,-0.017l0.1,-0.014l0.101,-0.012l0.101,-0.009l0.102,-0.006l0.103,-0.005l0.103,-0.001l0,-4l-0.103,-0.001l-0.103,-0.005l-0.102,-0.006l-0.101,-0.009l-0.101,-0.012l-0.1,-0.014l-0.099,-0.017l-0.098,-0.019l-0.097,-0.021l-0.096,-0.023l-0.096,-0.026l-0.094,-0.029l-0.094,-0.03l-0.092,-0.033l-0.092,-0.034l-0.09,-0.037l-0.089,-0.04l-0.088,-0.041l-0.087,-0.043l-0.086,-0.045l-0.084,-0.047l-0.083,-0.05l-0.082,-0.051l-0.08,-0.053l-0.08,-0.055l-0.077,-0.056l-0.077,-0.059l-0.074,-0.06l-0.074,-0.062l-0.071,-0.064l-0.071,-0.065l-0.068,-0.067l-0.067,-0.069l-0.066,-0.07l-0.063,-0.072l-0.062,-0.073l-0.061,-0.075l-0.058,-0.076l-0.057,-0.078l-0.054,-0.079l-0.053,-0.081l-0.051,-0.081l-0.05,-0.083l-0.047,-0.085l-0.045,-0.085l-0.043,-0.087l-0.041,-0.088l-0.039,-0.089l-0.037,-0.09l-0.035,-0.092l-0.032,-0.092l-0.03,-0.093l-0.028,-0.095l-0.026,-0.095l-0.024,-0.096l-0.021,-0.097l-0.019,-0.098l-0.016,-0.099l-0.014,-0.099l-0.011,-0.101l-0.009,-0.101l-0.007,-0.102l-0.004,-0.102l-0.001,-0.103l0.001,-0.103l0.004,-0.102l0.007,-0.102l0.009,-0.101l0.011,-0.101l0.014,-0.099l0.016,-0.099l0.019,-0.098l0.021,-0.097l0.024,-0.096l0.026,-0.095l0.028,-0.095l0.03,-0.093l0.032,-0.092l0.035,-0.092l0.037,-0.09l0.039,-0.089l0.041,-0.088l0.043,-0.087l0.045,-0.085l0.047,-0.085l0.05,-0.083l0.051,-0.081l0.053,-0.081l0.054,-0.079l0.057,-0.078l0.058,-0.076l0.061,-0.075l0.062,-0.073l0.063,-0.072l0.066,-0.07l0.067,-0.069l0.068,-0.067l0.071,-0.065l0.071,-0.064l0.074,-0.062l0.074,-0.06l0.077,-0.059l0.077,-0.056l0.08,-0.055l0.08,-0.053l0.082,-0.051l0.083,-0.05l0.084,-0.047l0.086,-0.045l0.087,-0.043l0.088,-0.041l0.089,-0.04l0.09,-0.037l0.092,-0.034l0.092,-0.033l0.094,-0.03l0.094,-0.029l0.096,-0.026l0.096,-0.023l0.097,-0.021l0.098,-0.019l0.099,-0.017l0.1,-0.014l0.101,-0.012l0.101,-0.009l0.102,-0.006l0.103,-0.005l0.103,-0.001l0,-2.551l0,-0.07l0.002,-0.07l0.002,-0.07l0.003,-0.07l0.004,-0.069l0.005,-0.069l0.006,-0.069l0.006,-0.069l0.008,-0.068l0.008,-0.069l0.009,-0.068l0.01,-0.067l0.01,-0.068l0.012,-0.067l0.012,-0.067l0.014,-0.066l0.014,-0.067l0.014,-0.066l0.016,-0.065l0.016,-0.066l0.018,-0.065l0.018,-0.065l0.018,-0.064l0.02,-0.064l0.02,-0.064l0.021,-0.063l0.022,-0.063l0.022,-0.063l0.024,-0.062l0.024,-0.062l0.025,-0.062l0.025,-0.061l0.026,-0.061l0.027,-0.061l0.028,-0.06l0.028,-0.06l0.029,-0.059l0.03,-0.059l0.03,-0.058l0.031,-0.058l0.032,-0.058l0.033,-0.057l0.033,-0.057l0.034,-0.056l0.034,-0.056l0.035,-0.056l0.036,-0.055l0.036,-0.054l0.037,-0.055l0.038,-0.053l0.038,-0.053l0.039,-0.053l0.04,-0.052l0.04,-0.052l0.04,-0.051l0.042,-0.051l0.042,-0.05l0.042,-0.05l0.043,-0.049l0.044,-0.049l0.044,-0.048l0.045,-0.047l0.045,-0.047l0.046,-0.047l0.047,-0.046l0.047,-0.045l0.048,-0.045l0.048,-0.044l0.048,-0.044l0.049,-0.043l0.05,-0.043l0.05,-0.042l0.051,-0.041l0.051,-0.041l0.052,-0.04l0.052,-0.039l0.053,-0.039l0.053,-0.039l0.054,-0.037l0.054,-0.037l0.054,-0.037l0.055,-0.036l0.056,-0.035l0.056,-0.034l0.056,-0.034l0.057,-0.033l0.057,-0.033l0.058,-0.032l0.058,-0.031l0.059,-0.03l0.059,-0.03l0.059,-0.029l0.06,-0.029l0.06,-0.027l0.061,-0.027l0.06,-0.027l0.062,-0.025l0.062,-0.025l0.062,-0.024l0.062,-0.023l0.063,-0.023l0.063,-0.022l0.063,-0.021l0.064,-0.02l0.064,-0.02l0.065,-0.019l0.065,-0.018l0.065,-0.017l0.065,-0.016l0.066,-0.016l0.066,-0.015l0.067,-0.014l0.066,-0.013l0.067,-0.013l0.068,-0.011l0.067,-0.011l0.068,-0.01l0.068,-0.009l0.068,-0.009l0.069,-0.007l0.069,-0.007l0.069,-0.006l0.069,-0.005l0.07,-0.004l0.07,-0.003l0.07,-0.002l0.07,-0.001l0.07,-0.001l45.102,0l0.07,0.001Zm-45.162,2.499l-0.045,0l-0.039,0.001l-0.038,0.001l-0.039,0.002l-0.038,0.002l-0.038,0.003l-0.037,0.003l-0.038,0.004l-0.037,0.004l-0.037,0.004l-0.037,0.005l-0.037,0.006l-0.036,0.006l-0.037,0.006l-0.036,0.007l-0.036,0.007l-0.036,0.007l-0.035,0.008l-0.036,0.009l-0.035,0.009l-0.035,0.009l-0.035,0.01l-0.035,0.01l-0.034,0.01l-0.035,0.011l-0.034,0.012l-0.034,0.012l-0.034,0.012l-0.033,0.012l-0.034,0.013l-0.033,0.014l-0.033,0.013l-0.033,0.015l-0.033,0.014l-0.032,0.015l-0.032,0.015l-0.032,0.016l-0.032,0.016l-0.032,0.017l-0.031,0.017l-0.032,0.017l-0.031,0.017l-0.03,0.018l-0.031,0.019l-0.03,0.018l-0.03,0.019l-0.03,0.02l-0.03,0.02l-0.029,0.02l-0.029,0.02l-0.029,0.021l-0.029,0.021l-0.028,0.022l-0.028,0.022l-0.028,0.022l-0.028,0.022l-0.027,0.023l-0.027,0.023l-0.027,0.024l-0.026,0.023l-0.027,0.025l-0.026,0.024l-0.025,0.025l-0.026,0.025l-0.025,0.025l-0.024,0.026l-0.025,0.026l-0.024,0.026l-0.024,0.026l-0.023,0.027l-0.023,0.027l-0.023,0.027l-0.022,0.028l-0.023,0.028l-0.021,0.028l-0.022,0.028l-0.021,0.029l-0.021,0.029l-0.02,0.029l-0.02,0.029l-0.02,0.03l-0.019,0.03l-0.019,0.03l-0.019,0.03l-0.018,0.03l-0.018,0.031l-0.018,0.031l-0.017,0.031l-0.017,0.032l-0.016,0.031l-0.016,0.032l-0.016,0.032l-0.015,0.032l-0.015,0.032l-0.014,0.033l-0.015,0.033l-0.013,0.033l-0.014,0.033l-0.012,0.033l-0.013,0.034l-0.012,0.033l-0.012,0.034l-0.011,0.034l-0.011,0.035l-0.01,0.034l-0.011,0.035l-0.009,0.034l-0.009,0.035l-0.009,0.036l-0.009,0.035l-0.008,0.035l-0.007,0.036l-0.007,0.036l-0.007,0.036l-0.006,0.036l-0.006,0.036l-0.005,0.037l-0.005,0.037l-0.005,0.037l-0.004,0.037l-0.003,0.037l-0.003,0.038l-0.003,0.037l-0.002,0.038l-0.002,0.038l-0.001,0.038l-0.001,0.039l0,0.046l0,2.543l-0.012,0.243l-0.035,0.24l-0.059,0.236l-0.081,0.229l-0.103,0.221l-0.124,0.209l-0.144,0.196l-0.162,0.181l-0.178,0.165l-0.195,0.146l-0.207,0.127l-0.219,0.106l-0.227,0.085l-0.236,0.062l-0.24,0.038l-0.242,0.016l-0.072,0.001l-0.04,0.001l-0.039,0.003l-0.038,0.003l-0.038,0.005l-0.038,0.005l-0.037,0.006l-0.037,0.007l-0.036,0.008l-0.036,0.009l-0.035,0.01l-0.036,0.01l-0.034,0.012l-0.035,0.012l-0.034,0.013l-0.033,0.013l-0.034,0.015l-0.032,0.015l-0.033,0.017l-0.032,0.016l-0.032,0.018l-0.031,0.019l-0.031,0.019l-0.03,0.02l-0.03,0.021l-0.029,0.021l-0.029,0.022l-0.028,0.023l-0.028,0.024l-0.027,0.024l-0.027,0.025l-0.026,0.025l-0.025,0.026l-0.025,0.027l-0.024,0.027l-0.024,0.028l-0.023,0.028l-0.022,0.029l-0.021,0.029l-0.021,0.03l-0.02,0.03l-0.019,0.031l-0.018,0.031l-0.018,0.031l-0.017,0.032l-0.016,0.032l-0.015,0.033l-0.014,0.033l-0.014,0.034l-0.013,0.033l-0.012,0.034l-0.011,0.035l-0.01,0.035l-0.01,0.035l-0.009,0.035l-0.007,0.036l-0.007,0.037l-0.006,0.037l-0.006,0.037l-0.004,0.037l-0.003,0.038l-0.003,0.039l-0.001,0.039l-0.001,0.04l0.001,0.04l0.001,0.039l0.003,0.039l0.003,0.038l0.004,0.037l0.006,0.037l0.006,0.037l0.007,0.037l0.007,0.036l0.009,0.035l0.01,0.035l0.01,0.035l0.011,0.035l0.012,0.034l0.013,0.033l0.014,0.034l0.014,0.033l0.015,0.033l0.016,0.032l0.017,0.032l0.018,0.031l0.018,0.031l0.019,0.031l0.02,0.03l0.021,0.03l0.021,0.029l0.022,0.029l0.023,0.028l0.024,0.028l0.024,0.027l0.025,0.027l0.025,0.026l0.026,0.025l0.027,0.025l0.027,0.024l0.028,0.024l0.028,0.023l0.029,0.022l0.029,0.021l0.03,0.021l0.03,0.02l0.031,0.019l0.031,0.019l0.032,0.018l0.032,0.016l0.033,0.017l0.032,0.015l0.034,0.015l0.033,0.013l0.034,0.013l0.035,0.012l0.034,0.012l0.036,0.01l0.035,0.01l0.036,0.009l0.036,0.008l0.037,0.007l0.037,0.006l0.038,0.005l0.038,0.005l0.038,0.003l0.039,0.003l0.04,0.001l0.072,0.001l0.242,0.016l0.24,0.038l0.236,0.062l0.227,0.085l0.219,0.106l0.207,0.127l0.195,0.146l0.178,0.165l0.162,0.181l0.144,0.196l0.124,0.209l0.103,0.221l0.081,0.229l0.059,0.236l0.035,0.24l0.012,0.243l0,4l-0.012,0.243l-0.035,0.24l-0.059,0.236l-0.081,0.229l-0.103,0.221l-0.124,0.209l-0.144,0.196l-0.162,0.181l-0.178,0.165l-0.195,0.146l-0.207,0.127l-0.219,0.106l-0.227,0.085l-0.236,0.062l-0.24,0.038l-0.242,0.016l-0.072,0.001l-0.04,0.001l-0.039,0.003l-0.038,0.003l-0.038,0.005l-0.038,0.005l-0.037,0.006l-0.037,0.007l-0.036,0.008l-0.036,0.009l-0.035,0.01l-0.036,0.01l-0.034,0.012l-0.035,0.012l-0.034,0.013l-0.033,0.013l-0.034,0.015l-0.032,0.015l-0.033,0.017l-0.032,0.016l-0.032,0.018l-0.031,0.019l-0.031,0.019l-0.03,0.02l-0.03,0.021l-0.029,0.021l-0.029,0.022l-0.028,0.023l-0.028,0.024l-0.027,0.024l-0.027,0.025l-0.026,0.025l-0.025,0.026l-0.025,0.027l-0.024,0.027l-0.024,0.028l-0.023,0.028l-0.022,0.029l-0.021,0.029l-0.021,0.03l-0.02,0.03l-0.019,0.031l-0.018,0.031l-0.018,0.031l-0.017,0.032l-0.016,0.032l-0.015,0.033l-0.014,0.033l-0.014,0.034l-0.013,0.033l-0.012,0.034l-0.011,0.035l-0.01,0.035l-0.01,0.035l-0.009,0.035l-0.007,0.036l-0.007,0.037l-0.006,0.037l-0.006,0.037l-0.004,0.037l-0.003,0.038l-0.003,0.039l-0.001,0.039l-0.001,0.04l0.001,0.04l0.001,0.039l0.003,0.039l0.003,0.038l0.004,0.037l0.006,0.037l0.006,0.037l0.007,0.037l0.007,0.036l0.009,0.035l0.01,0.035l0.01,0.035l0.011,0.035l0.012,0.034l0.013,0.033l0.014,0.034l0.014,0.033l0.015,0.033l0.016,0.032l0.017,0.032l0.018,0.031l0.018,0.031l0.019,0.031l0.02,0.03l0.021,0.03l0.021,0.029l0.022,0.029l0.023,0.028l0.024,0.028l0.024,0.027l0.025,0.027l0.025,0.026l0.026,0.025l0.027,0.025l0.027,0.024l0.028,0.024l0.028,0.023l0.029,0.022l0.029,0.021l0.03,0.021l0.03,0.02l0.031,0.019l0.031,0.019l0.032,0.018l0.032,0.016l0.033,0.017l0.032,0.015l0.034,0.015l0.033,0.013l0.034,0.013l0.035,0.012l0.034,0.012l0.036,0.01l0.035,0.01l0.036,0.009l0.036,0.008l0.037,0.007l0.037,0.006l0.038,0.005l0.038,0.005l0.038,0.003l0.039,0.003l0.04,0.001l0.072,0.001l0.242,0.016l0.24,0.038l0.236,0.062l0.227,0.085l0.219,0.106l0.207,0.127l0.195,0.146l0.178,0.165l0.162,0.181l0.144,0.196l0.124,0.209l0.103,0.221l0.081,0.229l0.059,0.236l0.035,0.24l0.012,0.243l0,22.543l0,0.046l0.001,0.039l0.001,0.038l0.002,0.038l0.002,0.038l0.003,0.038l0.003,0.037l0.003,0.037l0.004,0.038l0.005,0.037l0.005,0.036l0.005,0.037l0.006,0.036l0.006,0.037l0.007,0.036l0.007,0.036l0.008,0.035l0.008,0.036l0.008,0.035l0.009,0.035l0.009,0.035l0.01,0.035l0.01,0.035l0.01,0.034l0.011,0.034l0.011,0.035l0.012,0.034l0.012,0.033l0.013,0.034l0.013,0.033l0.013,0.033l0.014,0.033l0.014,0.033l0.014,0.033l0.015,0.032l0.016,0.032l0.015,0.033l0.016,0.031l0.017,0.032l0.017,0.031l0.017,0.032l0.017,0.03l0.018,0.031l0.019,0.031l0.018,0.03l0.019,0.03l0.02,0.03l0.02,0.03l0.02,0.029l0.02,0.029l0.021,0.029l0.021,0.029l0.022,0.028l0.021,0.028l0.023,0.028l0.022,0.028l0.023,0.027l0.023,0.027l0.024,0.027l0.023,0.026l0.024,0.026l0.025,0.026l0.025,0.026l0.025,0.025l0.025,0.025l0.026,0.025l0.025,0.024l0.027,0.025l0.026,0.023l0.027,0.024l0.027,0.023l0.027,0.023l0.028,0.022l0.028,0.023l0.028,0.021l0.028,0.022l0.029,0.021l0.029,0.021l0.029,0.02l0.029,0.02l0.03,0.02l0.03,0.02l0.03,0.019l0.03,0.018l0.031,0.019l0.03,0.018l0.031,0.017l0.032,0.017l0.031,0.017l0.032,0.017l0.032,0.016l0.032,0.015l0.032,0.016l0.032,0.014l0.033,0.015l0.033,0.014l0.033,0.014l0.033,0.013l0.033,0.013l0.034,0.013l0.033,0.012l0.034,0.012l0.035,0.011l0.034,0.011l0.034,0.01l0.035,0.01l0.035,0.01l0.035,0.009l0.035,0.009l0.035,0.008l0.036,0.008l0.035,0.008l0.036,0.007l0.036,0.007l0.037,0.006l0.036,0.006l0.037,0.005l0.036,0.005l0.037,0.005l0.038,0.004l0.037,0.003l0.037,0.003l0.038,0.003l0.038,0.002l0.038,0.002l0.038,0.001l0.039,0.001l0.046,0l45.086,0l0.046,0l0.039,-0.001l0.038,-0.001l0.038,-0.002l0.038,-0.002l0.038,-0.003l0.037,-0.003l0.037,-0.003l0.038,-0.004l0.037,-0.005l0.036,-0.005l0.037,-0.005l0.036,-0.006l0.037,-0.006l0.036,-0.007l0.036,-0.007l0.035,-0.008l0.036,-0.008l0.035,-0.008l0.035,-0.009l0.035,-0.009l0.035,-0.01l0.035,-0.01l0.034,-0.01l0.034,-0.011l0.035,-0.011l0.034,-0.012l0.033,-0.012l0.034,-0.013l0.033,-0.013l0.033,-0.013l0.033,-0.014l0.033,-0.014l0.033,-0.014l0.032,-0.015l0.032,-0.016l0.032,-0.015l0.032,-0.016l0.032,-0.017l0.031,-0.017l0.032,-0.017l0.031,-0.017l0.03,-0.018l0.031,-0.019l0.03,-0.018l0.03,-0.019l0.03,-0.02l0.03,-0.02l0.029,-0.02l0.029,-0.02l0.029,-0.021l0.029,-0.021l0.028,-0.022l0.028,-0.021l0.028,-0.023l0.028,-0.022l0.027,-0.023l0.027,-0.023l0.027,-0.024l0.026,-0.023l0.027,-0.025l0.025,-0.024l0.026,-0.025l0.025,-0.025l0.025,-0.025l0.025,-0.026l0.024,-0.025l0.025,-0.027l0.023,-0.026l0.024,-0.027l0.023,-0.027l0.023,-0.027l0.022,-0.028l0.023,-0.028l0.021,-0.028l0.022,-0.028l0.021,-0.029l0.021,-0.029l0.02,-0.029l0.02,-0.029l0.02,-0.03l0.02,-0.03l0.019,-0.03l0.018,-0.03l0.019,-0.031l0.018,-0.03l0.017,-0.031l0.017,-0.032l0.017,-0.031l0.017,-0.032l0.016,-0.032l0.015,-0.032l0.016,-0.032l0.015,-0.032l0.014,-0.033l0.014,-0.033l0.014,-0.033l0.013,-0.033l0.013,-0.033l0.013,-0.034l0.012,-0.033l0.012,-0.034l0.011,-0.035l0.011,-0.034l0.01,-0.034l0.01,-0.035l0.01,-0.035l0.009,-0.035l0.009,-0.035l0.008,-0.035l0.008,-0.036l0.008,-0.035l0.007,-0.036l0.007,-0.036l0.006,-0.037l0.006,-0.036l0.005,-0.037l0.005,-0.036l0.005,-0.037l0.004,-0.038l0.003,-0.037l0.003,-0.037l0.003,-0.038l0.002,-0.038l0.002,-0.038l0.001,-0.038l0.001,-0.039l0,-0.046l0,-34.818l0.012,-0.248l0.037,-0.246l0.061,-0.241l0.085,-0.233l0.107,-0.224l0.129,-0.212l0.15,-0.198l0.168,-0.183l0.186,-0.165l0.201,-0.145l0.214,-0.125l0.226,-0.103l0.048,-0.019l0.025,-0.011l0.025,-0.011l0.025,-0.012l0.025,-0.012l0.024,-0.012l0.025,-0.013l0.024,-0.014l0.024,-0.014l0.023,-0.014l0.024,-0.015l0.023,-0.015l0.022,-0.016l0.023,-0.016l0.022,-0.017l0.022,-0.017l0.022,-0.017l0.021,-0.018l0.021,-0.018l0.021,-0.019l0.02,-0.018l0.02,-0.02l0.02,-0.02l0.019,-0.02l0.019,-0.02l0.018,-0.021l0.018,-0.021l0.018,-0.021l0.018,-0.022l0.017,-0.022l0.016,-0.022l0.016,-0.023l0.016,-0.023l0.015,-0.023l0.015,-0.024l0.014,-0.023l0.014,-0.024l0.014,-0.025l0.013,-0.024l0.012,-0.025l0.012,-0.025l0.012,-0.025l0.011,-0.025l0.011,-0.026l0.01,-0.026l0.009,-0.026l0.01,-0.026l0.008,-0.026l0.009,-0.027l0.007,-0.027l0.008,-0.027l0.006,-0.027l0.007,-0.028l0.005,-0.028l0.006,-0.028l0.004,-0.028l0.004,-0.028l0.004,-0.029l0.003,-0.029l0.003,-0.03l0.002,-0.029l0.001,-0.03l0.001,-0.03l0,-0.031l0,-0.031l-0.001,-0.03l-0.001,-0.03l-0.002,-0.029l-0.003,-0.03l-0.003,-0.029l-0.004,-0.029l-0.004,-0.028l-0.004,-0.028l-0.006,-0.028l-0.005,-0.028l-0.007,-0.028l-0.006,-0.027l-0.008,-0.027l-0.007,-0.027l-0.009,-0.027l-0.008,-0.026l-0.01,-0.026l-0.009,-0.026l-0.01,-0.026l-0.011,-0.026l-0.011,-0.025l-0.012,-0.025l-0.012,-0.025l-0.012,-0.025l-0.013,-0.024l-0.014,-0.025l-0.014,-0.024l-0.014,-0.023l-0.015,-0.024l-0.015,-0.023l-0.016,-0.023l-0.016,-0.023l-0.016,-0.022l-0.017,-0.022l-0.018,-0.022l-0.018,-0.021l-0.018,-0.021l-0.018,-0.021l-0.019,-0.02l-0.019,-0.02l-0.02,-0.02l-0.02,-0.02l-0.02,-0.018l-0.021,-0.019l-0.021,-0.018l-0.021,-0.018l-0.022,-0.017l-0.022,-0.017l-0.022,-0.017l-0.023,-0.016l-0.022,-0.016l-0.023,-0.015l-0.024,-0.015l-0.023,-0.014l-0.024,-0.014l-0.024,-0.014l-0.025,-0.013l-0.024,-0.012l-0.025,-0.012l-0.025,-0.012l-0.025,-0.011l-0.025,-0.011l-0.048,-0.019l-0.226,-0.103l-0.214,-0.125l-0.201,-0.145l-0.186,-0.165l-0.168,-0.183l-0.15,-0.198l-0.129,-0.212l-0.107,-0.224l-0.085,-0.233l-0.061,-0.241l-0.037,-0.246l-0.012,-0.248l0,-2.818l0,-0.046l-0.001,-0.039l-0.001,-0.038l-0.002,-0.038l-0.002,-0.038l-0.003,-0.037l-0.003,-0.038l-0.003,-0.037l-0.004,-0.037l-0.005,-0.037l-0.005,-0.037l-0.005,-0.037l-0.006,-0.036l-0.006,-0.036l-0.007,-0.036l-0.007,-0.036l-0.007,-0.036l-0.008,-0.035l-0.009,-0.035l-0.009,-0.036l-0.009,-0.034l-0.009,-0.035l-0.011,-0.035l-0.01,-0.034l-0.011,-0.035l-0.011,-0.034l-0.012,-0.034l-0.012,-0.033l-0.013,-0.034l-0.012,-0.033l-0.014,-0.033l-0.013,-0.033l-0.015,-0.033l-0.014,-0.033l-0.015,-0.032l-0.015,-0.032l-0.016,-0.032l-0.016,-0.032l-0.016,-0.031l-0.017,-0.032l-0.017,-0.031l-0.018,-0.031l-0.018,-0.031l-0.018,-0.03l-0.019,-0.03l-0.019,-0.03l-0.019,-0.03l-0.02,-0.03l-0.02,-0.029l-0.02,-0.029l-0.021,-0.029l-0.021,-0.029l-0.022,-0.028l-0.021,-0.028l-0.023,-0.028l-0.022,-0.028l-0.023,-0.027l-0.023,-0.027l-0.023,-0.027l-0.024,-0.026l-0.024,-0.026l-0.025,-0.026l-0.025,-0.026l-0.024,-0.025l-0.026,-0.025l-0.025,-0.025l-0.026,-0.024l-0.027,-0.025l-0.026,-0.023l-0.027,-0.024l-0.027,-0.023l-0.027,-0.023l-0.028,-0.022l-0.028,-0.022l-0.028,-0.022l-0.028,-0.022l-0.029,-0.021l-0.029,-0.021l-0.029,-0.02l-0.029,-0.02l-0.03,-0.02l-0.03,-0.02l-0.03,-0.019l-0.03,-0.018l-0.031,-0.019l-0.03,-0.018l-0.031,-0.017l-0.032,-0.017l-0.031,-0.017l-0.032,-0.017l-0.031,-0.016l-0.033,-0.016l-0.032,-0.015l-0.032,-0.015l-0.033,-0.014l-0.033,-0.015l-0.033,-0.013l-0.033,-0.014l-0.034,-0.013l-0.033,-0.012l-0.034,-0.012l-0.034,-0.012l-0.034,-0.012l-0.035,-0.011l-0.034,-0.01l-0.035,-0.01l-0.035,-0.01l-0.035,-0.009l-0.035,-0.009l-0.036,-0.009l-0.035,-0.008l-0.036,-0.007l-0.036,-0.007l-0.036,-0.007l-0.037,-0.006l-0.036,-0.006l-0.037,-0.006l-0.037,-0.005l-0.037,-0.004l-0.037,-0.004l-0.038,-0.004l-0.037,-0.003l-0.038,-0.003l-0.038,-0.002l-0.039,-0.002l-0.038,-0.001l-0.039,-0.001l-0.045,0l-45.082,0Z"/><path d="M26.519,12l0.062,0.002l0.062,0.002l0.061,0.002l0.062,0.004l0.061,0.004l0.061,0.005l0.061,0.006l0.06,0.006l0.061,0.008l0.06,0.008l0.06,0.009l0.06,0.009l0.059,0.01l0.059,0.011l0.059,0.012l0.059,0.012l0.058,0.013l0.116,0.029l0.115,0.031l0.114,0.034l0.112,0.036l0.112,0.04l0.11,0.041l0.108,0.045l0.108,0.047l0.106,0.049l0.104,0.053l0.104,0.054l0.101,0.057l0.1,0.059l0.099,0.062l0.097,0.063l0.095,0.067l0.094,0.068l0.092,0.07l0.09,0.073l0.088,0.075l0.087,0.076l0.084,0.079l0.083,0.081l0.081,0.083l0.079,0.084l0.077,0.087l0.074,0.088l0.073,0.09l0.07,0.092l0.069,0.094l0.066,0.095l0.064,0.097l0.061,0.099l0.059,0.1l0.057,0.102l0.055,0.103l0.052,0.104l0.049,0.106l0.047,0.108l0.045,0.109l0.042,0.11l0.039,0.111l0.036,0.113l0.034,0.113l0.031,0.115l0.029,0.116l0.013,0.059l0.012,0.058l0.012,0.059l0.011,0.059l0.01,0.06l0.01,0.059l0.008,0.06l0.009,0.06l0.007,0.061l0.006,0.06l0.006,0.061l0.005,0.061l0.004,0.062l0.004,0.061l0.003,0.062l0.002,0.062l0.001,0.062l0,0.062l0,18.362l0,0.062l-0.001,0.062l-0.002,0.062l-0.003,0.062l-0.004,0.061l-0.004,0.062l-0.005,0.061l-0.006,0.061l-0.006,0.06l-0.007,0.061l-0.009,0.06l-0.008,0.06l-0.01,0.059l-0.01,0.06l-0.011,0.059l-0.012,0.059l-0.012,0.058l-0.013,0.059l-0.029,0.116l-0.031,0.115l-0.034,0.113l-0.036,0.113l-0.039,0.111l-0.042,0.11l-0.045,0.109l-0.047,0.108l-0.049,0.106l-0.052,0.104l-0.055,0.103l-0.057,0.102l-0.059,0.1l-0.061,0.099l-0.064,0.097l-0.066,0.095l-0.069,0.094l-0.07,0.092l-0.073,0.09l-0.074,0.088l-0.077,0.087l-0.079,0.084l-0.081,0.083l-0.083,0.081l-0.084,0.079l-0.087,0.076l-0.088,0.075l-0.09,0.073l-0.092,0.07l-0.094,0.068l-0.095,0.067l-0.097,0.063l-0.099,0.062l-0.1,0.059l-0.101,0.057l-0.104,0.054l-0.104,0.053l-0.106,0.049l-0.108,0.047l-0.108,0.045l-0.11,0.041l-0.112,0.04l-0.112,0.036l-0.114,0.034l-0.115,0.031l-0.116,0.029l-0.058,0.013l-0.059,0.012l-0.059,0.012l-0.059,0.011l-0.059,0.01l-0.06,0.009l-0.06,0.009l-0.06,0.008l-0.061,0.008l-0.06,0.006l-0.061,0.006l-0.061,0.005l-0.061,0.004l-0.062,0.004l-0.061,0.002l-0.062,0.002l-0.062,0.002l-0.063,0l-9.637,0l-0.062,0l-0.062,-0.002l-0.062,-0.002l-0.062,-0.002l-0.061,-0.004l-0.062,-0.004l-0.061,-0.005l-0.061,-0.006l-0.06,-0.006l-0.061,-0.008l-0.06,-0.008l-0.06,-0.009l-0.059,-0.009l-0.06,-0.01l-0.059,-0.011l-0.059,-0.012l-0.058,-0.012l-0.059,-0.013l-0.116,-0.029l-0.115,-0.031l-0.113,-0.034l-0.113,-0.036l-0.111,-0.04l-0.11,-0.041l-0.109,-0.045l-0.108,-0.047l-0.106,-0.049l-0.104,-0.053l-0.103,-0.054l-0.102,-0.057l-0.1,-0.059l-0.099,-0.062l-0.097,-0.063l-0.095,-0.067l-0.094,-0.068l-0.092,-0.07l-0.09,-0.073l-0.088,-0.075l-0.087,-0.076l-0.084,-0.079l-0.083,-0.081l-0.081,-0.083l-0.079,-0.084l-0.076,-0.087l-0.075,-0.088l-0.073,-0.09l-0.07,-0.092l-0.068,-0.094l-0.067,-0.095l-0.063,-0.097l-0.062,-0.099l-0.059,-0.1l-0.057,-0.102l-0.054,-0.103l-0.053,-0.104l-0.049,-0.106l-0.047,-0.108l-0.045,-0.109l-0.041,-0.11l-0.04,-0.111l-0.036,-0.113l-0.034,-0.113l-0.031,-0.115l-0.029,-0.116l-0.013,-0.059l-0.012,-0.058l-0.012,-0.059l-0.011,-0.059l-0.01,-0.06l-0.009,-0.059l-0.009,-0.06l-0.008,-0.06l-0.008,-0.061l-0.006,-0.06l-0.006,-0.061l-0.005,-0.061l-0.004,-0.062l-0.004,-0.061l-0.002,-0.062l-0.002,-0.062l-0.002,-0.062l0,-0.062l0,-18.362l0,-0.062l0.002,-0.062l0.002,-0.062l0.002,-0.062l0.004,-0.061l0.004,-0.062l0.005,-0.061l0.006,-0.061l0.006,-0.06l0.008,-0.061l0.008,-0.06l0.009,-0.06l0.009,-0.059l0.01,-0.06l0.011,-0.059l0.012,-0.059l0.012,-0.058l0.013,-0.059l0.029,-0.116l0.031,-0.115l0.034,-0.113l0.036,-0.113l0.04,-0.111l0.041,-0.11l0.045,-0.109l0.047,-0.108l0.049,-0.106l0.053,-0.104l0.054,-0.103l0.057,-0.102l0.059,-0.1l0.062,-0.099l0.063,-0.097l0.067,-0.095l0.068,-0.094l0.07,-0.092l0.073,-0.09l0.075,-0.088l0.076,-0.087l0.079,-0.084l0.081,-0.083l0.083,-0.081l0.084,-0.079l0.087,-0.076l0.088,-0.075l0.09,-0.073l0.092,-0.07l0.094,-0.068l0.095,-0.067l0.097,-0.063l0.099,-0.062l0.1,-0.059l0.102,-0.057l0.103,-0.054l0.104,-0.053l0.106,-0.049l0.108,-0.047l0.109,-0.045l0.11,-0.041l0.111,-0.04l0.113,-0.036l0.113,-0.034l0.115,-0.031l0.116,-0.029l0.059,-0.013l0.058,-0.012l0.059,-0.012l0.059,-0.011l0.06,-0.01l0.059,-0.009l0.06,-0.009l0.06,-0.008l0.061,-0.008l0.06,-0.006l0.061,-0.006l0.061,-0.005l0.062,-0.004l0.061,-0.004l0.062,-0.002l0.062,-0.002l0.062,-0.002l0.062,0l9.637,0l0.063,0Zm-9.692,2.5l-0.039,0l-0.03,0.001l-0.03,0.001l-0.03,0.001l-0.03,0.002l-0.03,0.002l-0.029,0.002l-0.03,0.003l-0.029,0.003l-0.029,0.004l-0.029,0.004l-0.029,0.004l-0.028,0.004l-0.029,0.005l-0.028,0.006l-0.028,0.005l-0.028,0.006l-0.02,0.005l-0.063,0.015l-0.055,0.015l-0.054,0.016l-0.054,0.017l-0.053,0.019l-0.053,0.02l-0.052,0.021l-0.051,0.023l-0.051,0.024l-0.05,0.025l-0.049,0.026l-0.049,0.027l-0.048,0.028l-0.048,0.03l-0.047,0.031l-0.046,0.032l-0.045,0.033l-0.044,0.034l-0.044,0.035l-0.043,0.036l-0.042,0.038l-0.041,0.038l-0.04,0.039l-0.039,0.04l-0.038,0.041l-0.038,0.042l-0.036,0.043l-0.035,0.044l-0.034,0.044l-0.033,0.045l-0.032,0.046l-0.031,0.047l-0.03,0.048l-0.028,0.048l-0.027,0.049l-0.026,0.049l-0.025,0.05l-0.024,0.051l-0.023,0.051l-0.021,0.052l-0.02,0.053l-0.019,0.053l-0.017,0.054l-0.016,0.054l-0.015,0.055l-0.015,0.063l-0.005,0.02l-0.006,0.028l-0.005,0.028l-0.006,0.028l-0.005,0.029l-0.004,0.028l-0.004,0.029l-0.004,0.029l-0.004,0.029l-0.003,0.029l-0.003,0.03l-0.002,0.029l-0.002,0.03l-0.002,0.03l-0.001,0.03l-0.001,0.03l-0.001,0.03l0,0.039l0,18.346l0,0.039l0.001,0.03l0.001,0.03l0.001,0.03l0.002,0.03l0.002,0.03l0.002,0.029l0.003,0.03l0.003,0.029l0.004,0.029l0.004,0.029l0.004,0.029l0.004,0.028l0.005,0.029l0.006,0.028l0.005,0.028l0.006,0.028l0.005,0.02l0.015,0.063l0.015,0.055l0.016,0.054l0.017,0.054l0.019,0.053l0.02,0.053l0.021,0.052l0.023,0.051l0.024,0.051l0.025,0.05l0.026,0.049l0.027,0.049l0.028,0.048l0.03,0.048l0.031,0.047l0.032,0.046l0.033,0.045l0.034,0.044l0.035,0.044l0.036,0.043l0.038,0.042l0.038,0.041l0.039,0.04l0.04,0.039l0.041,0.038l0.042,0.038l0.043,0.036l0.044,0.035l0.044,0.034l0.045,0.033l0.046,0.032l0.047,0.031l0.048,0.03l0.048,0.028l0.049,0.027l0.049,0.026l0.05,0.025l0.051,0.024l0.051,0.023l0.052,0.021l0.053,0.02l0.053,0.019l0.054,0.017l0.054,0.016l0.055,0.015l0.063,0.015l0.02,0.005l0.028,0.006l0.028,0.005l0.028,0.006l0.029,0.005l0.028,0.004l0.029,0.004l0.029,0.004l0.029,0.004l0.029,0.003l0.03,0.003l0.029,0.002l0.03,0.002l0.03,0.002l0.03,0.001l0.03,0.001l0.03,0.001l0.039,0l9.622,0l0.038,0l0.03,-0.001l0.031,-0.001l0.03,-0.001l0.029,-0.002l0.03,-0.002l0.03,-0.002l0.029,-0.003l0.029,-0.003l0.029,-0.004l0.029,-0.004l0.029,-0.004l0.028,-0.004l0.029,-0.005l0.028,-0.006l0.028,-0.005l0.028,-0.006l0.021,-0.005l0.063,-0.015l0.054,-0.015l0.055,-0.016l0.053,-0.017l0.053,-0.019l0.053,-0.02l0.052,-0.021l0.051,-0.023l0.051,-0.024l0.05,-0.025l0.05,-0.026l0.049,-0.027l0.048,-0.028l0.047,-0.03l0.047,-0.031l0.046,-0.032l0.045,-0.033l0.045,-0.034l0.043,-0.035l0.043,-0.036l0.042,-0.038l0.041,-0.038l0.04,-0.039l0.04,-0.04l0.038,-0.041l0.037,-0.042l0.036,-0.043l0.035,-0.044l0.034,-0.044l0.033,-0.045l0.032,-0.046l0.031,-0.047l0.03,-0.048l0.028,-0.048l0.028,-0.049l0.026,-0.049l0.025,-0.05l0.023,-0.051l0.023,-0.051l0.021,-0.052l0.02,-0.053l0.019,-0.053l0.017,-0.054l0.016,-0.054l0.015,-0.055l0.016,-0.063l0.004,-0.02l0.006,-0.028l0.006,-0.028l0.005,-0.028l0.005,-0.029l0.004,-0.028l0.005,-0.029l0.003,-0.029l0.004,-0.029l0.003,-0.029l0.003,-0.03l0.002,-0.029l0.002,-0.03l0.002,-0.03l0.002,-0.03l0,-0.03l0.001,-0.03l0,-0.039l0,-18.346l0,-0.039l-0.001,-0.03l0,-0.03l-0.002,-0.03l-0.002,-0.03l-0.002,-0.03l-0.002,-0.029l-0.003,-0.03l-0.003,-0.029l-0.004,-0.029l-0.003,-0.029l-0.005,-0.029l-0.004,-0.028l-0.005,-0.029l-0.005,-0.028l-0.006,-0.028l-0.006,-0.028l-0.004,-0.02l-0.016,-0.063l-0.015,-0.055l-0.016,-0.054l-0.017,-0.054l-0.019,-0.053l-0.02,-0.053l-0.021,-0.052l-0.023,-0.051l-0.023,-0.051l-0.025,-0.05l-0.026,-0.049l-0.028,-0.049l-0.028,-0.048l-0.03,-0.048l-0.031,-0.047l-0.032,-0.046l-0.033,-0.045l-0.034,-0.044l-0.035,-0.044l-0.036,-0.043l-0.037,-0.042l-0.038,-0.041l-0.04,-0.04l-0.04,-0.039l-0.041,-0.038l-0.042,-0.038l-0.043,-0.036l-0.043,-0.035l-0.045,-0.034l-0.045,-0.033l-0.046,-0.032l-0.047,-0.031l-0.047,-0.03l-0.048,-0.028l-0.049,-0.027l-0.05,-0.026l-0.05,-0.025l-0.051,-0.024l-0.051,-0.023l-0.052,-0.021l-0.053,-0.02l-0.053,-0.019l-0.053,-0.017l-0.055,-0.016l-0.054,-0.015l-0.063,-0.015l-0.021,-0.005l-0.028,-0.006l-0.028,-0.005l-0.028,-0.006l-0.029,-0.005l-0.028,-0.004l-0.029,-0.004l-0.029,-0.004l-0.029,-0.004l-0.029,-0.003l-0.029,-0.003l-0.03,-0.002l-0.03,-0.002l-0.029,-0.002l-0.03,-0.001l-0.031,-0.001l-0.03,-0.001l-0.038,0l-9.622,0Z"/><path d="M48.103,12.001l0.103,0.004l0.102,0.007l0.101,0.009l0.1,0.011l0.1,0.014l0.099,0.017l0.098,0.018l0.097,0.022l0.096,0.023l0.096,0.026l0.094,0.028l0.093,0.03l0.093,0.033l0.091,0.035l0.09,0.037l0.09,0.039l0.088,0.041l0.086,0.043l0.086,0.045l0.084,0.047l0.083,0.049l0.082,0.052l0.081,0.053l0.079,0.054l0.078,0.057l0.076,0.059l0.075,0.06l0.073,0.062l0.072,0.064l0.07,0.065l0.069,0.067l0.067,0.069l0.065,0.07l0.064,0.072l0.062,0.073l0.06,0.075l0.059,0.076l0.057,0.078l0.054,0.079l0.053,0.081l0.052,0.082l0.049,0.083l0.047,0.084l0.045,0.086l0.043,0.086l0.041,0.088l0.039,0.09l0.037,0.09l0.035,0.091l0.033,0.093l0.03,0.093l0.028,0.094l0.026,0.096l0.023,0.096l0.022,0.097l0.018,0.098l0.017,0.099l0.014,0.1l0.011,0.1l0.009,0.101l0.007,0.102l0.004,0.103l0.001,0.103l0,8l-0.001,0.103l-0.004,0.103l-0.007,0.102l-0.009,0.101l-0.011,0.1l-0.014,0.1l-0.017,0.099l-0.018,0.098l-0.022,0.097l-0.023,0.096l-0.026,0.096l-0.028,0.094l-0.03,0.093l-0.033,0.093l-0.035,0.091l-0.037,0.09l-0.039,0.09l-0.041,0.088l-0.043,0.086l-0.045,0.086l-0.047,0.084l-0.049,0.083l-0.052,0.082l-0.053,0.081l-0.054,0.079l-0.057,0.078l-0.059,0.076l-0.06,0.075l-0.062,0.073l-0.064,0.072l-0.065,0.07l-0.067,0.069l-0.069,0.067l-0.07,0.065l-0.072,0.064l-0.073,0.062l-0.075,0.06l-0.076,0.059l-0.078,0.057l-0.079,0.054l-0.081,0.053l-0.082,0.052l-0.083,0.049l-0.084,0.047l-0.086,0.045l-0.086,0.043l-0.088,0.041l-0.09,0.039l-0.09,0.037l-0.091,0.035l-0.093,0.033l-0.093,0.03l-0.094,0.028l-0.096,0.026l-0.096,0.023l-0.097,0.022l-0.098,0.018l-0.099,0.017l-0.1,0.014l-0.1,0.011l-0.101,0.009l-0.102,0.007l-0.103,0.004l-0.103,0.001l-8,0l-0.103,-0.001l-0.103,-0.004l-0.102,-0.007l-0.101,-0.009l-0.1,-0.011l-0.1,-0.014l-0.099,-0.017l-0.098,-0.018l-0.097,-0.022l-0.096,-0.023l-0.096,-0.026l-0.094,-0.028l-0.093,-0.03l-0.093,-0.033l-0.091,-0.035l-0.09,-0.037l-0.09,-0.039l-0.088,-0.041l-0.086,-0.043l-0.086,-0.045l-0.084,-0.047l-0.083,-0.049l-0.082,-0.052l-0.081,-0.053l-0.079,-0.054l-0.078,-0.057l-0.076,-0.059l-0.075,-0.06l-0.073,-0.062l-0.072,-0.064l-0.07,-0.065l-0.069,-0.067l-0.067,-0.069l-0.065,-0.07l-0.064,-0.072l-0.062,-0.073l-0.06,-0.075l-0.059,-0.076l-0.057,-0.078l-0.054,-0.079l-0.053,-0.081l-0.052,-0.082l-0.049,-0.083l-0.047,-0.084l-0.045,-0.086l-0.043,-0.086l-0.041,-0.088l-0.039,-0.09l-0.037,-0.09l-0.035,-0.091l-0.033,-0.093l-0.03,-0.093l-0.028,-0.094l-0.026,-0.096l-0.023,-0.096l-0.022,-0.097l-0.018,-0.098l-0.017,-0.099l-0.014,-0.1l-0.011,-0.1l-0.009,-0.101l-0.007,-0.102l-0.004,-0.103l-0.001,-0.103l0,-8l0.001,-0.103l0.004,-0.103l0.007,-0.102l0.009,-0.101l0.011,-0.1l0.014,-0.1l0.017,-0.099l0.018,-0.098l0.022,-0.097l0.023,-0.096l0.026,-0.096l0.028,-0.094l0.03,-0.093l0.033,-0.093l0.035,-0.091l0.037,-0.09l0.039,-0.09l0.041,-0.088l0.043,-0.086l0.045,-0.086l0.047,-0.084l0.049,-0.083l0.052,-0.082l0.053,-0.081l0.054,-0.079l0.057,-0.078l0.059,-0.076l0.06,-0.075l0.062,-0.073l0.064,-0.072l0.065,-0.07l0.067,-0.069l0.069,-0.067l0.07,-0.065l0.072,-0.064l0.073,-0.062l0.075,-0.06l0.076,-0.059l0.078,-0.057l0.079,-0.054l0.081,-0.053l0.082,-0.052l0.083,-0.049l0.084,-0.047l0.086,-0.045l0.086,-0.043l0.088,-0.041l0.09,-0.039l0.09,-0.037l0.091,-0.035l0.093,-0.033l0.093,-0.03l0.094,-0.028l0.096,-0.026l0.096,-0.023l0.097,-0.022l0.098,-0.018l0.099,-0.017l0.1,-0.014l0.1,-0.011l0.101,-0.009l0.102,-0.007l0.103,-0.004l0.103,-0.001l8,0l0.103,0.001Zm-8.087,2.499l-0.056,0.001l-0.039,0.001l-0.039,0.003l-0.038,0.003l-0.038,0.004l-0.037,0.006l-0.037,0.006l-0.036,0.007l-0.036,0.008l-0.036,0.008l-0.035,0.01l-0.035,0.01l-0.034,0.011l-0.035,0.012l-0.033,0.013l-0.034,0.014l-0.033,0.014l-0.033,0.016l-0.032,0.016l-0.032,0.017l-0.032,0.017l-0.031,0.019l-0.031,0.019l-0.03,0.02l-0.03,0.021l-0.029,0.021l-0.029,0.022l-0.028,0.023l-0.028,0.024l-0.027,0.024l-0.027,0.025l-0.026,0.025l-0.025,0.026l-0.025,0.027l-0.024,0.027l-0.024,0.028l-0.023,0.028l-0.022,0.029l-0.021,0.029l-0.021,0.03l-0.02,0.03l-0.019,0.031l-0.019,0.031l-0.017,0.032l-0.017,0.032l-0.016,0.032l-0.016,0.033l-0.014,0.033l-0.014,0.034l-0.013,0.033l-0.012,0.035l-0.011,0.034l-0.01,0.035l-0.01,0.035l-0.008,0.036l-0.008,0.036l-0.007,0.036l-0.006,0.037l-0.006,0.037l-0.004,0.038l-0.003,0.038l-0.003,0.039l-0.001,0.039l-0.001,0.056l0,7.968l0.001,0.056l0.001,0.039l0.003,0.039l0.003,0.038l0.004,0.038l0.006,0.037l0.006,0.037l0.007,0.036l0.008,0.036l0.008,0.036l0.01,0.035l0.01,0.035l0.011,0.034l0.012,0.035l0.013,0.033l0.014,0.034l0.014,0.033l0.016,0.033l0.016,0.032l0.017,0.032l0.017,0.032l0.019,0.031l0.019,0.031l0.02,0.03l0.021,0.03l0.021,0.029l0.022,0.029l0.023,0.028l0.024,0.028l0.024,0.027l0.025,0.027l0.025,0.026l0.026,0.025l0.027,0.025l0.027,0.024l0.028,0.024l0.028,0.023l0.029,0.022l0.029,0.021l0.03,0.021l0.03,0.02l0.031,0.019l0.031,0.019l0.032,0.017l0.032,0.017l0.032,0.016l0.033,0.016l0.033,0.014l0.034,0.014l0.033,0.013l0.035,0.012l0.034,0.011l0.035,0.01l0.035,0.01l0.036,0.008l0.036,0.008l0.036,0.007l0.037,0.006l0.037,0.006l0.038,0.004l0.038,0.003l0.039,0.003l0.039,0.001l0.056,0.001l7.968,0l0.056,-0.001l0.039,-0.001l0.039,-0.003l0.038,-0.003l0.038,-0.004l0.037,-0.006l0.037,-0.006l0.036,-0.007l0.036,-0.008l0.036,-0.008l0.035,-0.01l0.035,-0.01l0.034,-0.011l0.035,-0.012l0.033,-0.013l0.034,-0.014l0.033,-0.014l0.033,-0.016l0.032,-0.016l0.032,-0.017l0.032,-0.017l0.031,-0.019l0.031,-0.019l0.03,-0.02l0.03,-0.021l0.029,-0.021l0.029,-0.022l0.028,-0.023l0.028,-0.024l0.027,-0.024l0.027,-0.025l0.026,-0.025l0.025,-0.026l0.025,-0.027l0.024,-0.027l0.024,-0.028l0.023,-0.028l0.022,-0.029l0.021,-0.029l0.021,-0.03l0.02,-0.03l0.019,-0.031l0.019,-0.031l0.017,-0.032l0.017,-0.032l0.016,-0.032l0.016,-0.033l0.014,-0.033l0.014,-0.034l0.013,-0.033l0.012,-0.035l0.011,-0.034l0.01,-0.035l0.01,-0.035l0.008,-0.036l0.008,-0.036l0.007,-0.036l0.006,-0.037l0.006,-0.037l0.004,-0.038l0.003,-0.038l0.003,-0.039l0.001,-0.039l0.001,-0.056l0,-7.968l-0.001,-0.056l-0.001,-0.039l-0.003,-0.039l-0.003,-0.038l-0.004,-0.038l-0.006,-0.037l-0.006,-0.037l-0.007,-0.036l-0.008,-0.036l-0.008,-0.036l-0.01,-0.035l-0.01,-0.035l-0.011,-0.034l-0.012,-0.035l-0.013,-0.033l-0.014,-0.034l-0.014,-0.033l-0.016,-0.033l-0.016,-0.032l-0.017,-0.032l-0.017,-0.032l-0.019,-0.031l-0.019,-0.031l-0.02,-0.03l-0.021,-0.03l-0.021,-0.029l-0.022,-0.029l-0.023,-0.028l-0.024,-0.028l-0.024,-0.027l-0.025,-0.027l-0.025,-0.026l-0.026,-0.025l-0.027,-0.025l-0.027,-0.024l-0.028,-0.024l-0.028,-0.023l-0.029,-0.022l-0.029,-0.021l-0.03,-0.021l-0.03,-0.02l-0.031,-0.019l-0.031,-0.019l-0.032,-0.017l-0.032,-0.017l-0.032,-0.016l-0.033,-0.016l-0.033,-0.014l-0.034,-0.014l-0.033,-0.013l-0.035,-0.012l-0.034,-0.011l-0.035,-0.01l-0.035,-0.01l-0.036,-0.008l-0.036,-0.008l-0.036,-0.007l-0.037,-0.006l-0.037,-0.006l-0.038,-0.004l-0.038,-0.003l-0.039,-0.003l-0.039,-0.001l-0.056,-0.001l-7.968,0Z"/><path d="M48.103,32.001l0.103,0.004l0.102,0.007l0.101,0.009l0.1,0.011l0.1,0.014l0.099,0.017l0.098,0.018l0.097,0.022l0.096,0.023l0.096,0.026l0.094,0.028l0.093,0.03l0.093,0.033l0.091,0.035l0.09,0.037l0.09,0.039l0.088,0.041l0.086,0.043l0.086,0.045l0.084,0.047l0.083,0.049l0.082,0.052l0.081,0.053l0.079,0.054l0.078,0.057l0.076,0.059l0.075,0.06l0.073,0.062l0.072,0.064l0.07,0.065l0.069,0.067l0.067,0.069l0.065,0.07l0.064,0.072l0.062,0.073l0.06,0.075l0.059,0.076l0.057,0.078l0.054,0.079l0.053,0.081l0.052,0.082l0.049,0.083l0.047,0.084l0.045,0.086l0.043,0.086l0.041,0.088l0.039,0.09l0.037,0.09l0.035,0.091l0.033,0.093l0.03,0.093l0.028,0.094l0.026,0.096l0.023,0.096l0.022,0.097l0.018,0.098l0.017,0.099l0.014,0.1l0.011,0.1l0.009,0.101l0.007,0.102l0.004,0.103l0.001,0.103l0,12l-0.001,0.103l-0.004,0.103l-0.007,0.102l-0.009,0.101l-0.011,0.1l-0.014,0.1l-0.017,0.099l-0.018,0.098l-0.022,0.097l-0.023,0.096l-0.026,0.096l-0.028,0.094l-0.03,0.093l-0.033,0.093l-0.035,0.091l-0.037,0.09l-0.039,0.09l-0.041,0.088l-0.043,0.086l-0.045,0.086l-0.047,0.084l-0.049,0.083l-0.052,0.082l-0.053,0.081l-0.054,0.079l-0.057,0.078l-0.059,0.076l-0.06,0.075l-0.062,0.073l-0.064,0.072l-0.065,0.07l-0.067,0.069l-0.069,0.067l-0.07,0.065l-0.072,0.064l-0.073,0.062l-0.075,0.06l-0.076,0.059l-0.078,0.057l-0.079,0.054l-0.081,0.053l-0.082,0.052l-0.083,0.049l-0.084,0.047l-0.086,0.045l-0.086,0.043l-0.088,0.041l-0.09,0.039l-0.09,0.037l-0.091,0.035l-0.093,0.033l-0.093,0.03l-0.094,0.028l-0.096,0.026l-0.096,0.023l-0.097,0.022l-0.098,0.018l-0.099,0.017l-0.1,0.014l-0.1,0.011l-0.101,0.009l-0.102,0.007l-0.103,0.004l-0.103,0.001l-8,0l-0.103,-0.001l-0.103,-0.004l-0.102,-0.007l-0.101,-0.009l-0.1,-0.011l-0.1,-0.014l-0.099,-0.017l-0.098,-0.018l-0.097,-0.022l-0.096,-0.023l-0.096,-0.026l-0.094,-0.028l-0.093,-0.03l-0.093,-0.033l-0.091,-0.035l-0.09,-0.037l-0.09,-0.039l-0.088,-0.041l-0.086,-0.043l-0.086,-0.045l-0.084,-0.047l-0.083,-0.049l-0.082,-0.052l-0.081,-0.053l-0.079,-0.054l-0.078,-0.057l-0.076,-0.059l-0.075,-0.06l-0.073,-0.062l-0.072,-0.064l-0.07,-0.065l-0.069,-0.067l-0.067,-0.069l-0.065,-0.07l-0.064,-0.072l-0.062,-0.073l-0.06,-0.075l-0.059,-0.076l-0.057,-0.078l-0.054,-0.079l-0.053,-0.081l-0.052,-0.082l-0.049,-0.083l-0.047,-0.084l-0.045,-0.086l-0.043,-0.086l-0.041,-0.088l-0.039,-0.09l-0.037,-0.09l-0.035,-0.091l-0.033,-0.093l-0.03,-0.093l-0.028,-0.094l-0.026,-0.096l-0.023,-0.096l-0.022,-0.097l-0.018,-0.098l-0.017,-0.099l-0.014,-0.1l-0.011,-0.1l-0.009,-0.101l-0.007,-0.102l-0.004,-0.103l-0.001,-0.103l0,-12l0.001,-0.103l0.004,-0.103l0.007,-0.102l0.009,-0.101l0.011,-0.1l0.014,-0.1l0.017,-0.099l0.018,-0.098l0.022,-0.097l0.023,-0.096l0.026,-0.096l0.028,-0.094l0.03,-0.093l0.033,-0.093l0.035,-0.091l0.037,-0.09l0.039,-0.09l0.041,-0.088l0.043,-0.086l0.045,-0.086l0.047,-0.084l0.049,-0.083l0.052,-0.082l0.053,-0.081l0.054,-0.079l0.057,-0.078l0.059,-0.076l0.06,-0.075l0.062,-0.073l0.064,-0.072l0.065,-0.07l0.067,-0.069l0.069,-0.067l0.07,-0.065l0.072,-0.064l0.073,-0.062l0.075,-0.06l0.076,-0.059l0.078,-0.057l0.079,-0.054l0.081,-0.053l0.082,-0.052l0.083,-0.049l0.084,-0.047l0.086,-0.045l0.086,-0.043l0.088,-0.041l0.09,-0.039l0.09,-0.037l0.091,-0.035l0.093,-0.033l0.093,-0.03l0.094,-0.028l0.096,-0.026l0.096,-0.023l0.097,-0.022l0.098,-0.018l0.099,-0.017l0.1,-0.014l0.1,-0.011l0.101,-0.009l0.102,-0.007l0.103,-0.004l0.103,-0.001l8,0l0.103,0.001Zm-8.087,2.499l-0.056,0.001l-0.039,0.001l-0.039,0.003l-0.038,0.003l-0.038,0.004l-0.037,0.006l-0.037,0.006l-0.036,0.007l-0.036,0.008l-0.036,0.008l-0.035,0.01l-0.035,0.01l-0.034,0.011l-0.035,0.012l-0.033,0.013l-0.034,0.014l-0.033,0.014l-0.033,0.016l-0.032,0.016l-0.032,0.017l-0.032,0.017l-0.031,0.019l-0.031,0.019l-0.03,0.02l-0.03,0.021l-0.029,0.021l-0.029,0.022l-0.028,0.023l-0.028,0.024l-0.027,0.024l-0.027,0.025l-0.026,0.025l-0.025,0.026l-0.025,0.027l-0.024,0.027l-0.024,0.028l-0.023,0.028l-0.022,0.029l-0.021,0.029l-0.021,0.03l-0.02,0.03l-0.019,0.031l-0.019,0.031l-0.017,0.032l-0.017,0.032l-0.016,0.032l-0.016,0.033l-0.014,0.033l-0.014,0.034l-0.013,0.033l-0.012,0.035l-0.011,0.034l-0.01,0.035l-0.01,0.035l-0.008,0.036l-0.008,0.036l-0.007,0.036l-0.006,0.037l-0.006,0.037l-0.004,0.038l-0.003,0.038l-0.003,0.039l-0.001,0.039l-0.001,0.056l0,11.968l0.001,0.056l0.001,0.039l0.003,0.039l0.003,0.038l0.004,0.038l0.006,0.037l0.006,0.037l0.007,0.036l0.008,0.036l0.008,0.036l0.01,0.035l0.01,0.035l0.011,0.034l0.012,0.035l0.013,0.033l0.014,0.034l0.014,0.033l0.016,0.033l0.016,0.032l0.017,0.032l0.017,0.032l0.019,0.031l0.019,0.031l0.02,0.03l0.021,0.03l0.021,0.029l0.022,0.029l0.023,0.028l0.024,0.028l0.024,0.027l0.025,0.027l0.025,0.026l0.026,0.025l0.027,0.025l0.027,0.024l0.028,0.024l0.028,0.023l0.029,0.022l0.029,0.021l0.03,0.021l0.03,0.02l0.031,0.019l0.031,0.019l0.032,0.017l0.032,0.017l0.032,0.016l0.033,0.016l0.033,0.014l0.034,0.014l0.033,0.013l0.035,0.012l0.034,0.011l0.035,0.01l0.035,0.01l0.036,0.008l0.036,0.008l0.036,0.007l0.037,0.006l0.037,0.006l0.038,0.004l0.038,0.003l0.039,0.003l0.039,0.001l0.056,0.001l7.968,0l0.056,-0.001l0.039,-0.001l0.039,-0.003l0.038,-0.003l0.038,-0.004l0.037,-0.006l0.037,-0.006l0.036,-0.007l0.036,-0.008l0.036,-0.008l0.035,-0.01l0.035,-0.01l0.034,-0.011l0.035,-0.012l0.033,-0.013l0.034,-0.014l0.033,-0.014l0.033,-0.016l0.032,-0.016l0.032,-0.017l0.032,-0.017l0.031,-0.019l0.031,-0.019l0.03,-0.02l0.03,-0.021l0.029,-0.021l0.029,-0.022l0.028,-0.023l0.028,-0.024l0.027,-0.024l0.027,-0.025l0.026,-0.025l0.025,-0.026l0.025,-0.027l0.024,-0.027l0.024,-0.028l0.023,-0.028l0.022,-0.029l0.021,-0.029l0.021,-0.03l0.02,-0.03l0.019,-0.031l0.019,-0.031l0.017,-0.032l0.017,-0.032l0.016,-0.032l0.016,-0.033l0.014,-0.033l0.014,-0.034l0.013,-0.033l0.012,-0.035l0.011,-0.034l0.01,-0.035l0.01,-0.035l0.008,-0.036l0.008,-0.036l0.007,-0.036l0.006,-0.037l0.006,-0.037l0.004,-0.038l0.003,-0.038l0.003,-0.039l0.001,-0.039l0.001,-0.056l0,-11.968l-0.001,-0.056l-0.001,-0.039l-0.003,-0.039l-0.003,-0.038l-0.004,-0.038l-0.006,-0.037l-0.006,-0.037l-0.007,-0.036l-0.008,-0.036l-0.008,-0.036l-0.01,-0.035l-0.01,-0.035l-0.011,-0.034l-0.012,-0.035l-0.013,-0.033l-0.014,-0.034l-0.014,-0.033l-0.016,-0.033l-0.016,-0.032l-0.017,-0.032l-0.017,-0.032l-0.019,-0.031l-0.019,-0.031l-0.02,-0.03l-0.021,-0.03l-0.021,-0.029l-0.022,-0.029l-0.023,-0.028l-0.024,-0.028l-0.024,-0.027l-0.025,-0.027l-0.025,-0.026l-0.026,-0.025l-0.027,-0.025l-0.027,-0.024l-0.028,-0.024l-0.028,-0.023l-0.029,-0.022l-0.029,-0.021l-0.03,-0.021l-0.03,-0.02l-0.031,-0.019l-0.031,-0.019l-0.032,-0.017l-0.032,-0.017l-0.032,-0.016l-0.033,-0.016l-0.033,-0.014l-0.034,-0.014l-0.033,-0.013l-0.035,-0.012l-0.034,-0.011l-0.035,-0.01l-0.035,-0.01l-0.036,-0.008l-0.036,-0.008l-0.036,-0.007l-0.037,-0.006l-0.037,-0.006l-0.038,-0.004l-0.038,-0.003l-0.039,-0.003l-0.039,-0.001l-0.056,-0.001l-7.968,0Z"/><path d="M30.052,44.001l0.051,0.002l0.051,0.003l0.05,0.004l0.051,0.006l0.049,0.007l0.05,0.008l0.049,0.01l0.048,0.01l0.049,0.012l0.047,0.013l0.047,0.014l0.047,0.015l0.046,0.016l0.046,0.018l0.045,0.018l0.045,0.02l0.044,0.02l0.043,0.022l0.043,0.023l0.042,0.023l0.042,0.025l0.041,0.025l0.04,0.027l0.039,0.027l0.039,0.029l0.038,0.029l0.038,0.03l0.037,0.031l0.035,0.032l0.036,0.033l0.034,0.033l0.033,0.034l0.033,0.036l0.032,0.035l0.031,0.037l0.03,0.038l0.029,0.038l0.029,0.039l0.027,0.039l0.027,0.04l0.025,0.041l0.025,0.042l0.023,0.042l0.023,0.043l0.022,0.043l0.02,0.044l0.02,0.045l0.018,0.045l0.018,0.046l0.016,0.046l0.015,0.047l0.014,0.047l0.013,0.047l0.012,0.049l0.01,0.048l0.01,0.049l0.008,0.05l0.007,0.049l0.006,0.051l0.004,0.05l0.003,0.051l0.002,0.051l0.001,0.052l0,4l-0.001,0.052l-0.002,0.051l-0.003,0.051l-0.004,0.05l-0.006,0.051l-0.007,0.049l-0.008,0.05l-0.01,0.049l-0.01,0.048l-0.012,0.049l-0.013,0.047l-0.014,0.047l-0.015,0.047l-0.016,0.046l-0.018,0.046l-0.018,0.045l-0.02,0.045l-0.02,0.044l-0.022,0.043l-0.023,0.043l-0.023,0.042l-0.025,0.042l-0.025,0.041l-0.027,0.04l-0.027,0.039l-0.029,0.039l-0.029,0.038l-0.03,0.038l-0.031,0.037l-0.032,0.035l-0.033,0.036l-0.033,0.034l-0.034,0.033l-0.036,0.033l-0.035,0.032l-0.037,0.031l-0.038,0.03l-0.038,0.029l-0.039,0.029l-0.039,0.027l-0.04,0.027l-0.041,0.025l-0.042,0.025l-0.042,0.023l-0.043,0.023l-0.043,0.022l-0.044,0.02l-0.045,0.02l-0.045,0.018l-0.046,0.018l-0.046,0.016l-0.047,0.015l-0.047,0.014l-0.047,0.013l-0.049,0.012l-0.048,0.01l-0.049,0.01l-0.05,0.008l-0.049,0.007l-0.051,0.006l-0.05,0.004l-0.051,0.003l-0.051,0.002l-0.052,0.001l-16,0l-0.052,-0.001l-0.051,-0.002l-0.051,-0.003l-0.05,-0.004l-0.051,-0.006l-0.049,-0.007l-0.05,-0.008l-0.049,-0.01l-0.048,-0.01l-0.049,-0.012l-0.047,-0.013l-0.047,-0.014l-0.047,-0.015l-0.046,-0.016l-0.046,-0.018l-0.045,-0.018l-0.045,-0.02l-0.044,-0.02l-0.043,-0.022l-0.043,-0.023l-0.042,-0.023l-0.042,-0.025l-0.041,-0.025l-0.04,-0.027l-0.039,-0.027l-0.039,-0.029l-0.038,-0.029l-0.038,-0.03l-0.037,-0.031l-0.035,-0.032l-0.036,-0.033l-0.034,-0.033l-0.033,-0.034l-0.033,-0.036l-0.032,-0.035l-0.031,-0.037l-0.03,-0.038l-0.029,-0.038l-0.029,-0.039l-0.027,-0.039l-0.027,-0.04l-0.025,-0.041l-0.025,-0.042l-0.023,-0.042l-0.023,-0.043l-0.022,-0.043l-0.02,-0.044l-0.02,-0.045l-0.018,-0.045l-0.018,-0.046l-0.016,-0.046l-0.015,-0.047l-0.014,-0.047l-0.013,-0.047l-0.012,-0.049l-0.01,-0.048l-0.01,-0.049l-0.008,-0.05l-0.007,-0.049l-0.006,-0.051l-0.004,-0.05l-0.003,-0.051l-0.002,-0.051l-0.001,-0.052l0,-4l0.001,-0.052l0.002,-0.051l0.003,-0.051l0.004,-0.05l0.006,-0.051l0.007,-0.049l0.008,-0.05l0.01,-0.049l0.01,-0.048l0.012,-0.049l0.013,-0.047l0.014,-0.047l0.015,-0.047l0.016,-0.046l0.018,-0.046l0.018,-0.045l0.02,-0.045l0.02,-0.044l0.022,-0.043l0.023,-0.043l0.023,-0.042l0.025,-0.042l0.025,-0.041l0.027,-0.04l0.027,-0.039l0.029,-0.039l0.029,-0.038l0.03,-0.038l0.031,-0.037l0.032,-0.035l0.033,-0.036l0.033,-0.034l0.034,-0.033l0.036,-0.033l0.035,-0.032l0.037,-0.031l0.038,-0.03l0.038,-0.029l0.039,-0.029l0.039,-0.027l0.04,-0.027l0.041,-0.025l0.042,-0.025l0.042,-0.023l0.043,-0.023l0.043,-0.022l0.044,-0.02l0.045,-0.02l0.045,-0.018l0.046,-0.018l0.046,-0.016l0.047,-0.015l0.047,-0.014l0.047,-0.013l0.049,-0.012l0.048,-0.01l0.049,-0.01l0.05,-0.008l0.049,-0.007l0.051,-0.006l0.05,-0.004l0.051,-0.003l0.051,-0.002l0.052,-0.001l16,0l0.052,0.001Zm-15.552,2.499l0,3l15,0l0,-3l-15,0Z"/></svg>