<?xml version="1.0" encoding="UTF-8" standalone="no"?><!DOCTYPE svg PUBLIC "-//W3C//DTD SVG 1.1//EN" "http://www.w3.org/Graphics/SVG/1.1/DTD/svg11.dtd"><svg width="100%" height="100%" viewBox="0 0 64 64" version="1.1" xmlns="http://www.w3.org/2000/svg" xmlns:xlink="http://www.w3.org/1999/xlink" xml:space="preserve" xmlns:serif="http://www.serif.com/" style="fill-rule:evenodd;clip-rule:evenodd;stroke-linejoin:round;stroke-miterlimit:1.41421;"><g><path d="M19.016,37.344l-5.637,0l-0.984,3.187l-4.395,0l6.258,-17.062l3.867,0l6.305,17.062l-4.418,0l-0.996,-3.187Zm-4.653,-3.176l3.668,0l-1.84,-5.918l-1.828,5.918Z" style="fill-rule:nonzero;"/><path d="M39.922,40.531l-4.09,0l-6.047,-10.617l0,10.617l-4.113,0l0,-17.062l4.113,0l6.035,10.617l0,-10.617l4.102,0l0,17.062Z" style="fill-rule:nonzero;"/><path d="M42.523,40.531l0,-17.062l5.497,0c1.507,0 2.863,0.342 4.066,1.025c1.203,0.684 2.143,1.649 2.818,2.895c0.676,1.246 1.018,2.642 1.026,4.189l0,0.785c0,1.563 -0.33,2.963 -0.991,4.201c-0.66,1.239 -1.589,2.207 -2.789,2.907c-1.199,0.699 -2.537,1.052 -4.013,1.06l-5.614,0Zm4.114,-13.886l0,10.722l1.429,0c1.18,0 2.086,-0.42 2.719,-1.26c0.633,-0.839 0.949,-2.087 0.949,-3.744l0,-0.738c0,-1.648 -0.316,-2.891 -0.949,-3.727c-0.633,-0.835 -1.555,-1.253 -2.765,-1.253l-1.383,0Z" style="fill-rule:nonzero;"/></g></svg>