<?xml version="1.0" encoding="UTF-8" standalone="no"?><!DOCTYPE svg PUBLIC "-//W3C//DTD SVG 1.1//EN" "http://www.w3.org/Graphics/SVG/1.1/DTD/svg11.dtd"><svg width="100%" height="100%" viewBox="0 0 64 64" version="1.1" xmlns="http://www.w3.org/2000/svg" xmlns:xlink="http://www.w3.org/1999/xlink" xml:space="preserve" xmlns:serif="http://www.serif.com/" style="fill-rule:evenodd;clip-rule:evenodd;stroke-linecap:round;stroke-miterlimit:5;"><path d="M44.155,8.001l0.155,0.003l0.154,0.005l0.153,0.007l0.153,0.008l0.153,0.011l0.152,0.013l0.151,0.014l0.151,0.016l0.15,0.018l0.15,0.021l0.149,0.021l0.149,0.024l0.148,0.026l0.147,0.027l0.147,0.029l0.146,0.031l0.146,0.033l0.144,0.034l0.145,0.036l0.143,0.038l0.143,0.04l0.142,0.041l0.141,0.043l0.14,0.045l0.14,0.046l0.139,0.048l0.138,0.05l0.138,0.051l0.136,0.053l0.136,0.054l0.135,0.057l0.134,0.057l0.134,0.06l0.132,0.061l0.132,0.062l0.13,0.064l0.13,0.066l0.129,0.067l0.128,0.068l0.127,0.07l0.126,0.072l0.125,0.073l0.124,0.074l0.124,0.076l0.122,0.078l0.121,0.078l0.12,0.081l0.12,0.081l0.118,0.083l0.117,0.085l0.116,0.085l0.115,0.087l0.114,0.089l0.113,0.09l0.111,0.091l0.111,0.092l0.109,0.094l0.109,0.095l0.107,0.096l0.106,0.097l0.105,0.099l0.103,0.1l0.103,0.101l0.101,0.103l0.1,0.103l0.099,0.105l0.097,0.106l0.096,0.107l0.095,0.109l0.094,0.109l0.092,0.111l0.091,0.111l0.09,0.113l0.089,0.114l0.087,0.115l0.085,0.116l0.085,0.117l0.083,0.118l0.081,0.12l0.081,0.12l0.078,0.121l0.078,0.122l0.076,0.124l0.074,0.124l0.073,0.125l0.072,0.126l0.07,0.127l0.068,0.128l0.067,0.129l0.066,0.13l0.064,0.13l0.062,0.132l0.061,0.132l0.06,0.134l0.057,0.134l0.057,0.135l0.054,0.136l0.053,0.136l0.051,0.138l0.05,0.138l0.048,0.139l0.046,0.14l0.045,0.14l0.043,0.141l0.041,0.142l0.04,0.143l0.038,0.143l0.036,0.145l0.034,0.144l0.033,0.146l0.031,0.146l0.029,0.147l0.027,0.147l0.026,0.148l0.024,0.149l0.021,0.149l0.021,0.15l0.018,0.15l0.016,0.151l0.014,0.151l0.013,0.152l0.011,0.153l0.008,0.153l0.007,0.153l0.005,0.154l0.003,0.155l0.001,0.155l0,24l-0.001,0.155l-0.003,0.155l-0.005,0.154l-0.007,0.153l-0.008,0.153l-0.011,0.153l-0.013,0.152l-0.014,0.151l-0.016,0.151l-0.018,0.15l-0.021,0.15l-0.021,0.149l-0.024,0.149l-0.026,0.148l-0.027,0.147l-0.029,0.147l-0.031,0.146l-0.033,0.146l-0.034,0.144l-0.036,0.145l-0.038,0.143l-0.04,0.143l-0.041,0.142l-0.043,0.141l-0.045,0.14l-0.046,0.14l-0.048,0.139l-0.05,0.138l-0.051,0.138l-0.053,0.136l-0.054,0.136l-0.057,0.135l-0.057,0.134l-0.06,0.134l-0.061,0.132l-0.062,0.132l-0.064,0.13l-0.066,0.13l-0.067,0.129l-0.068,0.128l-0.07,0.127l-0.072,0.126l-0.073,0.125l-0.074,0.124l-0.076,0.124l-0.078,0.122l-0.078,0.121l-0.081,0.12l-0.081,0.12l-0.083,0.118l-0.085,0.117l-0.085,0.116l-0.087,0.115l-0.089,0.114l-0.09,0.113l-0.091,0.111l-0.092,0.111l-0.094,0.109l-0.095,0.109l-0.096,0.107l-0.097,0.106l-0.099,0.105l-0.1,0.103l-0.101,0.103l-0.103,0.101l-0.103,0.1l-0.105,0.099l-0.106,0.097l-0.107,0.096l-0.109,0.095l-0.109,0.094l-0.111,0.092l-0.111,0.091l-0.113,0.09l-0.114,0.089l-0.115,0.087l-0.116,0.085l-0.117,0.085l-0.118,0.083l-0.12,0.081l-0.12,0.081l-0.121,0.078l-0.122,0.078l-0.124,0.076l-0.124,0.074l-0.125,0.073l-0.126,0.072l-0.127,0.07l-0.128,0.068l-0.129,0.067l-0.13,0.066l-0.13,0.064l-0.132,0.062l-0.132,0.061l-0.134,0.06l-0.134,0.057l-0.135,0.057l-0.136,0.054l-0.136,0.053l-0.138,0.051l-0.138,0.05l-0.139,0.048l-0.14,0.046l-0.14,0.045l-0.141,0.043l-0.142,0.041l-0.143,0.04l-0.143,0.038l-0.145,0.036l-0.144,0.034l-0.146,0.033l-0.146,0.031l-0.147,0.029l-0.147,0.027l-0.148,0.026l-0.149,0.024l-0.149,0.021l-0.15,0.021l-0.15,0.018l-0.151,0.016l-0.151,0.014l-0.152,0.013l-0.153,0.011l-0.153,0.008l-0.153,0.007l-0.154,0.005l-0.155,0.003l-0.155,0.001l-24,0l-0.155,-0.001l-0.155,-0.003l-0.154,-0.005l-0.153,-0.007l-0.153,-0.008l-0.153,-0.011l-0.152,-0.013l-0.151,-0.014l-0.151,-0.016l-0.15,-0.018l-0.15,-0.021l-0.149,-0.021l-0.149,-0.024l-0.148,-0.026l-0.147,-0.027l-0.147,-0.029l-0.146,-0.031l-0.146,-0.033l-0.144,-0.034l-0.145,-0.036l-0.143,-0.038l-0.143,-0.04l-0.142,-0.041l-0.141,-0.043l-0.14,-0.045l-0.14,-0.046l-0.139,-0.048l-0.138,-0.05l-0.138,-0.051l-0.136,-0.053l-0.136,-0.054l-0.135,-0.057l-0.134,-0.057l-0.134,-0.06l-0.132,-0.061l-0.132,-0.062l-0.13,-0.064l-0.13,-0.066l-0.129,-0.067l-0.128,-0.068l-0.127,-0.07l-0.126,-0.072l-0.125,-0.073l-0.124,-0.074l-0.124,-0.076l-0.122,-0.078l-0.121,-0.078l-0.12,-0.081l-0.12,-0.081l-0.118,-0.083l-0.117,-0.085l-0.116,-0.085l-0.115,-0.087l-0.114,-0.089l-0.113,-0.09l-0.111,-0.091l-0.111,-0.092l-0.109,-0.094l-0.109,-0.095l-0.107,-0.096l-0.106,-0.097l-0.105,-0.099l-0.103,-0.1l-0.103,-0.101l-0.101,-0.103l-0.1,-0.103l-0.099,-0.105l-0.097,-0.106l-0.096,-0.107l-0.095,-0.109l-0.094,-0.109l-0.092,-0.111l-0.091,-0.111l-0.09,-0.113l-0.089,-0.114l-0.087,-0.115l-0.085,-0.116l-0.085,-0.117l-0.083,-0.118l-0.081,-0.12l-0.081,-0.12l-0.078,-0.121l-0.078,-0.122l-0.076,-0.124l-0.074,-0.124l-0.073,-0.125l-0.072,-0.126l-0.07,-0.127l-0.068,-0.128l-0.067,-0.129l-0.066,-0.13l-0.064,-0.13l-0.062,-0.132l-0.061,-0.132l-0.06,-0.134l-0.057,-0.134l-0.057,-0.135l-0.054,-0.136l-0.053,-0.136l-0.051,-0.138l-0.05,-0.138l-0.048,-0.139l-0.046,-0.14l-0.045,-0.14l-0.043,-0.141l-0.041,-0.142l-0.04,-0.143l-0.038,-0.143l-0.036,-0.145l-0.034,-0.144l-0.033,-0.146l-0.031,-0.146l-0.029,-0.147l-0.027,-0.147l-0.026,-0.148l-0.024,-0.149l-0.021,-0.149l-0.021,-0.15l-0.018,-0.15l-0.016,-0.151l-0.014,-0.151l-0.013,-0.152l-0.011,-0.153l-0.008,-0.153l-0.007,-0.153l-0.005,-0.154l-0.003,-0.155l-0.001,-0.155l0,-24l0.001,-0.155l0.003,-0.155l0.005,-0.154l0.007,-0.153l0.008,-0.153l0.011,-0.153l0.013,-0.152l0.014,-0.151l0.016,-0.151l0.018,-0.15l0.021,-0.15l0.021,-0.149l0.024,-0.149l0.026,-0.148l0.027,-0.147l0.029,-0.147l0.031,-0.146l0.033,-0.146l0.034,-0.144l0.036,-0.145l0.038,-0.143l0.04,-0.143l0.041,-0.142l0.043,-0.141l0.045,-0.14l0.046,-0.14l0.048,-0.139l0.05,-0.138l0.051,-0.138l0.053,-0.136l0.054,-0.136l0.057,-0.135l0.057,-0.134l0.06,-0.134l0.061,-0.132l0.062,-0.132l0.064,-0.13l0.066,-0.13l0.067,-0.129l0.068,-0.128l0.07,-0.127l0.072,-0.126l0.073,-0.125l0.074,-0.124l0.076,-0.124l0.078,-0.122l0.078,-0.121l0.081,-0.12l0.081,-0.12l0.083,-0.118l0.085,-0.117l0.085,-0.116l0.087,-0.115l0.089,-0.114l0.09,-0.113l0.091,-0.111l0.092,-0.111l0.094,-0.109l0.095,-0.109l0.096,-0.107l0.097,-0.106l0.099,-0.105l0.1,-0.103l0.101,-0.103l0.103,-0.101l0.103,-0.1l0.105,-0.099l0.106,-0.097l0.107,-0.096l0.109,-0.095l0.109,-0.094l0.111,-0.092l0.111,-0.091l0.113,-0.09l0.114,-0.089l0.115,-0.087l0.116,-0.085l0.117,-0.085l0.118,-0.083l0.12,-0.081l0.12,-0.081l0.121,-0.078l0.122,-0.078l0.124,-0.076l0.124,-0.074l0.125,-0.073l0.126,-0.072l0.127,-0.07l0.128,-0.068l0.129,-0.067l0.13,-0.066l0.13,-0.064l0.132,-0.062l0.132,-0.061l0.134,-0.06l0.134,-0.057l0.135,-0.057l0.136,-0.054l0.136,-0.053l0.138,-0.051l0.138,-0.05l0.139,-0.048l0.14,-0.046l0.14,-0.045l0.141,-0.043l0.142,-0.041l0.143,-0.04l0.143,-0.038l0.145,-0.036l0.144,-0.034l0.146,-0.033l0.146,-0.031l0.147,-0.029l0.147,-0.027l0.148,-0.026l0.149,-0.024l0.149,-0.021l0.15,-0.021l0.15,-0.018l0.151,-0.016l0.151,-0.014l0.152,-0.013l0.153,-0.011l0.153,-0.008l0.153,-0.007l0.154,-0.005l0.155,-0.003l0.155,-0.001l24,0l0.155,0.001Zm-24.147,2.499l-0.131,0.001l-0.123,0.002l-0.122,0.004l-0.122,0.005l-0.122,0.007l-0.121,0.009l-0.12,0.01l-0.12,0.011l-0.12,0.013l-0.119,0.015l-0.118,0.015l-0.118,0.018l-0.118,0.018l-0.117,0.021l-0.116,0.021l-0.116,0.023l-0.116,0.025l-0.115,0.025l-0.114,0.028l-0.114,0.028l-0.113,0.03l-0.113,0.031l-0.112,0.033l-0.112,0.034l-0.111,0.035l-0.11,0.037l-0.11,0.038l-0.109,0.039l-0.109,0.041l-0.108,0.041l-0.107,0.044l-0.107,0.044l-0.106,0.046l-0.105,0.047l-0.105,0.048l-0.104,0.049l-0.103,0.051l-0.103,0.051l-0.102,0.054l-0.101,0.054l-0.101,0.055l-0.099,0.057l-0.1,0.058l-0.098,0.059l-0.097,0.06l-0.097,0.061l-0.096,0.062l-0.095,0.064l-0.095,0.065l-0.094,0.065l-0.092,0.067l-0.092,0.068l-0.092,0.069l-0.09,0.07l-0.089,0.072l-0.089,0.072l-0.087,0.073l-0.087,0.074l-0.086,0.076l-0.085,0.076l-0.084,0.077l-0.083,0.079l-0.083,0.079l-0.081,0.08l-0.08,0.081l-0.079,0.083l-0.079,0.083l-0.077,0.084l-0.076,0.085l-0.076,0.086l-0.074,0.087l-0.073,0.087l-0.072,0.089l-0.072,0.089l-0.07,0.09l-0.069,0.092l-0.068,0.092l-0.067,0.092l-0.065,0.094l-0.065,0.095l-0.064,0.095l-0.062,0.096l-0.061,0.097l-0.06,0.097l-0.059,0.098l-0.058,0.1l-0.057,0.099l-0.055,0.101l-0.054,0.101l-0.054,0.102l-0.051,0.103l-0.051,0.103l-0.049,0.104l-0.048,0.105l-0.047,0.105l-0.046,0.106l-0.044,0.107l-0.044,0.107l-0.041,0.108l-0.041,0.109l-0.039,0.109l-0.038,0.11l-0.037,0.11l-0.035,0.111l-0.034,0.112l-0.033,0.112l-0.031,0.113l-0.03,0.113l-0.028,0.114l-0.028,0.114l-0.025,0.115l-0.025,0.116l-0.023,0.116l-0.021,0.116l-0.021,0.117l-0.018,0.118l-0.018,0.118l-0.015,0.118l-0.015,0.119l-0.013,0.12l-0.011,0.12l-0.01,0.12l-0.009,0.121l-0.007,0.122l-0.005,0.122l-0.004,0.122l-0.002,0.123l-0.001,0.131l0,23.984l0.001,0.131l0.002,0.123l0.004,0.122l0.005,0.122l0.007,0.122l0.009,0.121l0.01,0.12l0.011,0.12l0.013,0.12l0.015,0.119l0.015,0.118l0.018,0.118l0.018,0.118l0.021,0.117l0.021,0.116l0.023,0.116l0.025,0.116l0.025,0.115l0.028,0.114l0.028,0.114l0.03,0.113l0.031,0.113l0.033,0.112l0.034,0.112l0.035,0.111l0.037,0.11l0.038,0.11l0.039,0.109l0.041,0.109l0.041,0.108l0.044,0.107l0.044,0.107l0.046,0.106l0.047,0.105l0.048,0.105l0.049,0.104l0.051,0.103l0.051,0.103l0.054,0.102l0.054,0.101l0.055,0.101l0.057,0.099l0.058,0.1l0.059,0.098l0.06,0.097l0.061,0.097l0.062,0.096l0.064,0.095l0.065,0.095l0.065,0.094l0.067,0.092l0.068,0.092l0.069,0.091l0.07,0.091l0.071,0.089l0.073,0.089l0.073,0.087l0.074,0.087l0.076,0.086l0.076,0.085l0.077,0.084l0.079,0.083l0.079,0.083l0.08,0.081l0.081,0.08l0.083,0.079l0.083,0.079l0.084,0.077l0.085,0.076l0.086,0.076l0.087,0.074l0.087,0.073l0.089,0.073l0.089,0.071l0.09,0.07l0.092,0.069l0.092,0.068l0.092,0.067l0.094,0.065l0.095,0.065l0.095,0.064l0.096,0.062l0.097,0.061l0.097,0.06l0.098,0.059l0.1,0.058l0.099,0.057l0.101,0.055l0.101,0.054l0.102,0.053l0.103,0.052l0.103,0.051l0.104,0.049l0.105,0.048l0.105,0.047l0.106,0.046l0.107,0.044l0.107,0.044l0.108,0.041l0.109,0.041l0.109,0.039l0.11,0.038l0.11,0.037l0.111,0.035l0.112,0.034l0.112,0.033l0.113,0.031l0.113,0.03l0.114,0.028l0.114,0.028l0.115,0.025l0.116,0.025l0.116,0.023l0.116,0.021l0.117,0.021l0.118,0.018l0.118,0.018l0.118,0.015l0.119,0.015l0.12,0.013l0.12,0.011l0.12,0.01l0.121,0.009l0.122,0.007l0.122,0.005l0.122,0.004l0.123,0.002l0.131,0.001l23.984,0l0.131,-0.001l0.123,-0.002l0.122,-0.004l0.122,-0.005l0.122,-0.007l0.121,-0.009l0.12,-0.01l0.12,-0.011l0.12,-0.013l0.119,-0.015l0.118,-0.015l0.118,-0.018l0.118,-0.018l0.117,-0.021l0.116,-0.021l0.116,-0.023l0.116,-0.025l0.115,-0.025l0.114,-0.028l0.114,-0.028l0.113,-0.03l0.113,-0.031l0.112,-0.033l0.112,-0.034l0.111,-0.035l0.11,-0.037l0.11,-0.038l0.109,-0.039l0.109,-0.041l0.108,-0.041l0.107,-0.044l0.107,-0.044l0.106,-0.046l0.105,-0.047l0.105,-0.048l0.104,-0.049l0.103,-0.051l0.103,-0.052l0.102,-0.053l0.101,-0.054l0.101,-0.055l0.099,-0.057l0.1,-0.058l0.098,-0.059l0.097,-0.06l0.097,-0.061l0.096,-0.062l0.095,-0.064l0.095,-0.065l0.094,-0.065l0.092,-0.067l0.092,-0.068l0.091,-0.069l0.091,-0.07l0.089,-0.071l0.089,-0.073l0.087,-0.073l0.087,-0.074l0.086,-0.076l0.085,-0.076l0.084,-0.077l0.083,-0.079l0.083,-0.079l0.081,-0.08l0.08,-0.081l0.079,-0.083l0.079,-0.083l0.077,-0.084l0.076,-0.085l0.076,-0.086l0.074,-0.087l0.073,-0.087l0.073,-0.089l0.071,-0.089l0.07,-0.091l0.069,-0.091l0.068,-0.092l0.067,-0.092l0.065,-0.094l0.065,-0.095l0.064,-0.095l0.062,-0.096l0.061,-0.097l0.06,-0.097l0.059,-0.098l0.058,-0.1l0.057,-0.099l0.055,-0.101l0.054,-0.101l0.053,-0.102l0.052,-0.103l0.051,-0.103l0.049,-0.104l0.048,-0.105l0.047,-0.105l0.046,-0.106l0.044,-0.107l0.044,-0.107l0.041,-0.108l0.041,-0.109l0.039,-0.109l0.038,-0.11l0.037,-0.11l0.035,-0.111l0.034,-0.112l0.033,-0.112l0.031,-0.113l0.03,-0.113l0.028,-0.114l0.028,-0.114l0.025,-0.115l0.025,-0.116l0.023,-0.116l0.021,-0.116l0.021,-0.117l0.018,-0.118l0.018,-0.118l0.015,-0.118l0.015,-0.119l0.013,-0.12l0.011,-0.12l0.01,-0.12l0.009,-0.121l0.007,-0.122l0.005,-0.122l0.004,-0.122l0.002,-0.123l0.001,-0.131l0,-23.984l-0.001,-0.131l-0.002,-0.123l-0.004,-0.122l-0.005,-0.122l-0.007,-0.122l-0.009,-0.121l-0.01,-0.12l-0.011,-0.12l-0.013,-0.12l-0.015,-0.119l-0.015,-0.118l-0.018,-0.118l-0.018,-0.118l-0.021,-0.117l-0.021,-0.116l-0.023,-0.116l-0.025,-0.116l-0.025,-0.115l-0.028,-0.114l-0.028,-0.114l-0.03,-0.113l-0.031,-0.113l-0.033,-0.112l-0.034,-0.112l-0.035,-0.111l-0.037,-0.11l-0.038,-0.11l-0.039,-0.109l-0.041,-0.109l-0.041,-0.108l-0.044,-0.107l-0.044,-0.107l-0.046,-0.106l-0.047,-0.105l-0.048,-0.105l-0.049,-0.104l-0.051,-0.103l-0.052,-0.103l-0.053,-0.102l-0.054,-0.101l-0.055,-0.101l-0.057,-0.099l-0.058,-0.1l-0.059,-0.098l-0.06,-0.097l-0.061,-0.097l-0.062,-0.096l-0.064,-0.095l-0.065,-0.095l-0.065,-0.094l-0.067,-0.092l-0.068,-0.092l-0.069,-0.092l-0.07,-0.09l-0.071,-0.089l-0.073,-0.089l-0.073,-0.087l-0.074,-0.087l-0.076,-0.086l-0.076,-0.085l-0.077,-0.084l-0.079,-0.083l-0.079,-0.083l-0.08,-0.081l-0.081,-0.08l-0.083,-0.079l-0.083,-0.079l-0.084,-0.077l-0.085,-0.076l-0.086,-0.076l-0.087,-0.074l-0.087,-0.073l-0.089,-0.073l-0.089,-0.071l-0.091,-0.07l-0.091,-0.069l-0.092,-0.068l-0.092,-0.067l-0.094,-0.065l-0.095,-0.065l-0.095,-0.064l-0.096,-0.062l-0.097,-0.061l-0.097,-0.06l-0.098,-0.059l-0.1,-0.058l-0.099,-0.057l-0.101,-0.055l-0.101,-0.054l-0.102,-0.054l-0.103,-0.051l-0.103,-0.051l-0.104,-0.049l-0.105,-0.048l-0.105,-0.047l-0.106,-0.046l-0.107,-0.044l-0.107,-0.044l-0.108,-0.041l-0.109,-0.041l-0.109,-0.039l-0.11,-0.038l-0.11,-0.037l-0.111,-0.035l-0.112,-0.034l-0.112,-0.033l-0.113,-0.031l-0.113,-0.03l-0.114,-0.028l-0.114,-0.028l-0.115,-0.025l-0.116,-0.025l-0.116,-0.023l-0.116,-0.021l-0.117,-0.021l-0.118,-0.018l-0.118,-0.018l-0.118,-0.015l-0.119,-0.015l-0.12,-0.013l-0.12,-0.011l-0.12,-0.01l-0.121,-0.009l-0.122,-0.007l-0.122,-0.005l-0.122,-0.004l-0.123,-0.002l-0.131,-0.001l-23.984,0Z"/><path d="M38.364,25.636l-12.728,12.728" style="fill:none;stroke:#000;stroke-width:2.5px;"/><path d="M38.364,38.364l-12.728,-12.728" style="fill:none;stroke:#000;stroke-width:2.5px;"/></svg>