<?xml version="1.0" encoding="UTF-8" standalone="no"?><!DOCTYPE svg PUBLIC "-//W3C//DTD SVG 1.1//EN" "http://www.w3.org/Graphics/SVG/1.1/DTD/svg11.dtd"><svg width="100%" height="100%" viewBox="0 0 64 64" version="1.1" xmlns="http://www.w3.org/2000/svg" xmlns:xlink="http://www.w3.org/1999/xlink" xml:space="preserve" xmlns:serif="http://www.serif.com/" style="fill-rule:evenodd;clip-rule:evenodd;stroke-linecap:round;stroke-linejoin:round;stroke-miterlimit:5;"><path d="M51.189,31.289c0,-4.707 -3.821,-8.528 -8.528,-8.528l-21.322,0c-4.707,0 -8.528,3.821 -8.528,8.528l0,17.057c0,4.707 3.821,8.529 8.528,8.529l21.322,0c4.707,0 8.528,-3.822 8.528,-8.529l0,-17.057Z" style="fill:none;stroke:#000;stroke-width:2.5px;"/><ellipse cx="32.711" cy="40.529" rx="3.554" ry="3.136" style="fill:none;stroke:#000;stroke-width:2.5px;"/><ellipse cx="24.182" cy="33.003" rx="3.554" ry="3.136" style="fill:none;stroke:#000;stroke-width:2.5px;"/><ellipse cx="32" cy="14.966" rx="3.554" ry="2.843" style="fill:none;stroke:#000;stroke-width:2.5px;"/><ellipse cx="41.239" cy="48.054" rx="3.554" ry="3.136" style="fill:none;stroke:#000;stroke-width:2.5px;"/><path d="M12.811,45.504c0,0 0,-22.189 0,-32.823c0,-1.474 0.585,-2.887 1.627,-3.929c1.042,-1.042 2.455,-1.627 3.928,-1.627c7.283,0 19.985,0 27.268,0c3.068,0 5.555,2.487 5.555,5.556c0,8.011 0,21.857 0,21.857" style="fill:none;stroke:#000;stroke-width:2.5px;"/><path d="M23.471,7.125l-10.66,10.661" style="fill:none;stroke:#000;stroke-width:2.5px;"/><path d="M32,7.125l-17.057,17.057" style="fill:none;stroke:#000;stroke-width:2.5px;"/><path d="M40.529,7.125l-15.636,15.636" style="fill:none;stroke:#000;stroke-width:2.5px;"/><path d="M47.636,9.257l-12.793,12.793" style="fill:none;stroke:#000;stroke-width:2.5px;"/><path d="M51.189,14.943l-7.107,7.107" style="fill:none;stroke:#000;stroke-width:2.5px;"/></svg>