<?xml version="1.0" encoding="UTF-8" standalone="no"?><!DOCTYPE svg PUBLIC "-//W3C//DTD SVG 1.1//EN" "http://www.w3.org/Graphics/SVG/1.1/DTD/svg11.dtd"><svg width="100%" height="100%" viewBox="0 0 64 64" version="1.1" xmlns="http://www.w3.org/2000/svg" xmlns:xlink="http://www.w3.org/1999/xlink" xml:space="preserve" xmlns:serif="http://www.serif.com/" style="fill-rule:evenodd;clip-rule:evenodd;stroke-linejoin:round;stroke-miterlimit:1.41421;"><path d="M54.621,4.001l0.07,0.001l0.07,0.002l0.07,0.003l0.07,0.004l0.069,0.005l0.069,0.006l0.069,0.007l0.069,0.007l0.068,0.009l0.068,0.009l0.068,0.01l0.067,0.011l0.068,0.011l0.067,0.013l0.066,0.013l0.067,0.014l0.066,0.015l0.066,0.016l0.065,0.016l0.065,0.017l0.065,0.018l0.065,0.019l0.064,0.02l0.064,0.02l0.063,0.021l0.063,0.022l0.063,0.023l0.062,0.023l0.062,0.024l0.062,0.025l0.062,0.025l0.06,0.027l0.061,0.027l0.06,0.027l0.06,0.029l0.059,0.029l0.059,0.03l0.059,0.03l0.058,0.031l0.058,0.032l0.057,0.033l0.057,0.033l0.056,0.034l0.056,0.034l0.056,0.035l0.055,0.036l0.054,0.037l0.054,0.037l0.054,0.037l0.053,0.039l0.053,0.039l0.052,0.039l0.052,0.04l0.051,0.041l0.051,0.041l0.05,0.042l0.05,0.043l0.049,0.043l0.048,0.044l0.048,0.044l0.048,0.045l0.047,0.045l0.047,0.046l0.046,0.047l0.045,0.047l0.045,0.047l0.044,0.048l0.044,0.049l0.043,0.049l0.042,0.05l0.042,0.05l0.042,0.051l0.04,0.051l0.04,0.052l0.04,0.052l0.039,0.053l0.038,0.053l0.038,0.053l0.037,0.055l0.036,0.054l0.036,0.055l0.035,0.056l0.034,0.056l0.034,0.056l0.033,0.057l0.033,0.057l0.032,0.058l0.031,0.058l0.03,0.058l0.03,0.059l0.029,0.059l0.028,0.06l0.028,0.06l0.027,0.061l0.026,0.061l0.025,0.061l0.025,0.062l0.024,0.062l0.024,0.062l0.022,0.063l0.022,0.063l0.021,0.063l0.02,0.064l0.02,0.064l0.018,0.064l0.018,0.065l0.018,0.065l0.016,0.066l0.016,0.065l0.014,0.066l0.014,0.067l0.014,0.066l0.012,0.067l0.012,0.067l0.01,0.068l0.01,0.067l0.009,0.068l0.008,0.069l0.008,0.068l0.006,0.069l0.006,0.069l0.005,0.069l0.004,0.069l0.003,0.07l0.002,0.07l0.002,0.07l0,0.07l0,45.102l0,0.07l-0.002,0.07l-0.002,0.07l-0.003,0.07l-0.004,0.069l-0.005,0.07l-0.006,0.069l-0.006,0.068l-0.008,0.069l-0.008,0.068l-0.009,0.068l-0.01,0.068l-0.011,0.067l-0.011,0.068l-0.013,0.067l-0.013,0.066l-0.014,0.067l-0.015,0.066l-0.015,0.065l-0.017,0.066l-0.017,0.065l-0.018,0.065l-0.019,0.064l-0.019,0.064l-0.02,0.064l-0.022,0.064l-0.021,0.063l-0.023,0.062l-0.023,0.063l-0.024,0.062l-0.025,0.062l-0.026,0.061l-0.026,0.061l-0.027,0.06l-0.027,0.06l-0.029,0.06l-0.029,0.06l-0.03,0.059l-0.03,0.058l-0.031,0.058l-0.032,0.058l-0.032,0.057l-0.034,0.057l-0.033,0.056l-0.035,0.056l-0.035,0.056l-0.036,0.055l-0.036,0.055l-0.037,0.054l-0.038,0.053l-0.038,0.053l-0.039,0.053l-0.04,0.052l-0.04,0.052l-0.041,0.051l-0.041,0.051l-0.042,0.05l-0.043,0.05l-0.043,0.049l-0.043,0.049l-0.045,0.048l-0.044,0.048l-0.046,0.047l-0.046,0.046l-0.046,0.046l-0.047,0.046l-0.048,0.044l-0.048,0.045l-0.049,0.043l-0.049,0.043l-0.05,0.043l-0.05,0.042l-0.051,0.041l-0.051,0.041l-0.052,0.04l-0.052,0.04l-0.053,0.039l-0.053,0.038l-0.053,0.038l-0.054,0.037l-0.055,0.036l-0.055,0.036l-0.056,0.035l-0.056,0.035l-0.056,0.033l-0.057,0.034l-0.057,0.032l-0.058,0.032l-0.058,0.031l-0.058,0.03l-0.059,0.03l-0.06,0.029l-0.06,0.029l-0.06,0.027l-0.06,0.027l-0.061,0.026l-0.061,0.026l-0.062,0.025l-0.062,0.024l-0.063,0.023l-0.062,0.023l-0.063,0.021l-0.064,0.022l-0.064,0.02l-0.064,0.019l-0.064,0.019l-0.065,0.018l-0.065,0.017l-0.066,0.017l-0.065,0.015l-0.066,0.015l-0.067,0.014l-0.066,0.013l-0.067,0.013l-0.068,0.011l-0.067,0.011l-0.068,0.01l-0.068,0.009l-0.068,0.008l-0.069,0.008l-0.068,0.006l-0.069,0.006l-0.07,0.005l-0.069,0.004l-0.07,0.003l-0.07,0.002l-0.07,0.002l-0.07,0l-45.102,0l-0.07,0l-0.07,-0.002l-0.07,-0.002l-0.07,-0.003l-0.069,-0.004l-0.07,-0.005l-0.069,-0.006l-0.068,-0.006l-0.069,-0.008l-0.068,-0.008l-0.068,-0.009l-0.068,-0.01l-0.067,-0.011l-0.068,-0.011l-0.067,-0.013l-0.066,-0.013l-0.067,-0.014l-0.066,-0.015l-0.065,-0.015l-0.066,-0.017l-0.065,-0.017l-0.065,-0.018l-0.064,-0.019l-0.064,-0.019l-0.064,-0.02l-0.064,-0.022l-0.063,-0.021l-0.062,-0.023l-0.063,-0.023l-0.062,-0.024l-0.062,-0.025l-0.061,-0.026l-0.061,-0.026l-0.06,-0.027l-0.06,-0.027l-0.06,-0.029l-0.06,-0.029l-0.059,-0.03l-0.058,-0.03l-0.058,-0.031l-0.058,-0.032l-0.057,-0.032l-0.057,-0.034l-0.056,-0.033l-0.056,-0.035l-0.056,-0.035l-0.055,-0.036l-0.055,-0.036l-0.054,-0.037l-0.053,-0.038l-0.053,-0.038l-0.053,-0.039l-0.052,-0.04l-0.052,-0.04l-0.051,-0.041l-0.051,-0.041l-0.05,-0.042l-0.05,-0.043l-0.049,-0.043l-0.049,-0.043l-0.048,-0.045l-0.048,-0.044l-0.047,-0.046l-0.046,-0.046l-0.046,-0.046l-0.046,-0.047l-0.044,-0.048l-0.045,-0.048l-0.043,-0.049l-0.043,-0.049l-0.043,-0.05l-0.042,-0.05l-0.041,-0.051l-0.041,-0.051l-0.04,-0.052l-0.04,-0.052l-0.039,-0.053l-0.038,-0.053l-0.038,-0.053l-0.037,-0.054l-0.036,-0.055l-0.036,-0.055l-0.035,-0.056l-0.035,-0.056l-0.033,-0.056l-0.034,-0.057l-0.032,-0.057l-0.032,-0.058l-0.031,-0.058l-0.03,-0.058l-0.03,-0.059l-0.029,-0.06l-0.029,-0.06l-0.027,-0.06l-0.027,-0.06l-0.026,-0.061l-0.026,-0.061l-0.025,-0.062l-0.024,-0.062l-0.023,-0.063l-0.023,-0.062l-0.021,-0.063l-0.022,-0.064l-0.02,-0.064l-0.019,-0.064l-0.019,-0.064l-0.018,-0.065l-0.017,-0.065l-0.017,-0.066l-0.015,-0.065l-0.015,-0.066l-0.014,-0.067l-0.013,-0.066l-0.013,-0.067l-0.011,-0.068l-0.011,-0.067l-0.01,-0.068l-0.009,-0.068l-0.008,-0.068l-0.008,-0.069l-0.006,-0.068l-0.006,-0.069l-0.005,-0.07l-0.004,-0.069l-0.003,-0.07l-0.002,-0.07l-0.002,-0.07l0,-0.07l0,-34.551l-0.103,-0.001l-0.103,-0.005l-0.102,-0.006l-0.101,-0.009l-0.101,-0.012l-0.1,-0.014l-0.099,-0.017l-0.098,-0.019l-0.097,-0.021l-0.096,-0.023l-0.096,-0.026l-0.094,-0.029l-0.094,-0.03l-0.092,-0.033l-0.092,-0.034l-0.09,-0.037l-0.089,-0.04l-0.088,-0.041l-0.087,-0.043l-0.086,-0.045l-0.084,-0.047l-0.083,-0.05l-0.082,-0.051l-0.08,-0.053l-0.08,-0.055l-0.077,-0.056l-0.077,-0.059l-0.074,-0.06l-0.074,-0.062l-0.071,-0.064l-0.071,-0.065l-0.068,-0.067l-0.067,-0.069l-0.066,-0.07l-0.063,-0.072l-0.062,-0.073l-0.061,-0.075l-0.058,-0.076l-0.057,-0.078l-0.054,-0.079l-0.053,-0.081l-0.051,-0.081l-0.05,-0.083l-0.047,-0.085l-0.045,-0.085l-0.043,-0.087l-0.041,-0.088l-0.039,-0.089l-0.037,-0.09l-0.035,-0.092l-0.032,-0.092l-0.03,-0.093l-0.028,-0.095l-0.026,-0.095l-0.024,-0.096l-0.021,-0.097l-0.019,-0.098l-0.016,-0.099l-0.014,-0.099l-0.011,-0.101l-0.009,-0.101l-0.007,-0.102l-0.004,-0.102l-0.001,-0.103l0.001,-0.103l0.004,-0.102l0.007,-0.102l0.009,-0.101l0.011,-0.101l0.014,-0.099l0.016,-0.099l0.019,-0.098l0.021,-0.097l0.024,-0.096l0.026,-0.095l0.028,-0.095l0.03,-0.093l0.032,-0.092l0.035,-0.092l0.037,-0.09l0.039,-0.089l0.041,-0.088l0.043,-0.087l0.045,-0.085l0.047,-0.085l0.05,-0.083l0.051,-0.081l0.053,-0.081l0.054,-0.079l0.057,-0.078l0.058,-0.076l0.061,-0.075l0.062,-0.073l0.063,-0.072l0.066,-0.07l0.067,-0.069l0.068,-0.067l0.071,-0.065l0.071,-0.064l0.074,-0.062l0.074,-0.06l0.077,-0.059l0.077,-0.056l0.08,-0.055l0.08,-0.053l0.082,-0.051l0.083,-0.05l0.084,-0.047l0.086,-0.045l0.087,-0.043l0.088,-0.041l0.089,-0.04l0.09,-0.037l0.092,-0.034l0.092,-0.033l0.094,-0.03l0.094,-0.029l0.096,-0.026l0.096,-0.023l0.097,-0.021l0.098,-0.019l0.099,-0.017l0.1,-0.014l0.101,-0.012l0.101,-0.009l0.102,-0.006l0.103,-0.005l0.103,-0.001l0,-2.551l0,-0.07l0.002,-0.07l0.002,-0.07l0.003,-0.07l0.004,-0.069l0.005,-0.069l0.006,-0.069l0.006,-0.069l0.008,-0.068l0.008,-0.069l0.009,-0.068l0.01,-0.067l0.01,-0.068l0.012,-0.067l0.012,-0.067l0.014,-0.066l0.014,-0.067l0.014,-0.066l0.016,-0.065l0.016,-0.066l0.018,-0.065l0.018,-0.065l0.018,-0.064l0.02,-0.064l0.02,-0.064l0.021,-0.063l0.022,-0.063l0.022,-0.063l0.024,-0.062l0.024,-0.062l0.025,-0.062l0.025,-0.061l0.026,-0.061l0.027,-0.061l0.028,-0.06l0.028,-0.06l0.029,-0.059l0.03,-0.059l0.03,-0.058l0.031,-0.058l0.032,-0.058l0.033,-0.057l0.033,-0.057l0.034,-0.056l0.034,-0.056l0.035,-0.056l0.036,-0.055l0.036,-0.054l0.037,-0.055l0.038,-0.053l0.038,-0.053l0.039,-0.053l0.04,-0.052l0.04,-0.052l0.04,-0.051l0.042,-0.051l0.042,-0.05l0.042,-0.05l0.043,-0.049l0.044,-0.049l0.044,-0.048l0.045,-0.047l0.045,-0.047l0.046,-0.047l0.047,-0.046l0.047,-0.045l0.048,-0.045l0.048,-0.044l0.048,-0.044l0.049,-0.043l0.05,-0.043l0.05,-0.042l0.051,-0.041l0.051,-0.041l0.052,-0.04l0.052,-0.039l0.053,-0.039l0.053,-0.039l0.054,-0.037l0.054,-0.037l0.054,-0.037l0.055,-0.036l0.056,-0.035l0.056,-0.034l0.056,-0.034l0.057,-0.033l0.057,-0.033l0.058,-0.032l0.058,-0.031l0.059,-0.03l0.059,-0.03l0.059,-0.029l0.06,-0.029l0.06,-0.027l0.061,-0.027l0.06,-0.027l0.062,-0.025l0.062,-0.025l0.062,-0.024l0.062,-0.023l0.063,-0.023l0.063,-0.022l0.063,-0.021l0.064,-0.02l0.064,-0.02l0.065,-0.019l0.065,-0.018l0.065,-0.017l0.065,-0.016l0.066,-0.016l0.066,-0.015l0.067,-0.014l0.066,-0.013l0.067,-0.013l0.068,-0.011l0.067,-0.011l0.068,-0.01l0.068,-0.009l0.068,-0.009l0.069,-0.007l0.069,-0.007l0.069,-0.006l0.069,-0.005l0.07,-0.004l0.07,-0.003l0.07,-0.002l0.07,-0.001l0.07,-0.001l45.102,0l0.07,0.001Zm-45.162,2.587l-0.044,0l-0.038,0.001l-0.037,0.001l-0.037,0.002l-0.037,0.002l-0.037,0.003l-0.036,0.003l-0.037,0.003l-0.036,0.004l-0.036,0.004l-0.036,0.005l-0.035,0.005l-0.036,0.006l-0.035,0.006l-0.035,0.007l-0.035,0.007l-0.035,0.007l-0.034,0.008l-0.035,0.008l-0.034,0.009l-0.034,0.009l-0.034,0.009l-0.034,0.01l-0.033,0.01l-0.034,0.011l-0.033,0.011l-0.033,0.011l-0.033,0.012l-0.032,0.012l-0.033,0.013l-0.032,0.013l-0.032,0.013l-0.032,0.014l-0.031,0.014l-0.032,0.015l-0.031,0.014l-0.031,0.016l-0.031,0.015l-0.031,0.016l-0.031,0.017l-0.03,0.016l-0.03,0.017l-0.03,0.018l-0.029,0.018l-0.03,0.018l-0.029,0.018l-0.029,0.019l-0.029,0.019l-0.028,0.02l-0.029,0.02l-0.028,0.02l-0.027,0.02l-0.028,0.021l-0.027,0.022l-0.027,0.021l-0.027,0.022l-0.027,0.022l-0.026,0.023l-0.026,0.022l-0.025,0.023l-0.026,0.024l-0.025,0.023l-0.025,0.024l-0.024,0.025l-0.025,0.024l-0.024,0.025l-0.023,0.025l-0.024,0.026l-0.023,0.025l-0.023,0.026l-0.022,0.027l-0.022,0.026l-0.022,0.027l-0.022,0.027l-0.021,0.027l-0.021,0.028l-0.02,0.028l-0.02,0.028l-0.02,0.028l-0.02,0.028l-0.019,0.029l-0.018,0.029l-0.019,0.029l-0.018,0.029l-0.018,0.03l-0.017,0.03l-0.017,0.03l-0.017,0.03l-0.016,0.03l-0.016,0.031l-0.016,0.031l-0.015,0.031l-0.015,0.031l-0.014,0.032l-0.014,0.031l-0.014,0.032l-0.013,0.032l-0.013,0.032l-0.012,0.032l-0.013,0.033l-0.011,0.033l-0.012,0.032l-0.011,0.034l-0.01,0.033l-0.01,0.033l-0.01,0.034l-0.009,0.033l-0.009,0.034l-0.009,0.034l-0.008,0.035l-0.008,0.034l-0.007,0.035l-0.007,0.034l-0.007,0.035l-0.006,0.035l-0.005,0.036l-0.005,0.035l-0.005,0.036l-0.004,0.036l-0.004,0.036l-0.004,0.036l-0.003,0.036l-0.002,0.037l-0.002,0.036l-0.002,0.037l-0.001,0.038l-0.001,0.037l0,0.046l0,2.542l-0.011,0.237l-0.033,0.234l-0.053,0.231l-0.075,0.225l-0.095,0.217l-0.114,0.207l-0.133,0.196l-0.15,0.183l-0.166,0.169l-0.181,0.153l-0.194,0.135l-0.206,0.118l-0.216,0.098l-0.224,0.077l-0.229,0.057l-0.235,0.036l-0.236,0.014l-0.071,0.001l-0.037,0.002l-0.037,0.002l-0.036,0.004l-0.036,0.004l-0.035,0.005l-0.035,0.006l-0.035,0.006l-0.034,0.008l-0.034,0.008l-0.033,0.009l-0.033,0.01l-0.033,0.011l-0.032,0.011l-0.032,0.012l-0.032,0.013l-0.031,0.014l-0.031,0.014l-0.031,0.016l-0.03,0.016l-0.03,0.016l-0.029,0.018l-0.029,0.018l-0.029,0.019l-0.028,0.019l-0.028,0.02l-0.027,0.021l-0.026,0.022l-0.027,0.022l-0.025,0.023l-0.025,0.023l-0.025,0.024l-0.024,0.025l-0.023,0.025l-0.023,0.025l-0.022,0.026l-0.022,0.027l-0.02,0.027l-0.021,0.028l-0.019,0.028l-0.019,0.028l-0.018,0.029l-0.017,0.029l-0.017,0.03l-0.015,0.03l-0.016,0.031l-0.014,0.03l-0.014,0.031l-0.012,0.032l-0.012,0.031l-0.012,0.033l-0.01,0.032l-0.01,0.033l-0.009,0.033l-0.008,0.033l-0.007,0.034l-0.007,0.034l-0.006,0.035l-0.005,0.035l-0.004,0.035l-0.003,0.036l-0.002,0.037l-0.002,0.036l0,0.038l0,0.038l0.002,0.036l0.002,0.037l0.003,0.036l0.004,0.035l0.005,0.035l0.006,0.035l0.007,0.034l0.007,0.034l0.008,0.033l0.009,0.033l0.01,0.033l0.01,0.032l0.012,0.033l0.012,0.031l0.012,0.032l0.014,0.031l0.014,0.03l0.016,0.031l0.015,0.03l0.017,0.03l0.017,0.029l0.018,0.029l0.019,0.028l0.019,0.028l0.021,0.028l0.02,0.027l0.022,0.027l0.022,0.026l0.023,0.025l0.023,0.025l0.024,0.025l0.025,0.024l0.025,0.023l0.025,0.023l0.027,0.022l0.026,0.022l0.027,0.021l0.028,0.02l0.028,0.019l0.029,0.019l0.029,0.018l0.029,0.018l0.03,0.016l0.03,0.016l0.031,0.016l0.031,0.014l0.031,0.014l0.032,0.013l0.032,0.012l0.032,0.011l0.033,0.011l0.033,0.01l0.033,0.009l0.034,0.008l0.034,0.008l0.035,0.006l0.035,0.006l0.035,0.005l0.036,0.004l0.036,0.004l0.037,0.002l0.037,0.002l0.071,0.001l0.236,0.014l0.235,0.036l0.229,0.057l0.224,0.077l0.216,0.098l0.206,0.118l0.194,0.135l0.181,0.153l0.166,0.169l0.15,0.183l0.133,0.196l0.114,0.207l0.095,0.217l0.075,0.225l0.053,0.231l0.033,0.234l0.011,0.237l0,34.542l0,0.046l0.001,0.037l0.001,0.038l0.002,0.037l0.002,0.036l0.002,0.037l0.003,0.036l0.004,0.037l0.004,0.036l0.004,0.036l0.005,0.035l0.005,0.036l0.006,0.035l0.006,0.035l0.006,0.035l0.007,0.035l0.007,0.035l0.008,0.034l0.008,0.034l0.009,0.034l0.009,0.034l0.009,0.034l0.01,0.034l0.01,0.033l0.011,0.033l0.011,0.033l0.011,0.033l0.012,0.033l0.012,0.033l0.012,0.032l0.013,0.032l0.014,0.032l0.013,0.032l0.014,0.032l0.015,0.031l0.015,0.031l0.015,0.031l0.016,0.031l0.015,0.031l0.017,0.03l0.016,0.031l0.018,0.03l0.017,0.03l0.018,0.029l0.018,0.03l0.018,0.029l0.019,0.029l0.019,0.028l0.02,0.029l0.02,0.028l0.02,0.028l0.02,0.028l0.021,0.028l0.021,0.027l0.022,0.027l0.022,0.027l0.022,0.026l0.022,0.027l0.023,0.026l0.023,0.025l0.024,0.026l0.023,0.025l0.024,0.025l0.025,0.024l0.024,0.025l0.025,0.024l0.025,0.023l0.026,0.024l0.025,0.023l0.026,0.023l0.027,0.022l0.026,0.022l0.027,0.022l0.027,0.022l0.027,0.021l0.028,0.021l0.028,0.02l0.028,0.02l0.028,0.02l0.029,0.02l0.028,0.019l0.029,0.019l0.029,0.018l0.03,0.018l0.029,0.018l0.03,0.018l0.03,0.017l0.031,0.016l0.03,0.017l0.031,0.015l0.031,0.016l0.031,0.015l0.031,0.015l0.031,0.015l0.032,0.014l0.032,0.013l0.032,0.014l0.032,0.013l0.032,0.012l0.033,0.012l0.033,0.012l0.033,0.011l0.033,0.011l0.033,0.011l0.033,0.01l0.034,0.01l0.034,0.009l0.034,0.009l0.034,0.009l0.034,0.008l0.034,0.008l0.035,0.007l0.035,0.007l0.035,0.006l0.035,0.006l0.035,0.006l0.036,0.005l0.035,0.005l0.036,0.004l0.036,0.004l0.037,0.004l0.036,0.003l0.037,0.002l0.036,0.002l0.037,0.002l0.038,0.001l0.037,0.001l0.046,0l45.084,0l0.046,0l0.037,-0.001l0.038,-0.001l0.037,-0.002l0.036,-0.002l0.037,-0.002l0.036,-0.003l0.037,-0.004l0.036,-0.004l0.036,-0.004l0.035,-0.005l0.036,-0.005l0.035,-0.006l0.035,-0.006l0.035,-0.006l0.035,-0.007l0.035,-0.007l0.034,-0.008l0.034,-0.008l0.034,-0.009l0.034,-0.009l0.034,-0.009l0.034,-0.01l0.033,-0.01l0.033,-0.011l0.033,-0.011l0.033,-0.011l0.033,-0.012l0.033,-0.012l0.032,-0.012l0.032,-0.013l0.032,-0.014l0.032,-0.013l0.032,-0.014l0.031,-0.015l0.031,-0.015l0.031,-0.015l0.031,-0.016l0.031,-0.015l0.03,-0.017l0.031,-0.016l0.03,-0.017l0.03,-0.018l0.029,-0.018l0.03,-0.018l0.029,-0.018l0.029,-0.019l0.028,-0.019l0.029,-0.02l0.028,-0.02l0.028,-0.02l0.028,-0.02l0.028,-0.021l0.027,-0.021l0.027,-0.022l0.027,-0.022l0.026,-0.022l0.027,-0.022l0.026,-0.023l0.025,-0.023l0.026,-0.024l0.025,-0.023l0.025,-0.024l0.024,-0.025l0.025,-0.024l0.024,-0.025l0.023,-0.025l0.024,-0.026l0.023,-0.025l0.023,-0.026l0.022,-0.027l0.022,-0.026l0.022,-0.027l0.022,-0.027l0.021,-0.027l0.021,-0.028l0.02,-0.028l0.02,-0.028l0.02,-0.028l0.02,-0.029l0.019,-0.028l0.019,-0.029l0.018,-0.029l0.018,-0.03l0.018,-0.029l0.018,-0.03l0.017,-0.03l0.016,-0.031l0.017,-0.03l0.015,-0.031l0.016,-0.031l0.015,-0.031l0.015,-0.031l0.015,-0.031l0.014,-0.032l0.013,-0.032l0.014,-0.032l0.013,-0.032l0.012,-0.032l0.012,-0.033l0.012,-0.033l0.011,-0.033l0.011,-0.033l0.011,-0.033l0.01,-0.033l0.01,-0.034l0.009,-0.034l0.009,-0.034l0.009,-0.034l0.008,-0.034l0.008,-0.034l0.007,-0.035l0.007,-0.035l0.006,-0.035l0.006,-0.035l0.006,-0.035l0.005,-0.036l0.005,-0.035l0.004,-0.036l0.004,-0.036l0.004,-0.037l0.003,-0.036l0.002,-0.037l0.002,-0.036l0.002,-0.037l0.001,-0.038l0.001,-0.037l0,-0.046l0,-45.084l0,-0.046l-0.001,-0.037l-0.001,-0.038l-0.002,-0.037l-0.002,-0.036l-0.002,-0.037l-0.003,-0.036l-0.004,-0.036l-0.004,-0.036l-0.004,-0.036l-0.005,-0.036l-0.005,-0.035l-0.005,-0.036l-0.006,-0.035l-0.007,-0.035l-0.007,-0.034l-0.007,-0.035l-0.008,-0.034l-0.008,-0.035l-0.009,-0.034l-0.009,-0.034l-0.009,-0.033l-0.01,-0.034l-0.01,-0.033l-0.01,-0.034l-0.011,-0.032l-0.012,-0.033l-0.011,-0.033l-0.013,-0.033l-0.012,-0.032l-0.013,-0.032l-0.013,-0.032l-0.014,-0.032l-0.014,-0.031l-0.014,-0.032l-0.015,-0.031l-0.015,-0.031l-0.016,-0.031l-0.016,-0.031l-0.016,-0.03l-0.017,-0.03l-0.017,-0.03l-0.017,-0.03l-0.018,-0.03l-0.018,-0.029l-0.019,-0.029l-0.018,-0.029l-0.019,-0.029l-0.02,-0.028l-0.02,-0.028l-0.02,-0.029l-0.021,-0.027l-0.02,-0.028l-0.021,-0.027l-0.022,-0.027l-0.022,-0.027l-0.022,-0.026l-0.022,-0.027l-0.023,-0.025l-0.023,-0.026l-0.024,-0.026l-0.023,-0.025l-0.024,-0.025l-0.025,-0.024l-0.024,-0.025l-0.025,-0.023l-0.025,-0.024l-0.026,-0.024l-0.025,-0.023l-0.026,-0.022l-0.026,-0.023l-0.027,-0.022l-0.027,-0.022l-0.027,-0.021l-0.027,-0.022l-0.028,-0.021l-0.027,-0.02l-0.028,-0.02l-0.029,-0.02l-0.028,-0.02l-0.029,-0.019l-0.029,-0.019l-0.029,-0.018l-0.03,-0.018l-0.029,-0.018l-0.03,-0.018l-0.03,-0.017l-0.03,-0.016l-0.031,-0.017l-0.031,-0.016l-0.031,-0.015l-0.031,-0.016l-0.031,-0.014l-0.032,-0.015l-0.031,-0.014l-0.032,-0.014l-0.032,-0.013l-0.032,-0.013l-0.033,-0.013l-0.032,-0.012l-0.033,-0.012l-0.033,-0.011l-0.033,-0.011l-0.034,-0.011l-0.033,-0.01l-0.034,-0.01l-0.034,-0.009l-0.034,-0.009l-0.034,-0.009l-0.035,-0.008l-0.034,-0.008l-0.035,-0.007l-0.035,-0.007l-0.035,-0.007l-0.035,-0.006l-0.036,-0.006l-0.035,-0.005l-0.036,-0.005l-0.036,-0.004l-0.036,-0.004l-0.037,-0.003l-0.036,-0.003l-0.037,-0.003l-0.037,-0.002l-0.037,-0.002l-0.037,-0.001l-0.038,-0.001l-0.044,0l-45.082,0Z"/><path d="M52,13.552c0,-0.857 -0.695,-1.552 -1.552,-1.552l-36.896,0c-0.857,0 -1.552,0.695 -1.552,1.552l0,36.896c0,0.857 0.695,1.552 1.552,1.552l36.896,0c0.857,0 1.552,-0.695 1.552,-1.552l0,-36.896Z" style="fill:none;"/><clipPath id="_clip1"><path d="M52,13.552c0,-0.857 -0.695,-1.552 -1.552,-1.552l-36.896,0c-0.857,0 -1.552,0.695 -1.552,1.552l0,36.896c0,0.857 0.695,1.552 1.552,1.552l36.896,0c0.857,0 1.552,-0.695 1.552,-1.552l0,-36.896Z"/></clipPath><g clip-path="url(#_clip1)"><path d="M21.674,33.001l0.174,0.003l0.174,0.006l0.172,0.008l0.172,0.009l0.172,0.012l0.171,0.015l0.17,0.016l0.17,0.018l0.169,0.021l0.169,0.022l0.168,0.025l0.167,0.026l0.166,0.029l0.166,0.031l0.165,0.032l0.165,0.035l0.163,0.037l0.163,0.039l0.162,0.04l0.162,0.043l0.16,0.044l0.16,0.047l0.159,0.048l0.158,0.051l0.157,0.052l0.156,0.054l0.156,0.056l0.154,0.057l0.154,0.06l0.153,0.061l0.152,0.064l0.151,0.065l0.15,0.066l0.149,0.069l0.148,0.07l0.147,0.072l0.146,0.074l0.145,0.075l0.144,0.077l0.143,0.079l0.142,0.081l0.14,0.082l0.14,0.084l0.139,0.085l0.137,0.087l0.137,0.089l0.135,0.09l0.134,0.092l0.133,0.093l0.132,0.095l0.13,0.096l0.129,0.098l0.129,0.1l0.127,0.101l0.125,0.102l0.125,0.104l0.123,0.106l0.122,0.107l0.12,0.108l0.119,0.109l0.118,0.112l0.117,0.112l0.115,0.114l0.114,0.115l0.112,0.117l0.112,0.118l0.109,0.119l0.108,0.12l0.107,0.122l0.106,0.123l0.104,0.125l0.102,0.125l0.101,0.127l0.1,0.129l0.098,0.129l0.096,0.13l0.095,0.132l0.093,0.133l0.092,0.134l0.09,0.135l0.089,0.137l0.087,0.137l0.085,0.139l0.084,0.14l0.082,0.14l0.081,0.142l0.079,0.143l0.077,0.144l0.075,0.145l0.074,0.146l0.072,0.147l0.07,0.148l0.069,0.149l0.066,0.15l0.065,0.151l0.064,0.152l0.061,0.153l0.06,0.154l0.057,0.154l0.056,0.156l0.054,0.156l0.052,0.157l0.051,0.158l0.048,0.159l0.047,0.16l0.044,0.16l0.043,0.162l0.04,0.162l0.039,0.163l0.037,0.163l0.035,0.165l0.032,0.165l0.031,0.166l0.029,0.166l0.026,0.167l0.025,0.168l0.022,0.169l0.021,0.169l0.018,0.17l0.016,0.17l0.015,0.171l0.012,0.172l0.009,0.172l0.008,0.172l0.006,0.174l0.003,0.174l0.001,0.174l-0.001,0.174l-0.003,0.174l-0.006,0.174l-0.008,0.172l-0.009,0.172l-0.012,0.172l-0.015,0.171l-0.016,0.17l-0.018,0.17l-0.021,0.169l-0.022,0.169l-0.025,0.168l-0.026,0.167l-0.029,0.166l-0.031,0.166l-0.032,0.165l-0.035,0.165l-0.037,0.163l-0.039,0.163l-0.04,0.162l-0.043,0.162l-0.044,0.16l-0.047,0.16l-0.048,0.159l-0.051,0.158l-0.052,0.157l-0.054,0.156l-0.056,0.156l-0.057,0.154l-0.06,0.154l-0.061,0.153l-0.064,0.152l-0.065,0.151l-0.066,0.15l-0.069,0.149l-0.07,0.148l-0.072,0.147l-0.074,0.146l-0.075,0.145l-0.077,0.144l-0.079,0.143l-0.081,0.142l-0.082,0.14l-0.084,0.14l-0.085,0.139l-0.087,0.137l-0.089,0.137l-0.09,0.135l-0.092,0.134l-0.093,0.133l-0.095,0.132l-0.096,0.13l-0.098,0.129l-0.1,0.129l-0.101,0.127l-0.102,0.125l-0.104,0.125l-0.106,0.123l-0.107,0.122l-0.108,0.12l-0.109,0.119l-0.112,0.118l-0.112,0.117l-0.114,0.115l-0.115,0.114l-0.117,0.112l-0.118,0.112l-0.119,0.109l-0.12,0.108l-0.122,0.107l-0.123,0.106l-0.125,0.104l-0.125,0.102l-0.127,0.101l-0.129,0.1l-0.129,0.098l-0.13,0.096l-0.132,0.095l-0.133,0.093l-0.134,0.092l-0.135,0.09l-0.137,0.089l-0.137,0.087l-0.139,0.085l-0.14,0.084l-0.14,0.082l-0.142,0.081l-0.143,0.079l-0.144,0.077l-0.145,0.075l-0.146,0.074l-0.147,0.072l-0.148,0.07l-0.149,0.069l-0.15,0.066l-0.151,0.065l-0.152,0.064l-0.153,0.061l-0.154,0.06l-0.154,0.057l-0.156,0.056l-0.156,0.054l-0.157,0.052l-0.158,0.051l-0.159,0.048l-0.16,0.047l-0.16,0.044l-0.162,0.043l-0.162,0.04l-0.163,0.039l-0.163,0.037l-0.165,0.035l-0.165,0.032l-0.166,0.031l-0.166,0.029l-0.167,0.026l-0.168,0.025l-0.169,0.022l-0.169,0.021l-0.17,0.018l-0.17,0.016l-0.171,0.015l-0.172,0.012l-0.172,0.009l-0.172,0.008l-0.174,0.006l-0.174,0.003l-0.174,0.001l-0.174,-0.001l-0.174,-0.003l-0.174,-0.006l-0.172,-0.008l-0.172,-0.009l-0.172,-0.012l-0.171,-0.015l-0.17,-0.016l-0.17,-0.018l-0.169,-0.021l-0.169,-0.022l-0.168,-0.025l-0.167,-0.026l-0.166,-0.029l-0.166,-0.031l-0.165,-0.032l-0.165,-0.035l-0.163,-0.037l-0.163,-0.039l-0.162,-0.04l-0.162,-0.043l-0.16,-0.044l-0.16,-0.047l-0.159,-0.048l-0.158,-0.051l-0.157,-0.052l-0.156,-0.054l-0.156,-0.056l-0.154,-0.057l-0.154,-0.06l-0.153,-0.061l-0.152,-0.064l-0.151,-0.065l-0.15,-0.066l-0.149,-0.069l-0.148,-0.07l-0.147,-0.072l-0.146,-0.074l-0.145,-0.075l-0.144,-0.077l-0.143,-0.079l-0.142,-0.081l-0.14,-0.082l-0.14,-0.084l-0.139,-0.085l-0.137,-0.087l-0.137,-0.089l-0.135,-0.09l-0.134,-0.092l-0.133,-0.093l-0.132,-0.095l-0.13,-0.096l-0.129,-0.098l-0.129,-0.1l-0.127,-0.101l-0.125,-0.102l-0.125,-0.104l-0.123,-0.106l-0.122,-0.107l-0.12,-0.108l-0.119,-0.109l-0.118,-0.112l-0.117,-0.112l-0.115,-0.114l-0.114,-0.115l-0.112,-0.117l-0.112,-0.118l-0.109,-0.119l-0.108,-0.12l-0.107,-0.122l-0.106,-0.123l-0.104,-0.125l-0.102,-0.125l-0.101,-0.127l-0.1,-0.129l-0.098,-0.129l-0.096,-0.13l-0.095,-0.132l-0.093,-0.133l-0.092,-0.134l-0.09,-0.135l-0.089,-0.137l-0.087,-0.137l-0.085,-0.139l-0.084,-0.14l-0.082,-0.14l-0.081,-0.142l-0.079,-0.143l-0.077,-0.144l-0.075,-0.145l-0.074,-0.146l-0.072,-0.147l-0.07,-0.148l-0.069,-0.149l-0.066,-0.15l-0.065,-0.151l-0.064,-0.152l-0.061,-0.153l-0.06,-0.154l-0.057,-0.154l-0.056,-0.156l-0.054,-0.156l-0.052,-0.157l-0.051,-0.158l-0.048,-0.159l-0.047,-0.16l-0.044,-0.16l-0.043,-0.162l-0.04,-0.162l-0.039,-0.163l-0.037,-0.163l-0.035,-0.165l-0.032,-0.165l-0.031,-0.166l-0.029,-0.166l-0.026,-0.167l-0.025,-0.168l-0.022,-0.169l-0.021,-0.169l-0.018,-0.17l-0.016,-0.17l-0.015,-0.171l-0.012,-0.172l-0.009,-0.172l-0.008,-0.172l-0.006,-0.174l-0.003,-0.174l-0.001,-0.174l0.001,-0.174l0.003,-0.174l0.006,-0.174l0.008,-0.172l0.009,-0.172l0.012,-0.172l0.015,-0.171l0.016,-0.17l0.018,-0.17l0.021,-0.169l0.022,-0.169l0.025,-0.168l0.026,-0.167l0.029,-0.166l0.031,-0.166l0.032,-0.165l0.035,-0.165l0.037,-0.163l0.039,-0.163l0.04,-0.162l0.043,-0.162l0.044,-0.16l0.047,-0.16l0.048,-0.159l0.051,-0.158l0.052,-0.157l0.054,-0.156l0.056,-0.156l0.057,-0.154l0.06,-0.154l0.061,-0.153l0.064,-0.152l0.065,-0.151l0.066,-0.15l0.069,-0.149l0.07,-0.148l0.072,-0.147l0.074,-0.146l0.075,-0.145l0.077,-0.144l0.079,-0.143l0.081,-0.142l0.082,-0.14l0.084,-0.14l0.085,-0.139l0.087,-0.137l0.089,-0.137l0.09,-0.135l0.092,-0.134l0.093,-0.133l0.095,-0.132l0.096,-0.13l0.098,-0.129l0.1,-0.129l0.101,-0.127l0.102,-0.125l0.104,-0.125l0.106,-0.123l0.107,-0.122l0.108,-0.12l0.109,-0.119l0.112,-0.118l0.112,-0.117l0.114,-0.115l0.115,-0.114l0.117,-0.112l0.118,-0.112l0.119,-0.109l0.12,-0.108l0.122,-0.107l0.123,-0.106l0.125,-0.104l0.125,-0.102l0.127,-0.101l0.129,-0.1l0.129,-0.098l0.13,-0.096l0.132,-0.095l0.133,-0.093l0.134,-0.092l0.135,-0.09l0.137,-0.089l0.137,-0.087l0.139,-0.085l0.14,-0.084l0.14,-0.082l0.142,-0.081l0.143,-0.079l0.144,-0.077l0.145,-0.075l0.146,-0.074l0.147,-0.072l0.148,-0.07l0.149,-0.069l0.15,-0.066l0.151,-0.065l0.152,-0.064l0.153,-0.061l0.154,-0.06l0.154,-0.057l0.156,-0.056l0.156,-0.054l0.157,-0.052l0.158,-0.051l0.159,-0.048l0.16,-0.047l0.16,-0.044l0.162,-0.043l0.162,-0.04l0.163,-0.039l0.163,-0.037l0.165,-0.035l0.165,-0.032l0.166,-0.031l0.166,-0.029l0.167,-0.026l0.168,-0.025l0.169,-0.022l0.169,-0.021l0.17,-0.018l0.17,-0.016l0.171,-0.015l0.172,-0.012l0.172,-0.009l0.172,-0.008l0.174,-0.006l0.174,-0.003l0.174,-0.001l0.174,0.001Zm-0.317,2.5l-0.142,0.003l-0.141,0.004l-0.142,0.006l-0.14,0.008l-0.14,0.01l-0.14,0.012l-0.139,0.013l-0.138,0.015l-0.138,0.017l-0.137,0.018l-0.137,0.02l-0.136,0.022l-0.135,0.023l-0.135,0.025l-0.135,0.027l-0.133,0.028l-0.133,0.03l-0.133,0.031l-0.132,0.033l-0.131,0.035l-0.13,0.036l-0.13,0.038l-0.13,0.039l-0.128,0.041l-0.128,0.043l-0.127,0.044l-0.127,0.045l-0.125,0.047l-0.125,0.049l-0.125,0.049l-0.123,0.052l-0.123,0.053l-0.122,0.054l-0.121,0.056l-0.121,0.057l-0.12,0.059l-0.118,0.06l-0.119,0.061l-0.117,0.063l-0.116,0.064l-0.116,0.066l-0.115,0.067l-0.113,0.068l-0.113,0.07l-0.112,0.07l-0.112,0.073l-0.11,0.073l-0.109,0.075l-0.109,0.076l-0.107,0.078l-0.107,0.078l-0.105,0.08l-0.105,0.081l-0.103,0.083l-0.103,0.083l-0.101,0.085l-0.101,0.086l-0.099,0.087l-0.099,0.089l-0.097,0.089l-0.096,0.091l-0.095,0.092l-0.094,0.093l-0.093,0.094l-0.092,0.095l-0.091,0.096l-0.089,0.097l-0.089,0.099l-0.087,0.099l-0.086,0.101l-0.085,0.101l-0.083,0.103l-0.083,0.103l-0.081,0.105l-0.08,0.105l-0.078,0.107l-0.078,0.107l-0.076,0.109l-0.075,0.109l-0.073,0.11l-0.073,0.112l-0.07,0.112l-0.07,0.113l-0.068,0.113l-0.067,0.115l-0.066,0.116l-0.064,0.116l-0.063,0.117l-0.061,0.119l-0.06,0.118l-0.059,0.12l-0.057,0.121l-0.056,0.121l-0.054,0.122l-0.053,0.123l-0.052,0.123l-0.049,0.125l-0.049,0.125l-0.047,0.125l-0.045,0.127l-0.044,0.127l-0.043,0.128l-0.041,0.128l-0.039,0.13l-0.038,0.13l-0.036,0.13l-0.035,0.131l-0.033,0.132l-0.031,0.133l-0.03,0.133l-0.028,0.133l-0.027,0.135l-0.025,0.135l-0.023,0.135l-0.022,0.136l-0.02,0.137l-0.018,0.137l-0.017,0.138l-0.015,0.138l-0.013,0.139l-0.012,0.14l-0.01,0.14l-0.008,0.14l-0.006,0.142l-0.004,0.141l-0.003,0.142l-0.001,0.143l0.001,0.143l0.003,0.142l0.004,0.141l0.006,0.142l0.008,0.14l0.01,0.14l0.012,0.14l0.013,0.139l0.015,0.138l0.017,0.138l0.018,0.137l0.02,0.137l0.022,0.136l0.023,0.135l0.025,0.135l0.027,0.135l0.028,0.133l0.03,0.133l0.031,0.133l0.033,0.132l0.035,0.131l0.036,0.13l0.038,0.13l0.039,0.13l0.041,0.128l0.043,0.128l0.044,0.127l0.045,0.127l0.047,0.125l0.049,0.125l0.049,0.125l0.052,0.123l0.053,0.123l0.054,0.122l0.056,0.121l0.057,0.121l0.059,0.12l0.06,0.118l0.061,0.119l0.063,0.117l0.064,0.116l0.066,0.116l0.067,0.115l0.068,0.113l0.07,0.113l0.07,0.112l0.073,0.112l0.073,0.11l0.075,0.109l0.076,0.109l0.078,0.107l0.078,0.107l0.08,0.105l0.081,0.105l0.083,0.103l0.083,0.103l0.085,0.101l0.086,0.101l0.087,0.099l0.089,0.099l0.089,0.097l0.091,0.096l0.092,0.095l0.093,0.094l0.094,0.093l0.095,0.092l0.096,0.091l0.097,0.089l0.099,0.089l0.099,0.087l0.101,0.086l0.101,0.085l0.103,0.083l0.103,0.083l0.105,0.081l0.105,0.08l0.107,0.078l0.107,0.078l0.109,0.076l0.109,0.075l0.11,0.073l0.112,0.073l0.112,0.07l0.113,0.07l0.113,0.068l0.115,0.067l0.116,0.066l0.116,0.064l0.117,0.063l0.119,0.061l0.118,0.06l0.12,0.059l0.121,0.057l0.121,0.056l0.122,0.054l0.123,0.053l0.123,0.052l0.125,0.049l0.125,0.049l0.125,0.047l0.127,0.045l0.127,0.044l0.128,0.043l0.128,0.041l0.13,0.039l0.13,0.038l0.13,0.036l0.131,0.035l0.132,0.033l0.133,0.031l0.133,0.03l0.133,0.028l0.135,0.027l0.135,0.025l0.135,0.023l0.136,0.022l0.137,0.02l0.137,0.018l0.138,0.017l0.138,0.015l0.139,0.013l0.14,0.012l0.14,0.01l0.14,0.008l0.142,0.006l0.141,0.004l0.142,0.003l0.143,0.001l0.143,-0.001l0.142,-0.003l0.141,-0.004l0.142,-0.006l0.14,-0.008l0.14,-0.01l0.14,-0.012l0.139,-0.013l0.138,-0.015l0.138,-0.017l0.137,-0.018l0.137,-0.02l0.136,-0.022l0.135,-0.023l0.135,-0.025l0.135,-0.027l0.133,-0.028l0.133,-0.03l0.133,-0.031l0.132,-0.033l0.131,-0.035l0.13,-0.036l0.13,-0.038l0.13,-0.039l0.128,-0.041l0.128,-0.043l0.127,-0.044l0.127,-0.045l0.125,-0.047l0.125,-0.049l0.125,-0.049l0.123,-0.052l0.123,-0.053l0.122,-0.054l0.121,-0.056l0.121,-0.057l0.12,-0.059l0.118,-0.06l0.119,-0.061l0.117,-0.063l0.116,-0.064l0.116,-0.066l0.115,-0.067l0.113,-0.068l0.113,-0.07l0.112,-0.07l0.112,-0.073l0.11,-0.073l0.109,-0.075l0.109,-0.076l0.107,-0.078l0.107,-0.078l0.105,-0.08l0.105,-0.081l0.103,-0.083l0.103,-0.083l0.101,-0.085l0.101,-0.086l0.099,-0.087l0.099,-0.089l0.097,-0.089l0.096,-0.091l0.095,-0.092l0.094,-0.093l0.093,-0.094l0.092,-0.095l0.091,-0.096l0.089,-0.097l0.089,-0.099l0.087,-0.099l0.086,-0.101l0.085,-0.101l0.083,-0.103l0.083,-0.103l0.081,-0.105l0.08,-0.105l0.078,-0.107l0.078,-0.107l0.076,-0.109l0.075,-0.109l0.073,-0.11l0.073,-0.112l0.07,-0.112l0.07,-0.113l0.068,-0.113l0.067,-0.115l0.066,-0.116l0.064,-0.116l0.063,-0.117l0.061,-0.119l0.06,-0.118l0.059,-0.12l0.057,-0.121l0.056,-0.121l0.054,-0.122l0.053,-0.123l0.052,-0.123l0.049,-0.125l0.049,-0.125l0.047,-0.125l0.045,-0.127l0.044,-0.127l0.043,-0.128l0.041,-0.128l0.039,-0.13l0.038,-0.13l0.036,-0.13l0.035,-0.131l0.033,-0.132l0.031,-0.133l0.03,-0.133l0.028,-0.133l0.027,-0.135l0.025,-0.135l0.023,-0.135l0.022,-0.136l0.02,-0.137l0.018,-0.137l0.017,-0.138l0.015,-0.138l0.013,-0.139l0.012,-0.14l0.01,-0.14l0.008,-0.14l0.006,-0.142l0.004,-0.141l0.003,-0.142l0.001,-0.143l-0.001,-0.143l-0.003,-0.142l-0.004,-0.141l-0.006,-0.142l-0.008,-0.14l-0.01,-0.14l-0.012,-0.14l-0.013,-0.139l-0.015,-0.138l-0.017,-0.138l-0.018,-0.137l-0.02,-0.137l-0.022,-0.136l-0.023,-0.135l-0.025,-0.135l-0.027,-0.135l-0.028,-0.133l-0.03,-0.133l-0.031,-0.133l-0.033,-0.132l-0.035,-0.131l-0.036,-0.13l-0.038,-0.13l-0.039,-0.13l-0.041,-0.128l-0.043,-0.128l-0.044,-0.127l-0.045,-0.127l-0.047,-0.125l-0.049,-0.125l-0.049,-0.125l-0.052,-0.123l-0.053,-0.123l-0.054,-0.122l-0.056,-0.121l-0.057,-0.121l-0.059,-0.12l-0.06,-0.118l-0.061,-0.119l-0.063,-0.117l-0.064,-0.116l-0.066,-0.116l-0.067,-0.115l-0.068,-0.113l-0.07,-0.113l-0.07,-0.112l-0.073,-0.112l-0.073,-0.11l-0.075,-0.109l-0.076,-0.109l-0.078,-0.107l-0.078,-0.107l-0.08,-0.105l-0.081,-0.105l-0.083,-0.103l-0.083,-0.103l-0.085,-0.101l-0.086,-0.101l-0.087,-0.099l-0.089,-0.099l-0.089,-0.097l-0.091,-0.096l-0.092,-0.095l-0.093,-0.094l-0.094,-0.093l-0.095,-0.092l-0.096,-0.091l-0.097,-0.089l-0.099,-0.089l-0.099,-0.087l-0.101,-0.086l-0.101,-0.085l-0.103,-0.083l-0.103,-0.083l-0.105,-0.081l-0.105,-0.08l-0.107,-0.078l-0.107,-0.078l-0.109,-0.076l-0.109,-0.075l-0.11,-0.073l-0.112,-0.073l-0.112,-0.07l-0.113,-0.07l-0.113,-0.068l-0.115,-0.067l-0.116,-0.066l-0.116,-0.064l-0.117,-0.063l-0.119,-0.061l-0.118,-0.06l-0.12,-0.059l-0.121,-0.057l-0.121,-0.056l-0.122,-0.054l-0.123,-0.053l-0.123,-0.051l-0.125,-0.05l-0.125,-0.049l-0.125,-0.047l-0.127,-0.045l-0.127,-0.044l-0.128,-0.043l-0.128,-0.041l-0.13,-0.039l-0.13,-0.038l-0.13,-0.036l-0.131,-0.035l-0.132,-0.033l-0.133,-0.031l-0.133,-0.03l-0.133,-0.028l-0.135,-0.027l-0.135,-0.025l-0.135,-0.023l-0.136,-0.022l-0.137,-0.02l-0.137,-0.018l-0.138,-0.017l-0.138,-0.015l-0.139,-0.013l-0.14,-0.012l-0.14,-0.01l-0.14,-0.008l-0.142,-0.006l-0.141,-0.004l-0.142,-0.003l-0.143,-0.001l-0.143,0.001Z"/><path d="M58.5,53.5l-37,0l18.5,-35l18.5,35Zm-32.731,-2.572l28.462,0l-14.231,-26.923l-14.231,26.923Z"/></g><path d="M50.488,12.001l0.04,0.001l0.04,0.003l0.039,0.003l0.039,0.004l0.038,0.006l0.039,0.006l0.038,0.008l0.038,0.008l0.037,0.009l0.037,0.01l0.037,0.011l0.036,0.012l0.036,0.012l0.035,0.014l0.035,0.014l0.035,0.015l0.034,0.016l0.033,0.017l0.034,0.017l0.032,0.019l0.033,0.019l0.031,0.02l0.032,0.02l0.03,0.021l0.03,0.022l0.03,0.023l0.029,0.024l0.029,0.024l0.027,0.024l0.028,0.026l0.026,0.026l0.026,0.026l0.026,0.028l0.024,0.027l0.024,0.029l0.024,0.029l0.023,0.03l0.022,0.03l0.021,0.03l0.02,0.032l0.02,0.031l0.019,0.033l0.019,0.032l0.017,0.034l0.017,0.033l0.016,0.034l0.015,0.035l0.014,0.035l0.014,0.035l0.012,0.036l0.012,0.036l0.011,0.037l0.01,0.037l0.009,0.037l0.008,0.038l0.008,0.038l0.006,0.039l0.006,0.038l0.004,0.039l0.003,0.039l0.003,0.04l0.001,0.04l0.001,0.04l0,36.896l-0.001,0.04l-0.001,0.04l-0.003,0.04l-0.003,0.039l-0.004,0.039l-0.006,0.038l-0.006,0.039l-0.008,0.038l-0.008,0.038l-0.009,0.037l-0.01,0.037l-0.011,0.037l-0.012,0.036l-0.012,0.036l-0.014,0.035l-0.014,0.035l-0.015,0.035l-0.016,0.034l-0.017,0.033l-0.017,0.034l-0.019,0.032l-0.019,0.033l-0.02,0.031l-0.02,0.032l-0.021,0.03l-0.022,0.03l-0.023,0.03l-0.024,0.029l-0.024,0.029l-0.024,0.027l-0.026,0.028l-0.026,0.026l-0.026,0.026l-0.028,0.026l-0.027,0.024l-0.029,0.024l-0.029,0.024l-0.03,0.023l-0.03,0.022l-0.03,0.021l-0.032,0.02l-0.031,0.02l-0.033,0.019l-0.032,0.019l-0.034,0.017l-0.033,0.017l-0.034,0.016l-0.035,0.015l-0.035,0.014l-0.035,0.014l-0.036,0.012l-0.036,0.012l-0.037,0.011l-0.037,0.01l-0.037,0.009l-0.038,0.008l-0.038,0.008l-0.039,0.006l-0.038,0.006l-0.039,0.004l-0.039,0.003l-0.04,0.003l-0.04,0.001l-0.04,0.001l-36.896,0l-0.04,-0.001l-0.04,-0.001l-0.04,-0.003l-0.039,-0.003l-0.039,-0.004l-0.038,-0.006l-0.039,-0.006l-0.038,-0.008l-0.038,-0.008l-0.037,-0.009l-0.037,-0.01l-0.037,-0.011l-0.036,-0.012l-0.036,-0.012l-0.035,-0.014l-0.035,-0.014l-0.035,-0.015l-0.034,-0.016l-0.033,-0.017l-0.034,-0.017l-0.032,-0.019l-0.033,-0.019l-0.031,-0.02l-0.032,-0.02l-0.03,-0.021l-0.03,-0.022l-0.03,-0.023l-0.029,-0.024l-0.029,-0.024l-0.027,-0.024l-0.028,-0.026l-0.026,-0.026l-0.026,-0.026l-0.026,-0.028l-0.024,-0.027l-0.024,-0.029l-0.024,-0.029l-0.023,-0.03l-0.022,-0.03l-0.021,-0.03l-0.02,-0.032l-0.02,-0.031l-0.019,-0.033l-0.019,-0.032l-0.017,-0.034l-0.017,-0.033l-0.016,-0.034l-0.015,-0.035l-0.014,-0.035l-0.014,-0.035l-0.012,-0.036l-0.012,-0.036l-0.011,-0.037l-0.01,-0.037l-0.009,-0.037l-0.008,-0.038l-0.008,-0.038l-0.006,-0.039l-0.006,-0.038l-0.004,-0.039l-0.003,-0.039l-0.003,-0.04l-0.001,-0.04l-0.001,-0.04l0,-36.896l0.001,-0.04l0.001,-0.04l0.003,-0.04l0.003,-0.039l0.004,-0.039l0.006,-0.038l0.006,-0.039l0.008,-0.038l0.008,-0.038l0.009,-0.037l0.01,-0.037l0.011,-0.037l0.012,-0.036l0.012,-0.036l0.014,-0.035l0.014,-0.035l0.015,-0.035l0.016,-0.034l0.017,-0.033l0.017,-0.034l0.019,-0.032l0.019,-0.033l0.02,-0.031l0.02,-0.032l0.021,-0.03l0.022,-0.03l0.023,-0.03l0.024,-0.029l0.024,-0.029l0.024,-0.027l0.026,-0.028l0.026,-0.026l0.026,-0.026l0.028,-0.026l0.027,-0.024l0.029,-0.024l0.029,-0.024l0.03,-0.023l0.03,-0.022l0.03,-0.021l0.032,-0.02l0.031,-0.02l0.033,-0.019l0.032,-0.019l0.034,-0.017l0.033,-0.017l0.034,-0.016l0.035,-0.015l0.035,-0.014l0.035,-0.014l0.036,-0.012l0.036,-0.012l0.037,-0.011l0.037,-0.01l0.037,-0.009l0.038,-0.008l0.038,-0.008l0.039,-0.006l0.038,-0.006l0.039,-0.004l0.039,-0.003l0.04,-0.003l0.04,-0.001l0.04,-0.001l36.896,0l0.04,0.001Zm-35.988,2.499l0,35l35,0l0,-35l-35,0Z"/></svg>