<?xml version="1.0" encoding="UTF-8" standalone="no"?><!DOCTYPE svg PUBLIC "-//W3C//DTD SVG 1.1//EN" "http://www.w3.org/Graphics/SVG/1.1/DTD/svg11.dtd"><svg width="100%" height="100%" viewBox="0 0 64 64" version="1.1" xmlns="http://www.w3.org/2000/svg" xmlns:xlink="http://www.w3.org/1999/xlink" xml:space="preserve" xmlns:serif="http://www.serif.com/" style="fill-rule:evenodd;clip-rule:evenodd;stroke-linecap:round;stroke-miterlimit:5;"><path d="M10.876,46l-1.354,0c-3.048,0 -5.522,-2.159 -5.522,-4.819l0,-18.362c0,-2.66 2.474,-4.819 5.522,-4.819l1.354,0" style="fill:none;stroke:#000;stroke-width:2.5px;"/><path d="M53.124,46l1.354,0c3.048,0 5.522,-2.159 5.522,-4.819l0,-18.362c0,-2.66 -2.474,-4.819 -5.522,-4.819l-1.354,0" style="fill:none;stroke:#000;stroke-width:2.5px;"/><path d="M16.103,28.001l0.103,0.004l0.102,0.007l0.101,0.009l0.1,0.011l0.1,0.014l0.099,0.017l0.098,0.018l0.097,0.022l0.096,0.023l0.096,0.026l0.094,0.028l0.093,0.03l0.093,0.033l0.091,0.035l0.09,0.037l0.09,0.039l0.088,0.041l0.086,0.043l0.086,0.045l0.084,0.047l0.083,0.049l0.082,0.052l0.081,0.053l0.079,0.054l0.078,0.057l0.076,0.059l0.075,0.06l0.073,0.062l0.072,0.064l0.07,0.065l0.069,0.067l0.067,0.069l0.065,0.07l0.064,0.072l0.062,0.073l0.06,0.075l0.059,0.076l0.057,0.078l0.054,0.079l0.053,0.081l0.052,0.082l0.049,0.083l0.047,0.084l0.045,0.086l0.043,0.086l0.041,0.088l0.039,0.09l0.037,0.09l0.035,0.091l0.033,0.093l0.03,0.093l0.028,0.094l0.026,0.096l0.023,0.096l0.022,0.097l0.018,0.098l0.017,0.099l0.014,0.1l0.011,0.1l0.009,0.101l0.007,0.102l0.004,0.103l0.001,0.103l-0.001,0.103l-0.004,0.103l-0.007,0.102l-0.009,0.101l-0.011,0.1l-0.014,0.1l-0.017,0.099l-0.018,0.098l-0.022,0.097l-0.023,0.096l-0.026,0.096l-0.028,0.094l-0.03,0.093l-0.033,0.093l-0.035,0.091l-0.037,0.09l-0.039,0.09l-0.041,0.088l-0.043,0.086l-0.045,0.086l-0.047,0.084l-0.049,0.083l-0.052,0.082l-0.053,0.081l-0.054,0.079l-0.057,0.078l-0.059,0.076l-0.06,0.075l-0.062,0.073l-0.064,0.072l-0.065,0.07l-0.067,0.069l-0.069,0.067l-0.07,0.065l-0.072,0.064l-0.073,0.062l-0.075,0.06l-0.076,0.059l-0.078,0.057l-0.079,0.054l-0.081,0.053l-0.082,0.052l-0.083,0.049l-0.084,0.047l-0.086,0.045l-0.086,0.043l-0.088,0.041l-0.09,0.039l-0.09,0.037l-0.091,0.035l-0.093,0.033l-0.093,0.03l-0.094,0.028l-0.096,0.026l-0.096,0.023l-0.097,0.022l-0.098,0.018l-0.099,0.017l-0.1,0.014l-0.1,0.011l-0.101,0.009l-0.102,0.007l-0.103,0.004l-0.103,0.001l-0.103,-0.001l-0.103,-0.004l-0.102,-0.007l-0.101,-0.009l-0.1,-0.011l-0.1,-0.014l-0.099,-0.017l-0.098,-0.018l-0.097,-0.022l-0.096,-0.023l-0.096,-0.026l-0.094,-0.028l-0.093,-0.03l-0.093,-0.033l-0.091,-0.035l-0.09,-0.037l-0.09,-0.039l-0.088,-0.041l-0.086,-0.043l-0.086,-0.045l-0.084,-0.047l-0.083,-0.049l-0.082,-0.052l-0.081,-0.053l-0.079,-0.054l-0.078,-0.057l-0.076,-0.059l-0.075,-0.06l-0.073,-0.062l-0.072,-0.064l-0.07,-0.065l-0.069,-0.067l-0.067,-0.069l-0.065,-0.07l-0.064,-0.072l-0.062,-0.073l-0.06,-0.075l-0.059,-0.076l-0.057,-0.078l-0.054,-0.079l-0.053,-0.081l-0.052,-0.082l-0.049,-0.083l-0.047,-0.084l-0.045,-0.086l-0.043,-0.086l-0.041,-0.088l-0.039,-0.09l-0.037,-0.09l-0.035,-0.091l-0.033,-0.093l-0.03,-0.093l-0.028,-0.094l-0.026,-0.096l-0.023,-0.096l-0.022,-0.097l-0.018,-0.098l-0.017,-0.099l-0.014,-0.1l-0.011,-0.1l-0.009,-0.101l-0.007,-0.102l-0.004,-0.103l-0.001,-0.103l0.001,-0.103l0.004,-0.103l0.007,-0.102l0.009,-0.101l0.011,-0.1l0.014,-0.1l0.017,-0.099l0.018,-0.098l0.022,-0.097l0.023,-0.096l0.026,-0.096l0.028,-0.094l0.03,-0.093l0.033,-0.093l0.035,-0.091l0.037,-0.09l0.039,-0.09l0.041,-0.088l0.043,-0.086l0.045,-0.086l0.047,-0.084l0.049,-0.083l0.052,-0.082l0.053,-0.081l0.054,-0.079l0.057,-0.078l0.059,-0.076l0.06,-0.075l0.062,-0.073l0.064,-0.072l0.065,-0.07l0.067,-0.069l0.069,-0.067l0.07,-0.065l0.072,-0.064l0.073,-0.062l0.075,-0.06l0.076,-0.059l0.078,-0.057l0.079,-0.054l0.081,-0.053l0.082,-0.052l0.083,-0.049l0.084,-0.047l0.086,-0.045l0.086,-0.043l0.088,-0.041l0.09,-0.039l0.09,-0.037l0.091,-0.035l0.093,-0.033l0.093,-0.03l0.094,-0.028l0.096,-0.026l0.096,-0.023l0.097,-0.022l0.098,-0.018l0.099,-0.017l0.1,-0.014l0.1,-0.011l0.101,-0.009l0.102,-0.007l0.103,-0.004l0.103,-0.001l0.103,0.001Zm-0.143,2.5l-0.039,0.001l-0.039,0.003l-0.038,0.003l-0.038,0.004l-0.037,0.006l-0.037,0.006l-0.036,0.007l-0.036,0.008l-0.036,0.008l-0.035,0.01l-0.035,0.01l-0.034,0.011l-0.035,0.012l-0.033,0.013l-0.034,0.014l-0.033,0.014l-0.033,0.016l-0.032,0.016l-0.032,0.017l-0.032,0.017l-0.031,0.019l-0.031,0.019l-0.03,0.02l-0.03,0.021l-0.029,0.021l-0.029,0.022l-0.028,0.023l-0.028,0.024l-0.027,0.024l-0.027,0.025l-0.026,0.025l-0.025,0.026l-0.025,0.027l-0.024,0.027l-0.024,0.028l-0.023,0.028l-0.022,0.029l-0.021,0.029l-0.021,0.03l-0.02,0.03l-0.019,0.031l-0.019,0.031l-0.017,0.032l-0.017,0.032l-0.016,0.032l-0.016,0.033l-0.014,0.033l-0.014,0.034l-0.013,0.033l-0.012,0.035l-0.011,0.034l-0.01,0.035l-0.01,0.035l-0.008,0.036l-0.008,0.036l-0.007,0.036l-0.006,0.037l-0.006,0.037l-0.004,0.038l-0.003,0.038l-0.003,0.039l-0.001,0.039l-0.001,0.04l0.001,0.04l0.001,0.039l0.003,0.039l0.003,0.038l0.004,0.038l0.006,0.037l0.006,0.037l0.007,0.036l0.008,0.036l0.008,0.036l0.01,0.035l0.01,0.035l0.011,0.034l0.012,0.035l0.013,0.033l0.014,0.034l0.014,0.033l0.016,0.033l0.016,0.032l0.017,0.032l0.017,0.032l0.019,0.031l0.019,0.031l0.02,0.03l0.021,0.03l0.021,0.029l0.022,0.029l0.023,0.028l0.024,0.028l0.024,0.027l0.025,0.027l0.025,0.026l0.026,0.025l0.027,0.025l0.027,0.024l0.028,0.024l0.028,0.023l0.029,0.022l0.029,0.021l0.03,0.021l0.03,0.02l0.031,0.019l0.031,0.019l0.032,0.017l0.032,0.017l0.032,0.016l0.033,0.016l0.033,0.014l0.034,0.014l0.033,0.013l0.035,0.012l0.034,0.011l0.035,0.01l0.035,0.01l0.036,0.008l0.036,0.008l0.036,0.007l0.037,0.006l0.037,0.006l0.038,0.004l0.038,0.003l0.039,0.003l0.039,0.001l0.04,0.001l0.04,-0.001l0.039,-0.001l0.039,-0.003l0.038,-0.003l0.038,-0.004l0.037,-0.006l0.037,-0.006l0.036,-0.007l0.036,-0.008l0.036,-0.008l0.035,-0.01l0.035,-0.01l0.034,-0.011l0.035,-0.012l0.033,-0.013l0.034,-0.014l0.033,-0.014l0.033,-0.016l0.032,-0.016l0.032,-0.017l0.032,-0.017l0.031,-0.019l0.031,-0.019l0.03,-0.02l0.03,-0.021l0.029,-0.021l0.029,-0.022l0.028,-0.023l0.028,-0.024l0.027,-0.024l0.027,-0.025l0.026,-0.025l0.025,-0.026l0.025,-0.027l0.024,-0.027l0.024,-0.028l0.023,-0.028l0.022,-0.029l0.021,-0.029l0.021,-0.03l0.02,-0.03l0.019,-0.031l0.019,-0.031l0.017,-0.032l0.017,-0.032l0.016,-0.032l0.015,-0.033l0.015,-0.033l0.014,-0.034l0.013,-0.033l0.012,-0.035l0.011,-0.034l0.01,-0.035l0.01,-0.035l0.008,-0.036l0.008,-0.036l0.007,-0.036l0.006,-0.037l0.006,-0.037l0.004,-0.038l0.003,-0.038l0.003,-0.039l0.001,-0.039l0.001,-0.04l-0.001,-0.04l-0.001,-0.039l-0.003,-0.039l-0.003,-0.038l-0.004,-0.038l-0.006,-0.037l-0.006,-0.037l-0.007,-0.036l-0.008,-0.036l-0.008,-0.036l-0.01,-0.035l-0.01,-0.035l-0.011,-0.034l-0.012,-0.035l-0.013,-0.033l-0.014,-0.034l-0.015,-0.033l-0.015,-0.033l-0.016,-0.032l-0.017,-0.032l-0.017,-0.032l-0.019,-0.031l-0.019,-0.031l-0.02,-0.03l-0.021,-0.03l-0.021,-0.029l-0.022,-0.029l-0.023,-0.028l-0.024,-0.028l-0.024,-0.027l-0.025,-0.027l-0.025,-0.026l-0.026,-0.025l-0.027,-0.025l-0.027,-0.024l-0.028,-0.024l-0.028,-0.023l-0.029,-0.022l-0.029,-0.021l-0.03,-0.021l-0.03,-0.02l-0.031,-0.019l-0.031,-0.019l-0.032,-0.017l-0.032,-0.017l-0.032,-0.016l-0.033,-0.016l-0.033,-0.014l-0.034,-0.014l-0.033,-0.013l-0.035,-0.012l-0.034,-0.011l-0.035,-0.01l-0.035,-0.01l-0.036,-0.008l-0.036,-0.008l-0.036,-0.007l-0.037,-0.006l-0.037,-0.006l-0.038,-0.004l-0.038,-0.003l-0.039,-0.003l-0.039,-0.001l-0.04,-0.001l-0.04,0.001Z"/><path d="M32.103,28.001l0.103,0.004l0.102,0.007l0.101,0.009l0.1,0.011l0.1,0.014l0.099,0.017l0.098,0.018l0.097,0.022l0.096,0.023l0.096,0.026l0.094,0.028l0.093,0.03l0.093,0.033l0.091,0.035l0.09,0.037l0.09,0.039l0.088,0.041l0.086,0.043l0.086,0.045l0.084,0.047l0.083,0.049l0.082,0.052l0.081,0.053l0.079,0.054l0.078,0.057l0.076,0.059l0.075,0.06l0.073,0.062l0.072,0.064l0.07,0.065l0.069,0.067l0.067,0.069l0.065,0.07l0.064,0.072l0.062,0.073l0.06,0.075l0.059,0.076l0.057,0.078l0.054,0.079l0.053,0.081l0.052,0.082l0.049,0.083l0.047,0.084l0.045,0.086l0.043,0.086l0.041,0.088l0.039,0.09l0.037,0.09l0.035,0.091l0.033,0.093l0.03,0.093l0.028,0.094l0.026,0.096l0.023,0.096l0.022,0.097l0.018,0.098l0.017,0.099l0.014,0.1l0.011,0.1l0.009,0.101l0.007,0.102l0.004,0.103l0.001,0.103l-0.001,0.103l-0.004,0.103l-0.007,0.102l-0.009,0.101l-0.011,0.1l-0.014,0.1l-0.017,0.099l-0.018,0.098l-0.022,0.097l-0.023,0.096l-0.026,0.096l-0.028,0.094l-0.03,0.093l-0.033,0.093l-0.035,0.091l-0.037,0.09l-0.039,0.09l-0.041,0.088l-0.043,0.086l-0.045,0.086l-0.047,0.084l-0.049,0.083l-0.052,0.082l-0.053,0.081l-0.054,0.079l-0.057,0.078l-0.059,0.076l-0.06,0.075l-0.062,0.073l-0.064,0.072l-0.065,0.07l-0.067,0.069l-0.069,0.067l-0.07,0.065l-0.072,0.064l-0.073,0.062l-0.075,0.06l-0.076,0.059l-0.078,0.057l-0.079,0.054l-0.081,0.053l-0.082,0.052l-0.083,0.049l-0.084,0.047l-0.086,0.045l-0.086,0.043l-0.088,0.041l-0.09,0.039l-0.09,0.037l-0.091,0.035l-0.093,0.033l-0.093,0.03l-0.094,0.028l-0.096,0.026l-0.096,0.023l-0.097,0.022l-0.098,0.018l-0.099,0.017l-0.1,0.014l-0.1,0.011l-0.101,0.009l-0.102,0.007l-0.103,0.004l-0.103,0.001l-0.103,-0.001l-0.103,-0.004l-0.102,-0.007l-0.101,-0.009l-0.1,-0.011l-0.1,-0.014l-0.099,-0.017l-0.098,-0.018l-0.097,-0.022l-0.096,-0.023l-0.096,-0.026l-0.094,-0.028l-0.093,-0.03l-0.093,-0.033l-0.091,-0.035l-0.09,-0.037l-0.09,-0.039l-0.088,-0.041l-0.086,-0.043l-0.086,-0.045l-0.084,-0.047l-0.083,-0.049l-0.082,-0.052l-0.081,-0.053l-0.079,-0.054l-0.078,-0.057l-0.076,-0.059l-0.075,-0.06l-0.073,-0.062l-0.072,-0.064l-0.07,-0.065l-0.069,-0.067l-0.067,-0.069l-0.065,-0.07l-0.064,-0.072l-0.062,-0.073l-0.06,-0.075l-0.059,-0.076l-0.057,-0.078l-0.054,-0.079l-0.053,-0.081l-0.052,-0.082l-0.049,-0.083l-0.047,-0.084l-0.045,-0.086l-0.043,-0.086l-0.041,-0.088l-0.039,-0.09l-0.037,-0.09l-0.035,-0.091l-0.033,-0.093l-0.03,-0.093l-0.028,-0.094l-0.026,-0.096l-0.023,-0.096l-0.022,-0.097l-0.018,-0.098l-0.017,-0.099l-0.014,-0.1l-0.011,-0.1l-0.009,-0.101l-0.007,-0.102l-0.004,-0.103l-0.001,-0.103l0.001,-0.103l0.004,-0.103l0.007,-0.102l0.009,-0.101l0.011,-0.1l0.014,-0.1l0.017,-0.099l0.018,-0.098l0.022,-0.097l0.023,-0.096l0.026,-0.096l0.028,-0.094l0.03,-0.093l0.033,-0.093l0.035,-0.091l0.037,-0.09l0.039,-0.09l0.041,-0.088l0.043,-0.086l0.045,-0.086l0.047,-0.084l0.049,-0.083l0.052,-0.082l0.053,-0.081l0.054,-0.079l0.057,-0.078l0.059,-0.076l0.06,-0.075l0.062,-0.073l0.064,-0.072l0.065,-0.07l0.067,-0.069l0.069,-0.067l0.07,-0.065l0.072,-0.064l0.073,-0.062l0.075,-0.06l0.076,-0.059l0.078,-0.057l0.079,-0.054l0.081,-0.053l0.082,-0.052l0.083,-0.049l0.084,-0.047l0.086,-0.045l0.086,-0.043l0.088,-0.041l0.09,-0.039l0.09,-0.037l0.091,-0.035l0.093,-0.033l0.093,-0.03l0.094,-0.028l0.096,-0.026l0.096,-0.023l0.097,-0.022l0.098,-0.018l0.099,-0.017l0.1,-0.014l0.1,-0.011l0.101,-0.009l0.102,-0.007l0.103,-0.004l0.103,-0.001l0.103,0.001Zm-0.143,2.5l-0.039,0.001l-0.039,0.003l-0.038,0.003l-0.038,0.004l-0.037,0.006l-0.037,0.006l-0.036,0.007l-0.036,0.008l-0.036,0.008l-0.035,0.01l-0.035,0.01l-0.034,0.011l-0.035,0.012l-0.033,0.013l-0.034,0.014l-0.033,0.014l-0.033,0.016l-0.032,0.016l-0.032,0.017l-0.032,0.017l-0.031,0.019l-0.031,0.019l-0.03,0.02l-0.03,0.021l-0.029,0.021l-0.029,0.022l-0.028,0.023l-0.028,0.024l-0.027,0.024l-0.027,0.025l-0.026,0.025l-0.025,0.026l-0.025,0.027l-0.024,0.027l-0.024,0.028l-0.023,0.028l-0.022,0.029l-0.021,0.029l-0.021,0.03l-0.02,0.03l-0.019,0.031l-0.019,0.031l-0.017,0.032l-0.017,0.032l-0.016,0.032l-0.016,0.033l-0.014,0.033l-0.014,0.034l-0.013,0.033l-0.012,0.035l-0.011,0.034l-0.01,0.035l-0.01,0.035l-0.008,0.036l-0.008,0.036l-0.007,0.036l-0.006,0.037l-0.006,0.037l-0.004,0.038l-0.003,0.038l-0.003,0.039l-0.001,0.039l-0.001,0.04l0.001,0.04l0.001,0.039l0.003,0.039l0.003,0.038l0.004,0.038l0.006,0.037l0.006,0.037l0.007,0.036l0.008,0.036l0.008,0.036l0.01,0.035l0.01,0.035l0.011,0.034l0.012,0.035l0.013,0.033l0.014,0.034l0.014,0.033l0.016,0.033l0.016,0.032l0.017,0.032l0.017,0.032l0.019,0.031l0.019,0.031l0.02,0.03l0.021,0.03l0.021,0.029l0.022,0.029l0.023,0.028l0.024,0.028l0.024,0.027l0.025,0.027l0.025,0.026l0.026,0.025l0.027,0.025l0.027,0.024l0.028,0.024l0.028,0.023l0.029,0.022l0.029,0.021l0.03,0.021l0.03,0.02l0.031,0.019l0.031,0.019l0.032,0.017l0.032,0.017l0.032,0.016l0.033,0.016l0.033,0.014l0.034,0.014l0.033,0.013l0.035,0.012l0.034,0.011l0.035,0.01l0.035,0.01l0.036,0.008l0.036,0.008l0.036,0.007l0.037,0.006l0.037,0.006l0.038,0.004l0.038,0.003l0.039,0.003l0.039,0.001l0.04,0.001l0.04,-0.001l0.039,-0.001l0.039,-0.003l0.038,-0.003l0.038,-0.004l0.037,-0.006l0.037,-0.006l0.036,-0.007l0.036,-0.008l0.036,-0.008l0.035,-0.01l0.035,-0.01l0.034,-0.011l0.035,-0.012l0.033,-0.013l0.034,-0.014l0.033,-0.014l0.033,-0.016l0.032,-0.016l0.032,-0.017l0.032,-0.017l0.031,-0.019l0.031,-0.019l0.03,-0.02l0.03,-0.021l0.029,-0.021l0.029,-0.022l0.028,-0.023l0.028,-0.024l0.027,-0.024l0.027,-0.025l0.026,-0.025l0.025,-0.026l0.025,-0.027l0.024,-0.027l0.024,-0.028l0.023,-0.028l0.022,-0.029l0.021,-0.029l0.021,-0.03l0.02,-0.03l0.019,-0.031l0.019,-0.031l0.017,-0.032l0.017,-0.032l0.016,-0.032l0.016,-0.033l0.014,-0.033l0.014,-0.034l0.013,-0.033l0.012,-0.035l0.011,-0.034l0.01,-0.035l0.01,-0.035l0.008,-0.036l0.008,-0.036l0.007,-0.036l0.006,-0.037l0.006,-0.037l0.004,-0.038l0.003,-0.038l0.003,-0.039l0.001,-0.039l0.001,-0.04l-0.001,-0.04l-0.001,-0.039l-0.003,-0.039l-0.003,-0.038l-0.004,-0.038l-0.006,-0.037l-0.006,-0.037l-0.007,-0.036l-0.008,-0.036l-0.008,-0.036l-0.01,-0.035l-0.01,-0.035l-0.011,-0.034l-0.012,-0.035l-0.013,-0.033l-0.014,-0.034l-0.014,-0.033l-0.016,-0.033l-0.016,-0.032l-0.017,-0.032l-0.017,-0.032l-0.019,-0.031l-0.019,-0.031l-0.02,-0.03l-0.021,-0.03l-0.021,-0.029l-0.022,-0.029l-0.023,-0.028l-0.024,-0.028l-0.024,-0.027l-0.025,-0.027l-0.025,-0.026l-0.026,-0.025l-0.027,-0.025l-0.027,-0.024l-0.028,-0.024l-0.028,-0.023l-0.029,-0.022l-0.029,-0.021l-0.03,-0.021l-0.03,-0.02l-0.031,-0.019l-0.031,-0.019l-0.032,-0.017l-0.032,-0.017l-0.032,-0.016l-0.033,-0.016l-0.033,-0.014l-0.034,-0.014l-0.033,-0.013l-0.035,-0.012l-0.034,-0.011l-0.035,-0.01l-0.035,-0.01l-0.036,-0.008l-0.036,-0.008l-0.036,-0.007l-0.037,-0.006l-0.037,-0.006l-0.038,-0.004l-0.038,-0.003l-0.039,-0.003l-0.039,-0.001l-0.04,-0.001l-0.04,0.001Z"/><path d="M48.103,28.001l0.103,0.004l0.102,0.007l0.101,0.009l0.1,0.011l0.1,0.014l0.099,0.017l0.098,0.018l0.097,0.022l0.096,0.023l0.096,0.026l0.094,0.028l0.093,0.03l0.093,0.033l0.091,0.035l0.09,0.037l0.09,0.039l0.088,0.041l0.086,0.043l0.086,0.045l0.084,0.047l0.083,0.049l0.082,0.052l0.081,0.053l0.079,0.054l0.078,0.057l0.076,0.059l0.075,0.06l0.073,0.062l0.072,0.064l0.07,0.065l0.069,0.067l0.067,0.069l0.065,0.07l0.064,0.072l0.062,0.073l0.06,0.075l0.059,0.076l0.057,0.078l0.054,0.079l0.053,0.081l0.052,0.082l0.049,0.083l0.047,0.084l0.045,0.086l0.043,0.086l0.041,0.088l0.039,0.09l0.037,0.09l0.035,0.091l0.033,0.093l0.03,0.093l0.028,0.094l0.026,0.096l0.023,0.096l0.022,0.097l0.018,0.098l0.017,0.099l0.014,0.1l0.011,0.1l0.009,0.101l0.007,0.102l0.004,0.103l0.001,0.103l-0.001,0.103l-0.004,0.103l-0.007,0.102l-0.009,0.101l-0.011,0.1l-0.014,0.1l-0.017,0.099l-0.018,0.098l-0.022,0.097l-0.023,0.096l-0.026,0.096l-0.028,0.094l-0.03,0.093l-0.033,0.093l-0.035,0.091l-0.037,0.09l-0.039,0.09l-0.041,0.088l-0.043,0.086l-0.045,0.086l-0.047,0.084l-0.049,0.083l-0.052,0.082l-0.053,0.081l-0.054,0.079l-0.057,0.078l-0.059,0.076l-0.06,0.075l-0.062,0.073l-0.064,0.072l-0.065,0.07l-0.067,0.069l-0.069,0.067l-0.07,0.065l-0.072,0.064l-0.073,0.062l-0.075,0.06l-0.076,0.059l-0.078,0.057l-0.079,0.054l-0.081,0.053l-0.082,0.052l-0.083,0.049l-0.084,0.047l-0.086,0.045l-0.086,0.043l-0.088,0.041l-0.09,0.039l-0.09,0.037l-0.091,0.035l-0.093,0.033l-0.093,0.03l-0.094,0.028l-0.096,0.026l-0.096,0.023l-0.097,0.022l-0.098,0.018l-0.099,0.017l-0.1,0.014l-0.1,0.011l-0.101,0.009l-0.102,0.007l-0.103,0.004l-0.103,0.001l-0.103,-0.001l-0.103,-0.004l-0.102,-0.007l-0.101,-0.009l-0.1,-0.011l-0.1,-0.014l-0.099,-0.017l-0.098,-0.018l-0.097,-0.022l-0.096,-0.023l-0.096,-0.026l-0.094,-0.028l-0.093,-0.03l-0.093,-0.033l-0.091,-0.035l-0.09,-0.037l-0.09,-0.039l-0.088,-0.041l-0.086,-0.043l-0.086,-0.045l-0.084,-0.047l-0.083,-0.049l-0.082,-0.052l-0.081,-0.053l-0.079,-0.054l-0.078,-0.057l-0.076,-0.059l-0.075,-0.06l-0.073,-0.062l-0.072,-0.064l-0.07,-0.065l-0.069,-0.067l-0.067,-0.069l-0.065,-0.07l-0.064,-0.072l-0.062,-0.073l-0.06,-0.075l-0.059,-0.076l-0.057,-0.078l-0.054,-0.079l-0.053,-0.081l-0.052,-0.082l-0.049,-0.083l-0.047,-0.084l-0.045,-0.086l-0.043,-0.086l-0.041,-0.088l-0.039,-0.09l-0.037,-0.09l-0.035,-0.091l-0.033,-0.093l-0.03,-0.093l-0.028,-0.094l-0.026,-0.096l-0.023,-0.096l-0.022,-0.097l-0.018,-0.098l-0.017,-0.099l-0.014,-0.1l-0.011,-0.1l-0.009,-0.101l-0.007,-0.102l-0.004,-0.103l-0.001,-0.103l0.001,-0.103l0.004,-0.103l0.007,-0.102l0.009,-0.101l0.011,-0.1l0.014,-0.1l0.017,-0.099l0.018,-0.098l0.022,-0.097l0.023,-0.096l0.026,-0.096l0.028,-0.094l0.03,-0.093l0.033,-0.093l0.035,-0.091l0.037,-0.09l0.039,-0.09l0.041,-0.088l0.043,-0.086l0.045,-0.086l0.047,-0.084l0.049,-0.083l0.052,-0.082l0.053,-0.081l0.054,-0.079l0.057,-0.078l0.059,-0.076l0.06,-0.075l0.062,-0.073l0.064,-0.072l0.065,-0.07l0.067,-0.069l0.069,-0.067l0.07,-0.065l0.072,-0.064l0.073,-0.062l0.075,-0.06l0.076,-0.059l0.078,-0.057l0.079,-0.054l0.081,-0.053l0.082,-0.052l0.083,-0.049l0.084,-0.047l0.086,-0.045l0.086,-0.043l0.088,-0.041l0.09,-0.039l0.09,-0.037l0.091,-0.035l0.093,-0.033l0.093,-0.03l0.094,-0.028l0.096,-0.026l0.096,-0.023l0.097,-0.022l0.098,-0.018l0.099,-0.017l0.1,-0.014l0.1,-0.011l0.101,-0.009l0.102,-0.007l0.103,-0.004l0.103,-0.001l0.103,0.001Zm-0.143,2.5l-0.039,0.001l-0.039,0.003l-0.038,0.003l-0.038,0.004l-0.037,0.006l-0.037,0.006l-0.036,0.007l-0.036,0.008l-0.036,0.008l-0.035,0.01l-0.035,0.01l-0.034,0.011l-0.035,0.012l-0.033,0.013l-0.034,0.014l-0.033,0.014l-0.033,0.016l-0.032,0.016l-0.032,0.017l-0.032,0.017l-0.031,0.019l-0.031,0.019l-0.03,0.02l-0.03,0.021l-0.029,0.021l-0.029,0.022l-0.028,0.023l-0.028,0.024l-0.027,0.024l-0.027,0.025l-0.026,0.025l-0.025,0.026l-0.025,0.027l-0.024,0.027l-0.024,0.028l-0.023,0.028l-0.022,0.029l-0.021,0.029l-0.021,0.03l-0.02,0.03l-0.019,0.031l-0.019,0.031l-0.017,0.032l-0.017,0.032l-0.016,0.032l-0.016,0.033l-0.014,0.033l-0.014,0.034l-0.013,0.033l-0.012,0.035l-0.011,0.034l-0.01,0.035l-0.01,0.035l-0.008,0.036l-0.008,0.036l-0.007,0.036l-0.006,0.037l-0.006,0.037l-0.004,0.038l-0.003,0.038l-0.003,0.039l-0.001,0.039l-0.001,0.04l0.001,0.04l0.001,0.039l0.003,0.039l0.003,0.038l0.004,0.038l0.006,0.037l0.006,0.037l0.007,0.036l0.008,0.036l0.008,0.036l0.01,0.035l0.01,0.035l0.011,0.034l0.012,0.035l0.013,0.033l0.014,0.034l0.014,0.033l0.016,0.033l0.016,0.032l0.017,0.032l0.017,0.032l0.019,0.031l0.019,0.031l0.02,0.03l0.021,0.03l0.021,0.029l0.022,0.029l0.023,0.028l0.024,0.028l0.024,0.027l0.025,0.027l0.025,0.026l0.026,0.025l0.027,0.025l0.027,0.024l0.028,0.024l0.028,0.023l0.029,0.022l0.029,0.021l0.03,0.021l0.03,0.02l0.031,0.019l0.031,0.019l0.032,0.017l0.032,0.017l0.032,0.016l0.033,0.016l0.033,0.014l0.034,0.014l0.033,0.013l0.035,0.012l0.034,0.011l0.035,0.01l0.035,0.01l0.036,0.008l0.036,0.008l0.036,0.007l0.037,0.006l0.037,0.006l0.038,0.004l0.038,0.003l0.039,0.003l0.039,0.001l0.04,0.001l0.04,-0.001l0.039,-0.001l0.039,-0.003l0.038,-0.003l0.038,-0.004l0.037,-0.006l0.037,-0.006l0.036,-0.007l0.036,-0.008l0.036,-0.008l0.035,-0.01l0.035,-0.01l0.034,-0.011l0.035,-0.012l0.033,-0.013l0.034,-0.014l0.033,-0.014l0.033,-0.016l0.032,-0.016l0.032,-0.017l0.032,-0.017l0.031,-0.019l0.031,-0.019l0.03,-0.02l0.03,-0.021l0.029,-0.021l0.029,-0.022l0.028,-0.023l0.028,-0.024l0.027,-0.024l0.027,-0.025l0.026,-0.025l0.025,-0.026l0.025,-0.027l0.024,-0.027l0.024,-0.028l0.023,-0.028l0.022,-0.029l0.021,-0.029l0.021,-0.03l0.02,-0.03l0.019,-0.031l0.019,-0.031l0.017,-0.032l0.017,-0.032l0.016,-0.032l0.016,-0.033l0.014,-0.033l0.014,-0.034l0.013,-0.033l0.012,-0.035l0.011,-0.034l0.01,-0.035l0.01,-0.035l0.008,-0.036l0.008,-0.036l0.007,-0.036l0.006,-0.037l0.006,-0.037l0.004,-0.038l0.003,-0.038l0.003,-0.039l0.001,-0.039l0.001,-0.04l-0.001,-0.04l-0.001,-0.039l-0.003,-0.039l-0.003,-0.038l-0.004,-0.038l-0.006,-0.037l-0.006,-0.037l-0.007,-0.036l-0.008,-0.036l-0.008,-0.036l-0.01,-0.035l-0.01,-0.035l-0.011,-0.034l-0.012,-0.035l-0.013,-0.033l-0.014,-0.034l-0.014,-0.033l-0.016,-0.033l-0.016,-0.032l-0.017,-0.032l-0.017,-0.032l-0.019,-0.031l-0.019,-0.031l-0.02,-0.03l-0.021,-0.03l-0.021,-0.029l-0.022,-0.029l-0.023,-0.028l-0.024,-0.028l-0.024,-0.027l-0.025,-0.027l-0.025,-0.026l-0.026,-0.025l-0.027,-0.025l-0.027,-0.024l-0.028,-0.024l-0.028,-0.023l-0.029,-0.022l-0.029,-0.021l-0.03,-0.021l-0.03,-0.02l-0.031,-0.019l-0.031,-0.019l-0.032,-0.017l-0.032,-0.017l-0.032,-0.016l-0.033,-0.016l-0.033,-0.014l-0.034,-0.014l-0.033,-0.013l-0.035,-0.012l-0.034,-0.011l-0.035,-0.01l-0.035,-0.01l-0.036,-0.008l-0.036,-0.008l-0.036,-0.007l-0.037,-0.006l-0.037,-0.006l-0.038,-0.004l-0.038,-0.003l-0.039,-0.003l-0.039,-0.001l-0.04,-0.001l-0.04,0.001Z"/></svg>