<?xml version="1.0" encoding="UTF-8" standalone="no"?><!DOCTYPE svg PUBLIC "-//W3C//DTD SVG 1.1//EN" "http://www.w3.org/Graphics/SVG/1.1/DTD/svg11.dtd"><svg width="100%" height="100%" viewBox="0 0 64 64" version="1.1" xmlns="http://www.w3.org/2000/svg" xmlns:xlink="http://www.w3.org/1999/xlink" xml:space="preserve" xmlns:serif="http://www.serif.com/" style="fill-rule:evenodd;clip-rule:evenodd;stroke-linecap:round;stroke-linejoin:round;stroke-miterlimit:5;"><circle cx="32" cy="32" r="2.5" style="fill:none;stroke:#000;stroke-width:2.5px;"/><path d="M47.341,44.743l-0.657,0c-1.482,0 -2.684,-1.965 -2.684,-4.386l0,-16.714c0,-2.421 1.202,-4.386 2.684,-4.386l0.657,0" style="fill:none;stroke:#000;stroke-width:2.5px;stroke-linejoin:miter;"/><path d="M7.341,44.743l-0.657,0c-1.482,0 -2.684,-1.965 -2.684,-4.386l0,-16.714c0,-2.421 1.202,-4.386 2.684,-4.386l0.657,0" style="fill:none;stroke:#000;stroke-width:2.5px;stroke-linejoin:miter;"/><path d="M56.659,44.743l0.657,0c1.482,0 2.684,-1.965 2.684,-4.386l0,-16.714c0,-2.421 -1.202,-4.386 -2.684,-4.386l-0.657,0" style="fill:none;stroke:#000;stroke-width:2.5px;stroke-linejoin:miter;"/><path d="M16.659,44.743l0.657,0c1.482,0 2.684,-1.965 2.684,-4.386l0,-16.714c0,-2.421 -1.202,-4.386 -2.684,-4.386l-0.657,0" style="fill:none;stroke:#000;stroke-width:2.5px;stroke-linejoin:miter;"/></svg>