<?xml version="1.0" encoding="UTF-8" standalone="no"?><!DOCTYPE svg PUBLIC "-//W3C//DTD SVG 1.1//EN" "http://www.w3.org/Graphics/SVG/1.1/DTD/svg11.dtd"><svg width="100%" height="100%" viewBox="0 0 64 64" version="1.1" xmlns="http://www.w3.org/2000/svg" xmlns:xlink="http://www.w3.org/1999/xlink" xml:space="preserve" xmlns:serif="http://www.serif.com/" style="fill-rule:evenodd;clip-rule:evenodd;stroke-linecap:round;stroke-miterlimit:5;"><path d="M11.826,46.73l-1.541,0c-3.469,0 -6.285,-2.272 -6.285,-5.07l0,-19.32c0,-2.798 2.816,-5.07 6.285,-5.07l1.541,0" style="fill:none;stroke:#000;stroke-width:2.5px;"/><path d="M52.174,46.73l1.541,0c3.469,0 6.285,-2.272 6.285,-5.07l0,-19.32c0,-2.798 -2.816,-5.07 -6.285,-5.07l-1.541,0" style="fill:none;stroke:#000;stroke-width:2.5px;"/><path d="M45.5,31.5c0,-3.311 -2.689,-6 -6,-6l-15,0c-3.311,0 -6,2.689 -6,6l0,12c0,3.311 2.689,6 6,6l15,0c3.311,0 6,-2.689 6,-6l0,-12Z" style="fill:none;stroke:#000;stroke-width:2.5px;stroke-linejoin:round;"/><ellipse cx="32.5" cy="38" rx="2.5" ry="2.206" style="fill:none;stroke:#000;stroke-width:2.5px;stroke-linejoin:round;"/><ellipse cx="26.5" cy="32.706" rx="2.5" ry="2.206" style="fill:none;stroke:#000;stroke-width:2.5px;stroke-linejoin:round;"/><ellipse cx="32" cy="20.016" rx="2.5" ry="2" style="fill:none;stroke:#000;stroke-width:2.5px;stroke-linejoin:round;"/><ellipse cx="38.5" cy="43.294" rx="2.5" ry="2.206" style="fill:none;stroke:#000;stroke-width:2.5px;stroke-linejoin:round;"/><path d="M18.5,41.5c0,0 0,-13.541 0,-21.444c0,-3.069 2.487,-5.556 5.556,-5.556c4.646,0 11.242,0 15.888,0c3.069,0 5.556,2.487 5.556,5.556c0,5.697 0,13.73 0,13.73" style="fill:none;stroke:#000;stroke-width:2.5px;stroke-linejoin:round;"/><path d="M26,14.5l-7.5,7.5" style="fill:none;stroke:#000;stroke-width:2.5px;stroke-linejoin:round;"/><path d="M32,14.5l-12,12" style="fill:none;stroke:#000;stroke-width:2.5px;stroke-linejoin:round;"/><path d="M38,14.5l-11,11" style="fill:none;stroke:#000;stroke-width:2.5px;stroke-linejoin:round;"/><path d="M43,16l-9,9" style="fill:none;stroke:#000;stroke-width:2.5px;stroke-linejoin:round;"/><path d="M45.5,20l-5,5" style="fill:none;stroke:#000;stroke-width:2.5px;stroke-linejoin:round;"/></svg>