<?xml version="1.0" encoding="UTF-8" standalone="no"?><!DOCTYPE svg PUBLIC "-//W3C//DTD SVG 1.1//EN" "http://www.w3.org/Graphics/SVG/1.1/DTD/svg11.dtd"><svg width="100%" height="100%" viewBox="0 0 64 64" version="1.1" xmlns="http://www.w3.org/2000/svg" xmlns:xlink="http://www.w3.org/1999/xlink" xml:space="preserve" xmlns:serif="http://www.serif.com/" style="fill-rule:evenodd;clip-rule:evenodd;stroke-linejoin:round;stroke-miterlimit:1.41421;"><path d="M56.682,14.501l0.088,0.004l0.087,0.006l0.086,0.007l0.085,0.01l0.085,0.012l0.085,0.014l0.083,0.017l0.083,0.018l0.082,0.02l0.082,0.022l0.08,0.024l0.08,0.026l0.078,0.028l0.078,0.03l0.077,0.031l0.076,0.033l0.075,0.035l0.074,0.037l0.073,0.039l0.072,0.04l0.071,0.042l0.069,0.043l0.069,0.046l0.067,0.046l0.066,0.049l0.065,0.049l0.064,0.052l0.062,0.053l0.061,0.054l0.06,0.056l0.059,0.057l0.057,0.058l0.055,0.06l0.054,0.061l0.053,0.062l0.052,0.064l0.049,0.065l0.048,0.066l0.047,0.067l0.045,0.069l0.044,0.07l0.041,0.07l0.041,0.072l0.038,0.073l0.037,0.074l0.035,0.075l0.033,0.075l0.031,0.077l0.03,0.078l0.027,0.078l0.026,0.08l0.024,0.08l0.022,0.081l0.02,0.082l0.018,0.083l0.016,0.083l0.014,0.084l0.012,0.085l0.009,0.085l0.008,0.086l0.006,0.087l0.003,0.087l0.001,0.088l0,2.094l0.103,0.001l0.103,0.005l0.102,0.006l0.101,0.009l0.101,0.012l0.1,0.014l0.099,0.017l0.098,0.019l0.097,0.021l0.096,0.023l0.096,0.026l0.094,0.029l0.094,0.03l0.092,0.033l0.092,0.034l0.09,0.037l0.089,0.04l0.088,0.041l0.087,0.043l0.086,0.045l0.084,0.047l0.083,0.05l0.082,0.051l0.08,0.053l0.08,0.055l0.077,0.056l0.077,0.059l0.074,0.06l0.074,0.062l0.071,0.064l0.071,0.065l0.068,0.067l0.067,0.069l0.066,0.07l0.063,0.072l0.062,0.073l0.061,0.075l0.058,0.076l0.057,0.078l0.054,0.079l0.053,0.081l0.051,0.081l0.05,0.083l0.047,0.085l0.045,0.085l0.043,0.087l0.041,0.088l0.039,0.089l0.037,0.09l0.035,0.092l0.032,0.092l0.03,0.093l0.028,0.095l0.026,0.095l0.024,0.096l0.021,0.097l0.019,0.098l0.016,0.099l0.014,0.099l0.011,0.101l0.009,0.101l0.007,0.102l0.004,0.102l0.001,0.103l-0.001,0.103l-0.004,0.102l-0.007,0.102l-0.009,0.101l-0.011,0.101l-0.014,0.099l-0.016,0.099l-0.019,0.098l-0.021,0.097l-0.024,0.096l-0.026,0.095l-0.028,0.095l-0.03,0.093l-0.032,0.092l-0.035,0.092l-0.037,0.09l-0.039,0.089l-0.041,0.088l-0.043,0.087l-0.045,0.085l-0.047,0.085l-0.05,0.083l-0.051,0.081l-0.053,0.081l-0.054,0.079l-0.057,0.078l-0.058,0.076l-0.061,0.075l-0.062,0.073l-0.063,0.072l-0.066,0.07l-0.067,0.069l-0.068,0.067l-0.071,0.065l-0.071,0.064l-0.074,0.062l-0.074,0.06l-0.077,0.059l-0.077,0.056l-0.08,0.055l-0.08,0.053l-0.082,0.051l-0.083,0.05l-0.084,0.047l-0.086,0.045l-0.087,0.043l-0.088,0.041l-0.089,0.04l-0.09,0.037l-0.092,0.034l-0.092,0.033l-0.094,0.03l-0.094,0.029l-0.096,0.026l-0.096,0.023l-0.097,0.021l-0.098,0.019l-0.099,0.017l-0.1,0.014l-0.101,0.012l-0.101,0.009l-0.102,0.006l-0.103,0.005l-0.103,0.001l0,4l0.103,0.001l0.103,0.005l0.102,0.006l0.101,0.009l0.101,0.012l0.1,0.014l0.099,0.017l0.098,0.019l0.097,0.021l0.096,0.023l0.096,0.026l0.094,0.029l0.094,0.03l0.092,0.033l0.092,0.034l0.09,0.037l0.089,0.04l0.088,0.041l0.087,0.043l0.086,0.045l0.084,0.047l0.083,0.05l0.082,0.051l0.08,0.053l0.08,0.055l0.077,0.056l0.077,0.059l0.074,0.06l0.074,0.062l0.071,0.064l0.071,0.065l0.068,0.067l0.067,0.069l0.066,0.07l0.063,0.072l0.062,0.073l0.061,0.075l0.058,0.076l0.057,0.078l0.054,0.079l0.053,0.081l0.051,0.081l0.05,0.083l0.047,0.085l0.045,0.085l0.043,0.087l0.041,0.088l0.039,0.089l0.037,0.09l0.035,0.092l0.032,0.092l0.03,0.093l0.028,0.095l0.026,0.095l0.024,0.096l0.021,0.097l0.019,0.098l0.016,0.099l0.014,0.099l0.011,0.101l0.009,0.101l0.007,0.102l0.004,0.102l0.001,0.103l-0.001,0.103l-0.004,0.102l-0.007,0.102l-0.009,0.101l-0.011,0.101l-0.014,0.099l-0.016,0.099l-0.019,0.098l-0.021,0.097l-0.024,0.096l-0.026,0.095l-0.028,0.095l-0.03,0.093l-0.032,0.092l-0.035,0.092l-0.037,0.09l-0.039,0.089l-0.041,0.088l-0.043,0.087l-0.045,0.085l-0.047,0.085l-0.05,0.083l-0.051,0.081l-0.053,0.081l-0.054,0.079l-0.057,0.078l-0.058,0.076l-0.061,0.075l-0.062,0.073l-0.063,0.072l-0.066,0.07l-0.067,0.069l-0.068,0.067l-0.071,0.065l-0.071,0.064l-0.074,0.062l-0.074,0.06l-0.077,0.059l-0.077,0.056l-0.08,0.055l-0.08,0.053l-0.082,0.051l-0.083,0.05l-0.084,0.047l-0.086,0.045l-0.087,0.043l-0.088,0.041l-0.089,0.04l-0.09,0.037l-0.092,0.034l-0.092,0.033l-0.094,0.03l-0.094,0.029l-0.096,0.026l-0.096,0.023l-0.097,0.021l-0.098,0.019l-0.099,0.017l-0.1,0.014l-0.101,0.012l-0.101,0.009l-0.102,0.006l-0.103,0.005l-0.103,0.001l0,6.094l-0.001,0.088l-0.003,0.087l-0.006,0.087l-0.008,0.086l-0.009,0.086l-0.012,0.084l-0.014,0.085l-0.016,0.083l-0.018,0.083l-0.02,0.082l-0.022,0.081l-0.024,0.08l-0.026,0.08l-0.028,0.079l-0.029,0.077l-0.032,0.077l-0.033,0.076l-0.035,0.075l-0.037,0.074l-0.038,0.073l-0.041,0.072l-0.041,0.071l-0.044,0.069l-0.045,0.069l-0.047,0.067l-0.048,0.066l-0.05,0.065l-0.051,0.064l-0.053,0.062l-0.054,0.062l-0.056,0.059l-0.057,0.059l-0.059,0.057l-0.059,0.056l-0.062,0.054l-0.062,0.053l-0.064,0.051l-0.065,0.05l-0.066,0.048l-0.067,0.047l-0.069,0.045l-0.069,0.044l-0.071,0.041l-0.072,0.041l-0.073,0.038l-0.074,0.037l-0.075,0.035l-0.076,0.033l-0.077,0.032l-0.077,0.029l-0.079,0.028l-0.08,0.026l-0.08,0.024l-0.081,0.022l-0.082,0.02l-0.083,0.018l-0.083,0.016l-0.085,0.014l-0.084,0.012l-0.086,0.009l-0.086,0.008l-0.087,0.006l-0.087,0.003l-0.088,0.001l-49.188,0l-0.088,-0.001l-0.087,-0.003l-0.087,-0.006l-0.086,-0.008l-0.086,-0.009l-0.084,-0.012l-0.085,-0.014l-0.083,-0.016l-0.083,-0.018l-0.082,-0.02l-0.081,-0.022l-0.08,-0.024l-0.08,-0.026l-0.079,-0.028l-0.077,-0.029l-0.077,-0.032l-0.076,-0.033l-0.075,-0.035l-0.074,-0.037l-0.073,-0.038l-0.072,-0.041l-0.071,-0.041l-0.069,-0.044l-0.069,-0.045l-0.067,-0.047l-0.066,-0.048l-0.065,-0.05l-0.064,-0.051l-0.062,-0.053l-0.062,-0.054l-0.059,-0.056l-0.059,-0.057l-0.057,-0.059l-0.056,-0.059l-0.054,-0.062l-0.053,-0.062l-0.051,-0.064l-0.05,-0.065l-0.048,-0.066l-0.047,-0.067l-0.045,-0.069l-0.044,-0.069l-0.041,-0.071l-0.041,-0.072l-0.038,-0.073l-0.037,-0.074l-0.035,-0.075l-0.033,-0.076l-0.032,-0.077l-0.029,-0.077l-0.028,-0.079l-0.026,-0.08l-0.024,-0.08l-0.022,-0.081l-0.02,-0.082l-0.018,-0.083l-0.016,-0.083l-0.014,-0.085l-0.012,-0.084l-0.009,-0.086l-0.008,-0.086l-0.006,-0.087l-0.003,-0.087l-0.001,-0.088l0,-6.094l-0.103,-0.001l-0.103,-0.004l-0.102,-0.007l-0.101,-0.009l-0.1,-0.011l-0.1,-0.014l-0.099,-0.017l-0.098,-0.018l-0.097,-0.022l-0.096,-0.023l-0.096,-0.026l-0.094,-0.028l-0.093,-0.03l-0.093,-0.033l-0.091,-0.035l-0.09,-0.037l-0.09,-0.039l-0.088,-0.041l-0.086,-0.043l-0.086,-0.045l-0.084,-0.047l-0.083,-0.049l-0.082,-0.052l-0.081,-0.053l-0.079,-0.054l-0.078,-0.057l-0.076,-0.059l-0.075,-0.06l-0.073,-0.062l-0.072,-0.064l-0.07,-0.065l-0.069,-0.067l-0.067,-0.069l-0.065,-0.07l-0.064,-0.072l-0.062,-0.073l-0.06,-0.075l-0.059,-0.076l-0.057,-0.078l-0.054,-0.079l-0.053,-0.081l-0.052,-0.082l-0.049,-0.083l-0.047,-0.084l-0.045,-0.086l-0.043,-0.086l-0.041,-0.088l-0.039,-0.09l-0.037,-0.09l-0.035,-0.091l-0.033,-0.093l-0.03,-0.093l-0.028,-0.094l-0.026,-0.096l-0.023,-0.096l-0.022,-0.097l-0.018,-0.098l-0.017,-0.099l-0.014,-0.1l-0.011,-0.1l-0.009,-0.101l-0.007,-0.102l-0.004,-0.103l-0.001,-0.103l0.001,-0.103l0.004,-0.102l0.007,-0.102l0.009,-0.101l0.011,-0.101l0.014,-0.099l0.016,-0.099l0.019,-0.098l0.021,-0.097l0.024,-0.096l0.026,-0.095l0.028,-0.095l0.03,-0.093l0.032,-0.092l0.035,-0.092l0.037,-0.09l0.039,-0.089l0.041,-0.088l0.043,-0.087l0.045,-0.085l0.047,-0.085l0.05,-0.083l0.051,-0.081l0.053,-0.081l0.054,-0.079l0.057,-0.078l0.058,-0.076l0.061,-0.075l0.062,-0.073l0.063,-0.072l0.066,-0.07l0.067,-0.069l0.068,-0.067l0.071,-0.065l0.071,-0.064l0.074,-0.062l0.074,-0.06l0.077,-0.059l0.077,-0.056l0.08,-0.055l0.08,-0.053l0.082,-0.051l0.083,-0.05l0.084,-0.047l0.086,-0.045l0.087,-0.043l0.088,-0.041l0.089,-0.04l0.09,-0.037l0.092,-0.034l0.092,-0.033l0.094,-0.03l0.094,-0.029l0.096,-0.026l0.096,-0.023l0.097,-0.021l0.098,-0.019l0.099,-0.017l0.1,-0.014l0.101,-0.012l0.101,-0.009l0.102,-0.006l0.103,-0.005l0.103,-0.001l0,-4l-0.103,-0.001l-0.103,-0.004l-0.102,-0.007l-0.101,-0.009l-0.1,-0.011l-0.1,-0.014l-0.099,-0.017l-0.098,-0.018l-0.097,-0.022l-0.096,-0.023l-0.096,-0.026l-0.094,-0.028l-0.093,-0.03l-0.093,-0.033l-0.091,-0.035l-0.09,-0.037l-0.09,-0.039l-0.088,-0.041l-0.086,-0.043l-0.086,-0.045l-0.084,-0.047l-0.083,-0.049l-0.082,-0.052l-0.081,-0.053l-0.079,-0.054l-0.078,-0.057l-0.076,-0.059l-0.075,-0.06l-0.073,-0.062l-0.072,-0.064l-0.07,-0.065l-0.069,-0.067l-0.067,-0.069l-0.065,-0.07l-0.064,-0.072l-0.062,-0.073l-0.06,-0.075l-0.059,-0.076l-0.057,-0.078l-0.054,-0.079l-0.053,-0.081l-0.052,-0.082l-0.049,-0.083l-0.047,-0.084l-0.045,-0.086l-0.043,-0.086l-0.041,-0.088l-0.039,-0.09l-0.037,-0.09l-0.035,-0.091l-0.033,-0.093l-0.03,-0.093l-0.028,-0.094l-0.026,-0.096l-0.023,-0.096l-0.022,-0.097l-0.018,-0.098l-0.017,-0.099l-0.014,-0.1l-0.011,-0.1l-0.009,-0.101l-0.007,-0.102l-0.004,-0.103l-0.001,-0.103l0.001,-0.103l0.004,-0.102l0.007,-0.102l0.009,-0.101l0.011,-0.101l0.014,-0.099l0.016,-0.099l0.019,-0.098l0.021,-0.097l0.024,-0.096l0.026,-0.095l0.028,-0.095l0.03,-0.093l0.032,-0.092l0.035,-0.092l0.037,-0.09l0.039,-0.089l0.041,-0.088l0.043,-0.087l0.045,-0.085l0.047,-0.085l0.05,-0.083l0.051,-0.081l0.053,-0.081l0.054,-0.079l0.057,-0.078l0.058,-0.076l0.061,-0.075l0.062,-0.073l0.063,-0.072l0.066,-0.07l0.067,-0.069l0.068,-0.067l0.071,-0.065l0.071,-0.064l0.074,-0.062l0.074,-0.06l0.077,-0.059l0.077,-0.056l0.08,-0.055l0.08,-0.053l0.082,-0.051l0.083,-0.05l0.084,-0.047l0.086,-0.045l0.087,-0.043l0.088,-0.041l0.089,-0.04l0.09,-0.037l0.092,-0.034l0.092,-0.033l0.094,-0.03l0.094,-0.029l0.096,-0.026l0.096,-0.023l0.097,-0.021l0.098,-0.019l0.099,-0.017l0.1,-0.014l0.101,-0.012l0.101,-0.009l0.102,-0.006l0.103,-0.005l0.103,-0.001l0,-2.094l0.001,-0.088l0.003,-0.087l0.006,-0.087l0.008,-0.086l0.009,-0.085l0.012,-0.085l0.014,-0.084l0.016,-0.083l0.018,-0.083l0.02,-0.082l0.022,-0.081l0.024,-0.08l0.026,-0.08l0.027,-0.078l0.03,-0.078l0.031,-0.077l0.033,-0.075l0.035,-0.075l0.037,-0.074l0.038,-0.073l0.041,-0.072l0.041,-0.07l0.044,-0.07l0.045,-0.069l0.047,-0.067l0.048,-0.066l0.049,-0.065l0.052,-0.064l0.053,-0.062l0.054,-0.061l0.055,-0.06l0.057,-0.058l0.059,-0.057l0.06,-0.056l0.061,-0.054l0.062,-0.053l0.064,-0.052l0.065,-0.049l0.066,-0.049l0.067,-0.046l0.069,-0.046l0.069,-0.043l0.071,-0.042l0.072,-0.04l0.073,-0.039l0.074,-0.037l0.075,-0.035l0.076,-0.033l0.077,-0.031l0.078,-0.03l0.078,-0.028l0.08,-0.026l0.08,-0.024l0.082,-0.022l0.082,-0.02l0.083,-0.018l0.083,-0.017l0.085,-0.014l0.085,-0.012l0.085,-0.01l0.086,-0.007l0.087,-0.006l0.088,-0.004l0.088,-0.001l49.188,0l0.088,0.001Zm-49.257,2.499l-0.038,0.001l-0.025,0.001l-0.024,0.001l-0.024,0.002l-0.023,0.003l-0.023,0.003l-0.022,0.004l-0.022,0.004l-0.022,0.005l-0.022,0.005l-0.022,0.006l-0.021,0.007l-0.021,0.006l-0.02,0.008l-0.021,0.008l-0.02,0.008l-0.02,0.009l-0.02,0.009l-0.02,0.01l-0.019,0.01l-0.019,0.011l-0.019,0.011l-0.019,0.011l-0.018,0.013l-0.018,0.012l-0.018,0.013l-0.018,0.014l-0.017,0.014l-0.017,0.014l-0.016,0.015l-0.016,0.015l-0.016,0.015l-0.016,0.016l-0.015,0.016l-0.014,0.017l-0.015,0.016l-0.013,0.018l-0.014,0.017l-0.013,0.018l-0.012,0.018l-0.012,0.018l-0.012,0.019l-0.011,0.018l-0.01,0.019l-0.011,0.019l-0.009,0.02l-0.009,0.019l-0.009,0.02l-0.008,0.02l-0.008,0.02l-0.007,0.021l-0.007,0.02l-0.006,0.021l-0.006,0.021l-0.005,0.021l-0.004,0.022l-0.005,0.022l-0.003,0.022l-0.003,0.022l-0.003,0.023l-0.002,0.023l-0.002,0.024l0,0.023l-0.001,0.041l0,2.078l-0.012,0.243l-0.035,0.24l-0.059,0.236l-0.081,0.229l-0.103,0.221l-0.124,0.209l-0.144,0.196l-0.162,0.181l-0.178,0.165l-0.195,0.146l-0.207,0.127l-0.219,0.106l-0.227,0.085l-0.236,0.062l-0.24,0.038l-0.242,0.016l-0.072,0.001l-0.04,0.001l-0.039,0.003l-0.038,0.003l-0.038,0.005l-0.038,0.005l-0.037,0.006l-0.037,0.007l-0.036,0.008l-0.036,0.009l-0.035,0.01l-0.036,0.01l-0.034,0.012l-0.035,0.012l-0.034,0.013l-0.033,0.013l-0.034,0.015l-0.032,0.015l-0.033,0.017l-0.032,0.016l-0.032,0.018l-0.031,0.019l-0.031,0.019l-0.03,0.02l-0.03,0.021l-0.029,0.021l-0.029,0.022l-0.028,0.023l-0.028,0.024l-0.027,0.024l-0.027,0.025l-0.026,0.025l-0.025,0.026l-0.025,0.027l-0.024,0.027l-0.024,0.028l-0.023,0.028l-0.022,0.029l-0.021,0.029l-0.021,0.03l-0.02,0.03l-0.019,0.031l-0.018,0.031l-0.018,0.031l-0.017,0.032l-0.016,0.032l-0.015,0.033l-0.014,0.033l-0.014,0.034l-0.013,0.033l-0.012,0.034l-0.011,0.035l-0.01,0.035l-0.01,0.035l-0.009,0.035l-0.007,0.036l-0.007,0.037l-0.006,0.037l-0.006,0.037l-0.004,0.037l-0.003,0.038l-0.003,0.039l-0.001,0.039l-0.001,0.04l0.001,0.04l0.001,0.039l0.003,0.039l0.003,0.038l0.004,0.038l0.006,0.037l0.006,0.037l0.007,0.036l0.008,0.036l0.008,0.036l0.01,0.035l0.01,0.035l0.011,0.034l0.012,0.035l0.013,0.033l0.014,0.034l0.014,0.033l0.016,0.033l0.016,0.032l0.017,0.032l0.017,0.032l0.019,0.031l0.019,0.031l0.02,0.03l0.021,0.03l0.021,0.029l0.022,0.029l0.023,0.028l0.024,0.028l0.024,0.027l0.025,0.027l0.025,0.026l0.026,0.025l0.027,0.025l0.027,0.024l0.028,0.024l0.028,0.023l0.029,0.022l0.029,0.021l0.03,0.021l0.03,0.02l0.031,0.019l0.031,0.019l0.032,0.017l0.032,0.017l0.032,0.016l0.033,0.016l0.033,0.014l0.034,0.014l0.033,0.013l0.035,0.012l0.034,0.011l0.035,0.01l0.035,0.01l0.036,0.008l0.036,0.008l0.036,0.007l0.037,0.006l0.037,0.006l0.038,0.004l0.038,0.003l0.039,0.003l0.039,0.001l0.072,0.001l0.243,0.015l0.24,0.039l0.235,0.061l0.229,0.084l0.219,0.107l0.207,0.126l0.195,0.147l0.179,0.164l0.162,0.182l0.144,0.196l0.124,0.209l0.104,0.221l0.081,0.229l0.059,0.236l0.035,0.241l0.012,0.243l0,4l-0.012,0.243l-0.035,0.24l-0.059,0.236l-0.081,0.229l-0.103,0.221l-0.124,0.209l-0.144,0.196l-0.162,0.181l-0.178,0.165l-0.195,0.146l-0.207,0.127l-0.219,0.106l-0.227,0.085l-0.236,0.062l-0.24,0.038l-0.242,0.016l-0.072,0.001l-0.04,0.001l-0.039,0.003l-0.038,0.003l-0.038,0.005l-0.038,0.005l-0.037,0.006l-0.037,0.007l-0.036,0.008l-0.036,0.009l-0.035,0.01l-0.036,0.01l-0.034,0.012l-0.035,0.012l-0.034,0.013l-0.033,0.013l-0.034,0.015l-0.032,0.015l-0.033,0.017l-0.032,0.016l-0.032,0.018l-0.031,0.019l-0.031,0.019l-0.03,0.02l-0.03,0.021l-0.029,0.021l-0.029,0.022l-0.028,0.023l-0.028,0.024l-0.027,0.024l-0.027,0.025l-0.026,0.025l-0.025,0.026l-0.025,0.027l-0.024,0.027l-0.024,0.028l-0.023,0.028l-0.022,0.029l-0.021,0.029l-0.021,0.03l-0.02,0.03l-0.019,0.031l-0.018,0.031l-0.018,0.031l-0.017,0.032l-0.016,0.032l-0.015,0.033l-0.014,0.033l-0.014,0.034l-0.013,0.033l-0.012,0.034l-0.011,0.035l-0.01,0.035l-0.01,0.035l-0.009,0.035l-0.007,0.036l-0.007,0.037l-0.006,0.037l-0.006,0.037l-0.004,0.037l-0.003,0.038l-0.003,0.039l-0.001,0.039l-0.001,0.04l0.001,0.04l0.001,0.039l0.003,0.039l0.003,0.038l0.004,0.038l0.006,0.037l0.006,0.037l0.007,0.036l0.008,0.036l0.008,0.036l0.01,0.035l0.01,0.035l0.011,0.034l0.012,0.035l0.013,0.033l0.014,0.034l0.014,0.033l0.016,0.033l0.016,0.032l0.017,0.032l0.017,0.032l0.019,0.031l0.019,0.031l0.02,0.03l0.021,0.03l0.021,0.029l0.022,0.029l0.023,0.028l0.024,0.028l0.024,0.027l0.025,0.027l0.025,0.026l0.026,0.025l0.027,0.025l0.027,0.024l0.028,0.024l0.028,0.023l0.029,0.022l0.029,0.021l0.03,0.021l0.03,0.02l0.031,0.019l0.031,0.019l0.032,0.017l0.032,0.017l0.032,0.016l0.033,0.016l0.033,0.014l0.034,0.014l0.033,0.013l0.035,0.012l0.034,0.011l0.035,0.01l0.035,0.01l0.036,0.008l0.036,0.008l0.036,0.007l0.037,0.006l0.037,0.006l0.038,0.004l0.038,0.003l0.039,0.003l0.039,0.001l0.072,0.001l0.243,0.015l0.24,0.039l0.235,0.061l0.229,0.084l0.219,0.107l0.207,0.126l0.195,0.147l0.179,0.164l0.162,0.182l0.144,0.196l0.124,0.209l0.104,0.221l0.081,0.229l0.059,0.236l0.035,0.241l0.012,0.243l0,6.078l0.001,0.041l0,0.024l0.002,0.023l0.002,0.023l0.003,0.023l0.003,0.022l0.003,0.023l0.005,0.021l0.004,0.022l0.006,0.021l0.005,0.021l0.006,0.021l0.007,0.021l0.007,0.02l0.008,0.021l0.008,0.02l0.009,0.02l0.009,0.019l0.01,0.02l0.01,0.019l0.011,0.019l0.011,0.019l0.011,0.019l0.012,0.018l0.013,0.018l0.013,0.018l0.013,0.017l0.014,0.018l0.015,0.016l0.014,0.017l0.015,0.016l0.016,0.016l0.016,0.016l0.016,0.015l0.017,0.014l0.017,0.015l0.017,0.014l0.017,0.013l0.018,0.013l0.018,0.013l0.018,0.012l0.019,0.011l0.019,0.011l0.019,0.011l0.019,0.01l0.02,0.01l0.019,0.009l0.02,0.009l0.02,0.008l0.021,0.008l0.02,0.007l0.021,0.007l0.021,0.006l0.021,0.006l0.021,0.005l0.022,0.004l0.021,0.005l0.023,0.003l0.022,0.003l0.023,0.003l0.023,0.002l0.023,0.002l0.024,0l0.041,0.001l49.156,0l0.041,-0.001l0.024,0l0.023,-0.002l0.023,-0.002l0.023,-0.003l0.022,-0.003l0.023,-0.003l0.021,-0.005l0.022,-0.004l0.021,-0.005l0.021,-0.006l0.021,-0.006l0.021,-0.007l0.02,-0.007l0.021,-0.008l0.02,-0.008l0.02,-0.009l0.019,-0.009l0.02,-0.01l0.019,-0.01l0.019,-0.011l0.019,-0.011l0.019,-0.011l0.018,-0.013l0.018,-0.012l0.018,-0.013l0.017,-0.013l0.017,-0.014l0.017,-0.015l0.017,-0.014l0.016,-0.015l0.016,-0.016l0.016,-0.016l0.015,-0.016l0.014,-0.017l0.015,-0.017l0.014,-0.017l0.013,-0.017l0.013,-0.018l0.012,-0.018l0.013,-0.018l0.011,-0.019l0.011,-0.019l0.011,-0.019l0.01,-0.019l0.01,-0.02l0.009,-0.019l0.009,-0.02l0.008,-0.02l0.008,-0.021l0.007,-0.02l0.007,-0.021l0.006,-0.021l0.005,-0.021l0.006,-0.021l0.004,-0.022l0.005,-0.021l0.003,-0.023l0.003,-0.022l0.003,-0.023l0.002,-0.023l0.002,-0.023l0,-0.024l0.001,-0.041l0,-6.078l0.012,-0.243l0.035,-0.24l0.059,-0.236l0.081,-0.229l0.103,-0.221l0.124,-0.209l0.144,-0.196l0.162,-0.181l0.178,-0.165l0.195,-0.146l0.207,-0.127l0.219,-0.106l0.227,-0.085l0.236,-0.062l0.24,-0.038l0.242,-0.016l0.072,-0.001l0.04,-0.001l0.039,-0.003l0.038,-0.003l0.038,-0.005l0.038,-0.005l0.037,-0.006l0.037,-0.007l0.036,-0.008l0.036,-0.009l0.035,-0.01l0.036,-0.01l0.034,-0.012l0.035,-0.012l0.034,-0.013l0.033,-0.013l0.034,-0.015l0.032,-0.015l0.033,-0.017l0.032,-0.016l0.032,-0.018l0.031,-0.019l0.031,-0.019l0.03,-0.02l0.03,-0.021l0.029,-0.021l0.029,-0.022l0.028,-0.023l0.028,-0.024l0.027,-0.024l0.027,-0.025l0.026,-0.025l0.025,-0.026l0.025,-0.027l0.024,-0.027l0.024,-0.028l0.023,-0.028l0.022,-0.029l0.021,-0.029l0.021,-0.03l0.02,-0.03l0.019,-0.031l0.018,-0.031l0.018,-0.031l0.017,-0.032l0.016,-0.032l0.015,-0.033l0.014,-0.033l0.014,-0.033l0.013,-0.034l0.012,-0.034l0.011,-0.035l0.01,-0.035l0.01,-0.035l0.009,-0.036l0.007,-0.035l0.007,-0.037l0.006,-0.036l0.006,-0.038l0.004,-0.037l0.003,-0.038l0.003,-0.039l0.001,-0.039l0.001,-0.04l-0.001,-0.04l-0.001,-0.039l-0.003,-0.039l-0.003,-0.038l-0.004,-0.037l-0.006,-0.038l-0.006,-0.036l-0.007,-0.037l-0.007,-0.035l-0.009,-0.036l-0.01,-0.035l-0.01,-0.035l-0.011,-0.035l-0.012,-0.034l-0.013,-0.034l-0.014,-0.033l-0.014,-0.033l-0.015,-0.033l-0.016,-0.032l-0.017,-0.032l-0.018,-0.031l-0.018,-0.031l-0.019,-0.031l-0.02,-0.03l-0.021,-0.03l-0.021,-0.029l-0.022,-0.029l-0.023,-0.028l-0.024,-0.028l-0.024,-0.027l-0.025,-0.027l-0.025,-0.026l-0.026,-0.025l-0.027,-0.025l-0.027,-0.024l-0.028,-0.024l-0.028,-0.023l-0.029,-0.022l-0.029,-0.021l-0.03,-0.021l-0.03,-0.02l-0.031,-0.019l-0.031,-0.019l-0.032,-0.018l-0.032,-0.016l-0.033,-0.017l-0.032,-0.015l-0.034,-0.015l-0.033,-0.013l-0.034,-0.013l-0.035,-0.012l-0.034,-0.012l-0.036,-0.01l-0.035,-0.01l-0.036,-0.009l-0.036,-0.008l-0.037,-0.007l-0.037,-0.006l-0.038,-0.005l-0.038,-0.005l-0.038,-0.003l-0.039,-0.003l-0.04,-0.001l-0.072,-0.001l-0.242,-0.016l-0.24,-0.038l-0.236,-0.062l-0.227,-0.085l-0.219,-0.106l-0.207,-0.127l-0.195,-0.146l-0.178,-0.165l-0.162,-0.181l-0.144,-0.196l-0.124,-0.209l-0.103,-0.221l-0.081,-0.229l-0.059,-0.236l-0.035,-0.24l-0.012,-0.243l0,-4l0.012,-0.243l0.035,-0.24l0.059,-0.236l0.081,-0.229l0.103,-0.221l0.124,-0.209l0.144,-0.196l0.162,-0.181l0.178,-0.165l0.195,-0.146l0.207,-0.127l0.219,-0.106l0.227,-0.085l0.236,-0.062l0.24,-0.038l0.242,-0.016l0.072,-0.001l0.04,-0.001l0.039,-0.003l0.038,-0.003l0.038,-0.005l0.038,-0.005l0.037,-0.006l0.037,-0.007l0.036,-0.008l0.036,-0.009l0.035,-0.01l0.036,-0.01l0.034,-0.012l0.035,-0.012l0.034,-0.013l0.033,-0.013l0.034,-0.015l0.032,-0.015l0.033,-0.017l0.032,-0.016l0.032,-0.018l0.031,-0.019l0.031,-0.019l0.03,-0.02l0.03,-0.021l0.029,-0.021l0.029,-0.022l0.028,-0.023l0.028,-0.024l0.027,-0.024l0.027,-0.025l0.026,-0.025l0.025,-0.026l0.025,-0.027l0.024,-0.027l0.024,-0.028l0.023,-0.028l0.022,-0.029l0.021,-0.029l0.021,-0.03l0.02,-0.03l0.019,-0.031l0.018,-0.031l0.018,-0.031l0.017,-0.032l0.016,-0.032l0.015,-0.033l0.014,-0.033l0.014,-0.034l0.013,-0.033l0.012,-0.034l0.011,-0.035l0.01,-0.035l0.01,-0.035l0.009,-0.036l0.007,-0.035l0.007,-0.037l0.006,-0.036l0.006,-0.038l0.004,-0.037l0.003,-0.038l0.003,-0.039l0.001,-0.039l0.001,-0.04l-0.001,-0.04l-0.001,-0.039l-0.003,-0.039l-0.003,-0.038l-0.004,-0.037l-0.006,-0.038l-0.006,-0.036l-0.007,-0.037l-0.007,-0.035l-0.009,-0.036l-0.01,-0.035l-0.01,-0.035l-0.011,-0.035l-0.012,-0.034l-0.013,-0.033l-0.014,-0.034l-0.014,-0.033l-0.015,-0.033l-0.016,-0.032l-0.017,-0.032l-0.018,-0.031l-0.018,-0.031l-0.019,-0.031l-0.02,-0.03l-0.021,-0.03l-0.021,-0.029l-0.022,-0.029l-0.023,-0.028l-0.024,-0.028l-0.024,-0.027l-0.025,-0.027l-0.025,-0.026l-0.026,-0.025l-0.027,-0.025l-0.027,-0.024l-0.028,-0.024l-0.028,-0.023l-0.029,-0.022l-0.029,-0.021l-0.03,-0.021l-0.03,-0.02l-0.031,-0.019l-0.031,-0.019l-0.032,-0.018l-0.032,-0.016l-0.033,-0.017l-0.032,-0.015l-0.034,-0.015l-0.033,-0.013l-0.034,-0.013l-0.035,-0.012l-0.034,-0.012l-0.036,-0.01l-0.035,-0.01l-0.036,-0.009l-0.036,-0.008l-0.037,-0.007l-0.037,-0.006l-0.038,-0.005l-0.038,-0.005l-0.038,-0.003l-0.039,-0.003l-0.04,-0.001l-0.072,-0.001l-0.242,-0.016l-0.24,-0.038l-0.236,-0.062l-0.227,-0.085l-0.219,-0.106l-0.207,-0.127l-0.195,-0.146l-0.178,-0.165l-0.162,-0.181l-0.144,-0.196l-0.124,-0.209l-0.103,-0.221l-0.081,-0.229l-0.059,-0.236l-0.035,-0.24l-0.012,-0.243l0,-2.078l-0.001,-0.041l0,-0.023l-0.002,-0.024l-0.002,-0.023l-0.003,-0.023l-0.003,-0.022l-0.003,-0.022l-0.005,-0.022l-0.004,-0.022l-0.005,-0.021l-0.006,-0.021l-0.006,-0.021l-0.007,-0.02l-0.007,-0.021l-0.008,-0.02l-0.008,-0.02l-0.009,-0.02l-0.009,-0.019l-0.009,-0.019l-0.011,-0.02l-0.01,-0.019l-0.011,-0.018l-0.012,-0.019l-0.012,-0.018l-0.012,-0.018l-0.013,-0.018l-0.014,-0.017l-0.013,-0.018l-0.015,-0.016l-0.014,-0.017l-0.015,-0.016l-0.016,-0.016l-0.016,-0.015l-0.016,-0.015l-0.016,-0.015l-0.017,-0.014l-0.018,-0.014l-0.017,-0.014l-0.018,-0.013l-0.018,-0.012l-0.018,-0.013l-0.019,-0.011l-0.019,-0.011l-0.019,-0.011l-0.019,-0.01l-0.02,-0.01l-0.02,-0.009l-0.02,-0.009l-0.02,-0.008l-0.021,-0.008l-0.02,-0.008l-0.021,-0.006l-0.021,-0.007l-0.022,-0.006l-0.022,-0.005l-0.022,-0.005l-0.022,-0.004l-0.022,-0.004l-0.023,-0.003l-0.023,-0.003l-0.024,-0.002l-0.024,-0.001l-0.025,-0.001l-0.038,-0.001l-49.15,0Z"/></svg>