<?xml version="1.0" encoding="UTF-8" standalone="no"?><!DOCTYPE svg PUBLIC "-//W3C//DTD SVG 1.1//EN" "http://www.w3.org/Graphics/SVG/1.1/DTD/svg11.dtd"><svg width="100%" height="100%" viewBox="0 0 64 64" version="1.1" xmlns="http://www.w3.org/2000/svg" xmlns:xlink="http://www.w3.org/1999/xlink" xml:space="preserve" xmlns:serif="http://www.serif.com/" style="fill-rule:evenodd;clip-rule:evenodd;stroke-linecap:round;stroke-linejoin:round;stroke-miterlimit:5;"><circle cx="32" cy="32" r="28" style="fill:none;"/><clipPath id="_clip1"><circle cx="32" cy="32" r="28"/></clipPath><g clip-path="url(#_clip1)"><path d="M8,44.007c0,0 2.797,0.896 6.636,-4.328c5.345,-7.271 6.62,-25.679 17.364,-25.679c10.744,0 11.853,18.46 17.181,25.679c3.933,5.329 6.819,4.328 6.819,4.328" style="fill:none;stroke:#000;stroke-width:2.5px;"/><path d="M18.143,44l0,4" style="fill:none;stroke:#000;stroke-width:2.5px;"/><path d="M32,44l0,4" style="fill:none;stroke:#000;stroke-width:2.5px;"/><path d="M45.857,44l0,4" style="fill:none;stroke:#000;stroke-width:2.5px;"/><path d="M0.823,46l62.354,0" style="fill:none;stroke:#000;stroke-width:2.5px;"/></g><path d="M32.181,4.001l0.181,0.001l0.18,0.003l0.18,0.004l0.18,0.005l0.18,0.007l0.179,0.007l0.179,0.008l0.179,0.01l0.178,0.011l0.178,0.012l0.178,0.013l0.178,0.014l0.177,0.015l0.177,0.016l0.176,0.018l0.176,0.018l0.176,0.02l0.176,0.02l0.175,0.022l0.175,0.023l0.175,0.024l0.174,0.025l0.174,0.026l0.173,0.027l0.173,0.028l0.173,0.029l0.173,0.031l0.172,0.031l0.172,0.032l0.171,0.034l0.171,0.034l0.171,0.036l0.17,0.036l0.17,0.038l0.169,0.039l0.169,0.039l0.169,0.041l0.168,0.041l0.168,0.043l0.168,0.044l0.167,0.045l0.166,0.045l0.167,0.047l0.166,0.048l0.165,0.048l0.165,0.05l0.164,0.051l0.165,0.051l0.163,0.053l0.164,0.054l0.162,0.054l0.163,0.056l0.162,0.056l0.161,0.058l0.161,0.058l0.161,0.06l0.16,0.06l0.159,0.061l0.16,0.062l0.158,0.064l0.159,0.064l0.157,0.065l0.157,0.066l0.157,0.067l0.157,0.068l0.155,0.068l0.156,0.07l0.154,0.071l0.155,0.071l0.153,0.073l0.154,0.073l0.152,0.074l0.153,0.075l0.151,0.076l0.151,0.077l0.151,0.078l0.15,0.079l0.15,0.079l0.149,0.081l0.148,0.081l0.148,0.082l0.148,0.083l0.147,0.084l0.146,0.085l0.146,0.085l0.145,0.087l0.144,0.087l0.144,0.088l0.144,0.089l0.143,0.09l0.142,0.091l0.142,0.091l0.141,0.093l0.141,0.093l0.14,0.094l0.139,0.094l0.139,0.096l0.138,0.097l0.137,0.097l0.137,0.098l0.137,0.099l0.135,0.099l0.135,0.101l0.135,0.101l0.134,0.102l0.133,0.103l0.132,0.103l0.132,0.105l0.132,0.105l0.13,0.106l0.13,0.106l0.13,0.108l0.128,0.108l0.128,0.109l0.128,0.109l0.126,0.111l0.126,0.111l0.126,0.112l0.124,0.113l0.124,0.113l0.124,0.114l0.122,0.115l0.122,0.115l0.122,0.117l0.12,0.117l0.12,0.117l0.119,0.119l0.119,0.119l0.117,0.12l0.117,0.12l0.117,0.122l0.115,0.122l0.115,0.122l0.114,0.124l0.113,0.124l0.113,0.124l0.112,0.126l0.111,0.126l0.111,0.126l0.109,0.128l0.109,0.128l0.108,0.128l0.108,0.13l0.106,0.13l0.106,0.13l0.105,0.132l0.105,0.132l0.103,0.132l0.103,0.133l0.102,0.134l0.101,0.135l0.101,0.135l0.099,0.135l0.099,0.137l0.098,0.137l0.097,0.137l0.097,0.138l0.096,0.139l0.094,0.139l0.094,0.14l0.093,0.141l0.093,0.141l0.091,0.142l0.091,0.142l0.09,0.143l0.089,0.144l0.088,0.144l0.087,0.144l0.087,0.145l0.085,0.146l0.085,0.146l0.084,0.147l0.083,0.148l0.082,0.148l0.081,0.148l0.081,0.149l0.079,0.15l0.079,0.15l0.078,0.151l0.077,0.151l0.076,0.151l0.075,0.153l0.074,0.152l0.073,0.154l0.073,0.153l0.071,0.155l0.071,0.154l0.07,0.156l0.068,0.155l0.068,0.157l0.067,0.157l0.066,0.157l0.065,0.157l0.064,0.159l0.064,0.158l0.062,0.16l0.061,0.159l0.06,0.16l0.06,0.161l0.058,0.161l0.058,0.161l0.056,0.162l0.056,0.163l0.054,0.162l0.054,0.164l0.053,0.163l0.051,0.165l0.051,0.164l0.05,0.165l0.048,0.165l0.048,0.166l0.047,0.167l0.045,0.166l0.045,0.167l0.044,0.168l0.043,0.168l0.041,0.168l0.041,0.169l0.039,0.169l0.039,0.169l0.038,0.17l0.036,0.17l0.036,0.171l0.034,0.171l0.034,0.171l0.032,0.172l0.031,0.172l0.031,0.173l0.029,0.173l0.028,0.173l0.027,0.173l0.026,0.174l0.025,0.174l0.024,0.175l0.023,0.175l0.022,0.175l0.02,0.176l0.02,0.176l0.018,0.176l0.018,0.176l0.016,0.177l0.015,0.177l0.014,0.178l0.013,0.178l0.012,0.178l0.011,0.178l0.01,0.179l0.008,0.179l0.007,0.179l0.007,0.18l0.005,0.18l0.004,0.18l0.003,0.18l0.001,0.181l0.001,0.181l-0.001,0.181l-0.001,0.181l-0.003,0.18l-0.004,0.18l-0.005,0.18l-0.007,0.18l-0.007,0.179l-0.008,0.179l-0.01,0.179l-0.011,0.178l-0.012,0.178l-0.013,0.178l-0.014,0.178l-0.015,0.177l-0.016,0.177l-0.018,0.176l-0.018,0.176l-0.02,0.176l-0.02,0.176l-0.022,0.175l-0.023,0.175l-0.024,0.175l-0.025,0.174l-0.026,0.174l-0.027,0.173l-0.028,0.173l-0.029,0.173l-0.031,0.173l-0.031,0.172l-0.032,0.172l-0.034,0.171l-0.034,0.171l-0.036,0.171l-0.036,0.17l-0.038,0.17l-0.039,0.169l-0.039,0.169l-0.041,0.169l-0.041,0.168l-0.043,0.168l-0.044,0.168l-0.045,0.167l-0.045,0.166l-0.047,0.167l-0.048,0.166l-0.048,0.165l-0.05,0.165l-0.051,0.164l-0.051,0.165l-0.053,0.163l-0.054,0.164l-0.054,0.162l-0.056,0.163l-0.056,0.162l-0.058,0.161l-0.058,0.161l-0.06,0.161l-0.06,0.16l-0.061,0.159l-0.062,0.16l-0.064,0.158l-0.064,0.159l-0.065,0.157l-0.066,0.157l-0.067,0.157l-0.068,0.157l-0.068,0.155l-0.07,0.156l-0.071,0.154l-0.071,0.155l-0.073,0.153l-0.073,0.154l-0.074,0.152l-0.075,0.153l-0.076,0.151l-0.077,0.151l-0.078,0.151l-0.079,0.15l-0.079,0.15l-0.081,0.149l-0.081,0.148l-0.082,0.148l-0.083,0.148l-0.084,0.147l-0.085,0.146l-0.085,0.146l-0.087,0.145l-0.087,0.144l-0.088,0.144l-0.089,0.144l-0.09,0.143l-0.091,0.142l-0.091,0.142l-0.093,0.141l-0.093,0.141l-0.094,0.14l-0.094,0.139l-0.096,0.139l-0.097,0.138l-0.097,0.137l-0.098,0.137l-0.099,0.137l-0.099,0.135l-0.101,0.135l-0.101,0.135l-0.102,0.134l-0.103,0.133l-0.103,0.132l-0.105,0.132l-0.105,0.132l-0.106,0.13l-0.106,0.13l-0.108,0.13l-0.108,0.128l-0.109,0.128l-0.109,0.128l-0.111,0.126l-0.111,0.126l-0.112,0.126l-0.113,0.124l-0.113,0.124l-0.114,0.124l-0.115,0.122l-0.115,0.122l-0.117,0.122l-0.117,0.12l-0.117,0.12l-0.119,0.119l-0.119,0.119l-0.12,0.117l-0.12,0.117l-0.122,0.117l-0.122,0.115l-0.122,0.115l-0.124,0.114l-0.124,0.113l-0.124,0.113l-0.126,0.112l-0.126,0.111l-0.126,0.111l-0.128,0.109l-0.128,0.109l-0.128,0.108l-0.13,0.108l-0.13,0.106l-0.13,0.106l-0.132,0.105l-0.132,0.105l-0.132,0.103l-0.133,0.103l-0.134,0.102l-0.135,0.101l-0.135,0.101l-0.135,0.099l-0.137,0.099l-0.137,0.098l-0.137,0.097l-0.138,0.097l-0.139,0.096l-0.139,0.094l-0.14,0.094l-0.141,0.093l-0.141,0.093l-0.142,0.091l-0.142,0.091l-0.143,0.09l-0.144,0.089l-0.144,0.088l-0.144,0.087l-0.145,0.087l-0.146,0.085l-0.146,0.085l-0.147,0.084l-0.148,0.083l-0.148,0.082l-0.148,0.081l-0.149,0.081l-0.15,0.079l-0.15,0.079l-0.151,0.078l-0.151,0.077l-0.151,0.076l-0.153,0.075l-0.152,0.074l-0.154,0.073l-0.153,0.073l-0.155,0.071l-0.154,0.071l-0.156,0.07l-0.155,0.068l-0.157,0.068l-0.157,0.067l-0.157,0.066l-0.157,0.065l-0.159,0.064l-0.158,0.064l-0.16,0.062l-0.159,0.061l-0.16,0.06l-0.161,0.06l-0.161,0.058l-0.161,0.058l-0.162,0.056l-0.163,0.056l-0.162,0.054l-0.164,0.054l-0.163,0.053l-0.165,0.051l-0.164,0.051l-0.165,0.05l-0.165,0.048l-0.166,0.048l-0.167,0.047l-0.166,0.045l-0.167,0.045l-0.168,0.044l-0.168,0.043l-0.168,0.041l-0.169,0.041l-0.169,0.039l-0.169,0.039l-0.17,0.038l-0.17,0.036l-0.171,0.036l-0.171,0.034l-0.171,0.034l-0.172,0.032l-0.172,0.031l-0.173,0.031l-0.173,0.029l-0.173,0.028l-0.173,0.027l-0.174,0.026l-0.174,0.025l-0.175,0.024l-0.175,0.023l-0.175,0.022l-0.176,0.02l-0.176,0.02l-0.176,0.018l-0.176,0.018l-0.177,0.016l-0.177,0.015l-0.178,0.014l-0.178,0.013l-0.178,0.012l-0.178,0.011l-0.179,0.01l-0.179,0.008l-0.179,0.007l-0.18,0.007l-0.18,0.005l-0.18,0.004l-0.18,0.003l-0.181,0.001l-0.181,0.001l-0.181,-0.001l-0.181,-0.001l-0.18,-0.003l-0.18,-0.004l-0.18,-0.005l-0.18,-0.007l-0.179,-0.007l-0.179,-0.008l-0.179,-0.01l-0.178,-0.011l-0.178,-0.012l-0.178,-0.013l-0.178,-0.014l-0.177,-0.015l-0.177,-0.016l-0.176,-0.018l-0.176,-0.018l-0.176,-0.02l-0.176,-0.02l-0.175,-0.022l-0.175,-0.023l-0.175,-0.024l-0.174,-0.025l-0.174,-0.026l-0.173,-0.027l-0.173,-0.028l-0.173,-0.029l-0.173,-0.031l-0.172,-0.031l-0.172,-0.032l-0.171,-0.034l-0.171,-0.034l-0.171,-0.036l-0.17,-0.036l-0.17,-0.038l-0.169,-0.039l-0.169,-0.039l-0.169,-0.041l-0.168,-0.041l-0.168,-0.043l-0.168,-0.044l-0.167,-0.045l-0.166,-0.045l-0.167,-0.047l-0.166,-0.048l-0.165,-0.048l-0.165,-0.05l-0.164,-0.051l-0.165,-0.051l-0.163,-0.053l-0.164,-0.054l-0.162,-0.054l-0.163,-0.056l-0.162,-0.056l-0.161,-0.058l-0.161,-0.058l-0.161,-0.06l-0.16,-0.06l-0.159,-0.061l-0.16,-0.062l-0.158,-0.064l-0.159,-0.064l-0.157,-0.065l-0.157,-0.066l-0.157,-0.067l-0.157,-0.068l-0.155,-0.068l-0.156,-0.07l-0.154,-0.071l-0.155,-0.071l-0.153,-0.073l-0.154,-0.073l-0.152,-0.074l-0.153,-0.075l-0.151,-0.076l-0.151,-0.077l-0.151,-0.078l-0.15,-0.079l-0.15,-0.079l-0.149,-0.081l-0.148,-0.081l-0.148,-0.082l-0.148,-0.083l-0.147,-0.084l-0.146,-0.085l-0.146,-0.085l-0.145,-0.087l-0.144,-0.087l-0.144,-0.088l-0.144,-0.089l-0.143,-0.09l-0.142,-0.091l-0.142,-0.091l-0.141,-0.093l-0.141,-0.093l-0.14,-0.094l-0.139,-0.094l-0.139,-0.096l-0.138,-0.097l-0.137,-0.097l-0.137,-0.098l-0.137,-0.099l-0.135,-0.099l-0.135,-0.101l-0.135,-0.101l-0.134,-0.102l-0.133,-0.103l-0.132,-0.103l-0.132,-0.105l-0.132,-0.105l-0.13,-0.106l-0.13,-0.106l-0.13,-0.108l-0.128,-0.108l-0.128,-0.109l-0.128,-0.109l-0.126,-0.111l-0.126,-0.111l-0.126,-0.112l-0.124,-0.113l-0.124,-0.113l-0.124,-0.114l-0.122,-0.115l-0.122,-0.115l-0.122,-0.117l-0.12,-0.117l-0.12,-0.117l-0.119,-0.119l-0.119,-0.119l-0.117,-0.12l-0.117,-0.12l-0.117,-0.122l-0.115,-0.122l-0.115,-0.122l-0.114,-0.124l-0.113,-0.124l-0.113,-0.124l-0.112,-0.126l-0.111,-0.126l-0.111,-0.126l-0.109,-0.128l-0.109,-0.128l-0.108,-0.128l-0.108,-0.13l-0.106,-0.13l-0.106,-0.13l-0.105,-0.132l-0.105,-0.132l-0.103,-0.132l-0.103,-0.133l-0.102,-0.134l-0.101,-0.135l-0.101,-0.135l-0.099,-0.135l-0.099,-0.137l-0.098,-0.137l-0.097,-0.137l-0.097,-0.138l-0.096,-0.139l-0.094,-0.139l-0.094,-0.14l-0.093,-0.141l-0.093,-0.141l-0.091,-0.142l-0.091,-0.142l-0.09,-0.143l-0.089,-0.144l-0.088,-0.144l-0.087,-0.144l-0.087,-0.145l-0.085,-0.146l-0.085,-0.146l-0.084,-0.147l-0.083,-0.148l-0.082,-0.148l-0.081,-0.148l-0.081,-0.149l-0.079,-0.15l-0.079,-0.15l-0.078,-0.151l-0.077,-0.151l-0.076,-0.151l-0.075,-0.153l-0.074,-0.152l-0.073,-0.154l-0.073,-0.153l-0.071,-0.155l-0.071,-0.154l-0.07,-0.156l-0.068,-0.155l-0.068,-0.157l-0.067,-0.157l-0.066,-0.157l-0.065,-0.157l-0.064,-0.159l-0.064,-0.158l-0.062,-0.16l-0.061,-0.159l-0.06,-0.16l-0.06,-0.161l-0.058,-0.161l-0.058,-0.161l-0.056,-0.162l-0.056,-0.163l-0.054,-0.162l-0.054,-0.164l-0.053,-0.163l-0.051,-0.165l-0.051,-0.164l-0.05,-0.165l-0.048,-0.165l-0.048,-0.166l-0.047,-0.167l-0.045,-0.166l-0.045,-0.167l-0.044,-0.168l-0.043,-0.168l-0.041,-0.168l-0.041,-0.169l-0.039,-0.169l-0.039,-0.169l-0.038,-0.17l-0.036,-0.17l-0.036,-0.171l-0.034,-0.171l-0.034,-0.171l-0.032,-0.172l-0.031,-0.172l-0.031,-0.173l-0.029,-0.173l-0.028,-0.173l-0.027,-0.173l-0.026,-0.174l-0.025,-0.174l-0.024,-0.175l-0.023,-0.175l-0.022,-0.175l-0.02,-0.176l-0.02,-0.176l-0.018,-0.176l-0.018,-0.176l-0.016,-0.177l-0.015,-0.177l-0.014,-0.178l-0.013,-0.178l-0.012,-0.178l-0.011,-0.178l-0.01,-0.179l-0.008,-0.179l-0.007,-0.179l-0.007,-0.18l-0.005,-0.18l-0.004,-0.18l-0.003,-0.18l-0.001,-0.181l-0.001,-0.181l0.001,-0.181l0.001,-0.181l0.003,-0.18l0.004,-0.18l0.005,-0.18l0.007,-0.18l0.007,-0.179l0.008,-0.179l0.01,-0.179l0.011,-0.178l0.012,-0.178l0.013,-0.178l0.014,-0.178l0.015,-0.177l0.016,-0.177l0.018,-0.176l0.018,-0.176l0.02,-0.176l0.02,-0.176l0.022,-0.175l0.023,-0.175l0.024,-0.175l0.025,-0.174l0.026,-0.174l0.027,-0.173l0.028,-0.173l0.029,-0.173l0.031,-0.173l0.031,-0.172l0.032,-0.172l0.034,-0.171l0.034,-0.171l0.036,-0.171l0.036,-0.17l0.038,-0.17l0.039,-0.169l0.039,-0.169l0.041,-0.169l0.041,-0.168l0.043,-0.168l0.044,-0.168l0.045,-0.167l0.045,-0.166l0.047,-0.167l0.048,-0.166l0.048,-0.165l0.05,-0.165l0.051,-0.164l0.051,-0.165l0.053,-0.163l0.054,-0.164l0.054,-0.162l0.056,-0.163l0.056,-0.162l0.058,-0.161l0.058,-0.161l0.06,-0.161l0.06,-0.16l0.061,-0.159l0.062,-0.16l0.064,-0.158l0.064,-0.159l0.065,-0.157l0.066,-0.157l0.067,-0.157l0.068,-0.157l0.068,-0.155l0.07,-0.156l0.071,-0.154l0.071,-0.155l0.073,-0.153l0.073,-0.154l0.074,-0.152l0.075,-0.153l0.076,-0.151l0.077,-0.151l0.078,-0.151l0.079,-0.15l0.079,-0.15l0.081,-0.149l0.081,-0.148l0.082,-0.148l0.083,-0.148l0.084,-0.147l0.085,-0.146l0.085,-0.146l0.087,-0.145l0.087,-0.144l0.088,-0.144l0.089,-0.144l0.09,-0.143l0.091,-0.142l0.091,-0.142l0.093,-0.141l0.093,-0.141l0.094,-0.14l0.094,-0.139l0.096,-0.139l0.097,-0.138l0.097,-0.137l0.098,-0.137l0.099,-0.137l0.099,-0.135l0.101,-0.135l0.101,-0.135l0.102,-0.134l0.103,-0.133l0.103,-0.132l0.105,-0.132l0.105,-0.132l0.106,-0.13l0.106,-0.13l0.108,-0.13l0.108,-0.128l0.109,-0.128l0.109,-0.128l0.111,-0.126l0.111,-0.126l0.112,-0.126l0.113,-0.124l0.113,-0.124l0.114,-0.124l0.115,-0.122l0.115,-0.122l0.117,-0.122l0.117,-0.12l0.117,-0.12l0.119,-0.119l0.119,-0.119l0.12,-0.117l0.12,-0.117l0.122,-0.117l0.122,-0.115l0.122,-0.115l0.124,-0.114l0.124,-0.113l0.124,-0.113l0.126,-0.112l0.126,-0.111l0.126,-0.111l0.128,-0.109l0.128,-0.109l0.128,-0.108l0.13,-0.108l0.13,-0.106l0.13,-0.106l0.132,-0.105l0.132,-0.105l0.132,-0.103l0.133,-0.103l0.134,-0.102l0.135,-0.101l0.135,-0.101l0.135,-0.099l0.137,-0.099l0.137,-0.098l0.137,-0.097l0.138,-0.097l0.139,-0.096l0.139,-0.094l0.14,-0.094l0.141,-0.093l0.141,-0.093l0.142,-0.091l0.142,-0.091l0.143,-0.09l0.144,-0.089l0.144,-0.088l0.144,-0.087l0.145,-0.087l0.146,-0.085l0.146,-0.085l0.147,-0.084l0.148,-0.083l0.148,-0.082l0.148,-0.081l0.149,-0.081l0.15,-0.079l0.15,-0.079l0.151,-0.078l0.151,-0.077l0.151,-0.076l0.153,-0.075l0.152,-0.074l0.154,-0.073l0.153,-0.073l0.155,-0.071l0.154,-0.071l0.156,-0.07l0.155,-0.068l0.157,-0.068l0.157,-0.067l0.157,-0.066l0.157,-0.065l0.159,-0.064l0.158,-0.064l0.16,-0.062l0.159,-0.061l0.16,-0.06l0.161,-0.06l0.161,-0.058l0.161,-0.058l0.162,-0.056l0.163,-0.056l0.162,-0.054l0.164,-0.054l0.163,-0.053l0.165,-0.051l0.164,-0.051l0.165,-0.05l0.165,-0.048l0.166,-0.048l0.167,-0.047l0.166,-0.045l0.167,-0.045l0.168,-0.044l0.168,-0.043l0.168,-0.041l0.169,-0.041l0.169,-0.039l0.169,-0.039l0.17,-0.038l0.17,-0.036l0.171,-0.036l0.171,-0.034l0.171,-0.034l0.172,-0.032l0.172,-0.031l0.173,-0.031l0.173,-0.029l0.173,-0.028l0.173,-0.027l0.174,-0.026l0.174,-0.025l0.175,-0.024l0.175,-0.023l0.175,-0.022l0.176,-0.02l0.176,-0.02l0.176,-0.018l0.176,-0.018l0.177,-0.016l0.177,-0.015l0.178,-0.014l0.178,-0.013l0.178,-0.012l0.178,-0.011l0.179,-0.01l0.179,-0.008l0.179,-0.007l0.18,-0.007l0.18,-0.005l0.18,-0.004l0.18,-0.003l0.181,-0.001l0.181,-0.001l0.181,0.001Zm-0.346,2.5l-0.165,0.001l-0.165,0.003l-0.164,0.003l-0.164,0.005l-0.164,0.006l-0.163,0.006l-0.163,0.008l-0.163,0.009l-0.163,0.01l-0.162,0.011l-0.162,0.011l-0.162,0.013l-0.161,0.014l-0.161,0.015l-0.161,0.016l-0.161,0.017l-0.16,0.018l-0.16,0.018l-0.159,0.02l-0.16,0.021l-0.159,0.022l-0.158,0.022l-0.159,0.024l-0.158,0.025l-0.157,0.025l-0.158,0.027l-0.157,0.028l-0.156,0.028l-0.157,0.03l-0.156,0.03l-0.155,0.031l-0.156,0.033l-0.155,0.033l-0.154,0.034l-0.154,0.035l-0.154,0.036l-0.154,0.037l-0.153,0.038l-0.153,0.039l-0.152,0.04l-0.152,0.041l-0.152,0.041l-0.151,0.043l-0.151,0.043l-0.151,0.044l-0.15,0.046l-0.149,0.046l-0.15,0.047l-0.149,0.048l-0.148,0.048l-0.148,0.05l-0.148,0.051l-0.148,0.051l-0.146,0.052l-0.147,0.054l-0.146,0.054l-0.146,0.055l-0.145,0.055l-0.145,0.057l-0.144,0.057l-0.144,0.059l-0.144,0.059l-0.143,0.06l-0.143,0.061l-0.142,0.062l-0.142,0.062l-0.141,0.064l-0.141,0.064l-0.14,0.065l-0.14,0.066l-0.14,0.067l-0.139,0.067l-0.139,0.069l-0.138,0.069l-0.137,0.07l-0.137,0.071l-0.137,0.071l-0.136,0.073l-0.136,0.073l-0.135,0.074l-0.135,0.075l-0.134,0.076l-0.134,0.076l-0.133,0.077l-0.133,0.078l-0.132,0.079l-0.132,0.079l-0.131,0.081l-0.131,0.081l-0.13,0.082l-0.129,0.082l-0.13,0.083l-0.128,0.085l-0.128,0.084l-0.128,0.086l-0.127,0.086l-0.126,0.087l-0.126,0.088l-0.125,0.089l-0.125,0.089l-0.124,0.09l-0.124,0.091l-0.123,0.092l-0.122,0.092l-0.122,0.093l-0.122,0.093l-0.121,0.095l-0.12,0.095l-0.119,0.096l-0.119,0.096l-0.119,0.097l-0.118,0.098l-0.117,0.099l-0.117,0.099l-0.116,0.1l-0.115,0.101l-0.115,0.101l-0.114,0.102l-0.114,0.102l-0.113,0.104l-0.112,0.104l-0.112,0.104l-0.111,0.106l-0.111,0.106l-0.11,0.106l-0.109,0.108l-0.108,0.108l-0.108,0.108l-0.108,0.109l-0.106,0.11l-0.106,0.111l-0.106,0.111l-0.104,0.112l-0.104,0.112l-0.104,0.113l-0.102,0.114l-0.102,0.114l-0.101,0.115l-0.101,0.115l-0.1,0.116l-0.099,0.117l-0.099,0.117l-0.098,0.118l-0.097,0.119l-0.096,0.119l-0.096,0.119l-0.095,0.12l-0.095,0.121l-0.093,0.122l-0.093,0.122l-0.092,0.122l-0.092,0.123l-0.091,0.124l-0.09,0.124l-0.089,0.125l-0.089,0.125l-0.088,0.126l-0.087,0.126l-0.086,0.127l-0.086,0.128l-0.084,0.128l-0.085,0.128l-0.083,0.13l-0.082,0.129l-0.082,0.13l-0.081,0.131l-0.081,0.131l-0.079,0.132l-0.079,0.132l-0.078,0.133l-0.077,0.133l-0.076,0.134l-0.076,0.134l-0.075,0.135l-0.074,0.135l-0.073,0.136l-0.073,0.136l-0.071,0.137l-0.071,0.137l-0.07,0.137l-0.069,0.138l-0.069,0.139l-0.067,0.139l-0.067,0.14l-0.066,0.14l-0.065,0.14l-0.064,0.141l-0.064,0.141l-0.062,0.142l-0.062,0.142l-0.061,0.143l-0.06,0.143l-0.059,0.144l-0.059,0.144l-0.057,0.144l-0.057,0.145l-0.055,0.145l-0.055,0.146l-0.054,0.146l-0.054,0.147l-0.052,0.146l-0.051,0.148l-0.051,0.148l-0.05,0.148l-0.048,0.148l-0.048,0.149l-0.047,0.15l-0.046,0.149l-0.046,0.15l-0.044,0.151l-0.043,0.151l-0.043,0.151l-0.041,0.152l-0.041,0.152l-0.04,0.152l-0.039,0.153l-0.038,0.153l-0.037,0.154l-0.036,0.154l-0.035,0.154l-0.034,0.154l-0.033,0.155l-0.033,0.156l-0.031,0.155l-0.03,0.156l-0.03,0.157l-0.028,0.156l-0.028,0.157l-0.027,0.158l-0.025,0.157l-0.025,0.158l-0.024,0.159l-0.022,0.158l-0.022,0.159l-0.021,0.16l-0.02,0.159l-0.018,0.16l-0.018,0.16l-0.017,0.161l-0.016,0.161l-0.015,0.161l-0.014,0.161l-0.013,0.162l-0.011,0.162l-0.011,0.162l-0.01,0.163l-0.009,0.163l-0.008,0.163l-0.006,0.163l-0.006,0.164l-0.005,0.164l-0.003,0.164l-0.003,0.165l-0.001,0.165l-0.001,0.165l0.001,0.165l0.001,0.165l0.003,0.165l0.003,0.164l0.005,0.164l0.006,0.164l0.006,0.163l0.008,0.163l0.009,0.163l0.01,0.163l0.011,0.162l0.011,0.162l0.013,0.162l0.014,0.161l0.015,0.161l0.016,0.161l0.017,0.161l0.018,0.16l0.018,0.16l0.02,0.159l0.021,0.16l0.022,0.159l0.022,0.158l0.024,0.159l0.025,0.158l0.025,0.157l0.027,0.158l0.028,0.157l0.028,0.156l0.03,0.157l0.03,0.156l0.031,0.155l0.033,0.156l0.033,0.155l0.034,0.154l0.035,0.154l0.036,0.154l0.037,0.154l0.038,0.153l0.039,0.153l0.04,0.152l0.041,0.152l0.041,0.152l0.043,0.151l0.043,0.151l0.044,0.151l0.046,0.15l0.046,0.149l0.047,0.15l0.048,0.149l0.048,0.148l0.05,0.148l0.051,0.148l0.051,0.148l0.052,0.146l0.054,0.147l0.054,0.146l0.055,0.146l0.055,0.145l0.057,0.145l0.057,0.144l0.059,0.144l0.059,0.144l0.06,0.143l0.061,0.143l0.062,0.142l0.062,0.142l0.064,0.141l0.064,0.141l0.065,0.14l0.066,0.14l0.067,0.14l0.067,0.139l0.069,0.139l0.069,0.138l0.07,0.137l0.071,0.137l0.071,0.137l0.073,0.136l0.073,0.136l0.074,0.135l0.075,0.135l0.076,0.134l0.076,0.134l0.077,0.133l0.078,0.133l0.079,0.132l0.079,0.132l0.081,0.131l0.081,0.131l0.082,0.13l0.082,0.129l0.083,0.13l0.085,0.128l0.084,0.128l0.086,0.128l0.086,0.127l0.087,0.126l0.088,0.126l0.089,0.125l0.089,0.125l0.09,0.124l0.091,0.124l0.092,0.123l0.092,0.122l0.093,0.122l0.093,0.122l0.095,0.12l0.095,0.121l0.096,0.119l0.096,0.119l0.097,0.119l0.098,0.118l0.099,0.117l0.099,0.117l0.1,0.116l0.101,0.115l0.101,0.115l0.102,0.114l0.102,0.114l0.104,0.113l0.104,0.112l0.104,0.112l0.106,0.111l0.106,0.111l0.106,0.11l0.108,0.109l0.108,0.108l0.108,0.108l0.109,0.108l0.11,0.106l0.111,0.106l0.111,0.106l0.112,0.104l0.112,0.104l0.113,0.104l0.114,0.102l0.114,0.102l0.115,0.101l0.115,0.101l0.116,0.1l0.117,0.099l0.117,0.099l0.118,0.098l0.119,0.097l0.119,0.096l0.119,0.096l0.12,0.095l0.121,0.095l0.122,0.093l0.122,0.093l0.122,0.092l0.123,0.092l0.124,0.091l0.124,0.09l0.125,0.089l0.125,0.089l0.126,0.088l0.126,0.087l0.127,0.086l0.128,0.086l0.128,0.084l0.128,0.085l0.13,0.083l0.129,0.082l0.13,0.082l0.131,0.081l0.131,0.081l0.132,0.079l0.132,0.079l0.133,0.078l0.133,0.077l0.134,0.076l0.134,0.076l0.135,0.075l0.135,0.074l0.136,0.073l0.136,0.073l0.137,0.071l0.137,0.071l0.137,0.07l0.138,0.069l0.139,0.069l0.139,0.067l0.14,0.067l0.14,0.066l0.14,0.065l0.141,0.064l0.141,0.064l0.142,0.062l0.142,0.062l0.143,0.061l0.143,0.06l0.144,0.059l0.144,0.059l0.144,0.057l0.145,0.057l0.145,0.055l0.146,0.055l0.146,0.054l0.147,0.054l0.146,0.052l0.148,0.051l0.148,0.051l0.148,0.05l0.148,0.048l0.149,0.048l0.15,0.047l0.149,0.046l0.151,0.046l0.15,0.044l0.151,0.043l0.151,0.043l0.152,0.041l0.152,0.041l0.152,0.04l0.153,0.039l0.153,0.038l0.154,0.037l0.154,0.036l0.154,0.035l0.154,0.034l0.155,0.033l0.156,0.033l0.155,0.031l0.156,0.03l0.157,0.03l0.156,0.028l0.157,0.028l0.158,0.027l0.157,0.025l0.158,0.025l0.159,0.024l0.158,0.022l0.159,0.022l0.16,0.021l0.159,0.02l0.16,0.018l0.16,0.018l0.161,0.017l0.161,0.016l0.161,0.015l0.161,0.014l0.162,0.013l0.162,0.011l0.162,0.011l0.163,0.01l0.163,0.009l0.163,0.008l0.163,0.006l0.164,0.006l0.164,0.005l0.164,0.003l0.165,0.003l0.165,0.001l0.165,0.001l0.165,-0.001l0.165,-0.001l0.165,-0.003l0.164,-0.003l0.164,-0.005l0.164,-0.006l0.163,-0.006l0.163,-0.008l0.163,-0.009l0.163,-0.01l0.162,-0.011l0.162,-0.011l0.162,-0.013l0.161,-0.014l0.161,-0.015l0.161,-0.016l0.161,-0.017l0.16,-0.018l0.16,-0.018l0.159,-0.02l0.16,-0.021l0.159,-0.022l0.158,-0.022l0.159,-0.024l0.158,-0.025l0.157,-0.025l0.158,-0.027l0.157,-0.028l0.156,-0.028l0.157,-0.03l0.156,-0.03l0.155,-0.031l0.156,-0.033l0.155,-0.033l0.154,-0.034l0.154,-0.035l0.154,-0.036l0.154,-0.037l0.153,-0.038l0.153,-0.039l0.152,-0.04l0.152,-0.041l0.152,-0.041l0.151,-0.043l0.151,-0.043l0.15,-0.044l0.151,-0.046l0.149,-0.046l0.15,-0.047l0.149,-0.048l0.148,-0.048l0.148,-0.05l0.148,-0.051l0.148,-0.051l0.146,-0.052l0.147,-0.054l0.146,-0.054l0.146,-0.055l0.145,-0.055l0.145,-0.057l0.144,-0.057l0.144,-0.059l0.144,-0.059l0.143,-0.06l0.143,-0.061l0.142,-0.062l0.142,-0.062l0.141,-0.064l0.141,-0.064l0.14,-0.065l0.14,-0.066l0.14,-0.067l0.139,-0.067l0.139,-0.069l0.138,-0.069l0.137,-0.07l0.137,-0.071l0.137,-0.071l0.136,-0.073l0.136,-0.073l0.135,-0.074l0.135,-0.075l0.134,-0.076l0.134,-0.076l0.133,-0.077l0.133,-0.078l0.132,-0.079l0.132,-0.079l0.131,-0.081l0.131,-0.081l0.13,-0.082l0.129,-0.082l0.13,-0.083l0.128,-0.085l0.128,-0.084l0.128,-0.086l0.127,-0.086l0.126,-0.087l0.126,-0.088l0.125,-0.089l0.125,-0.089l0.124,-0.09l0.124,-0.091l0.123,-0.092l0.122,-0.092l0.122,-0.093l0.122,-0.093l0.12,-0.095l0.121,-0.095l0.119,-0.096l0.119,-0.096l0.119,-0.097l0.118,-0.098l0.117,-0.099l0.117,-0.099l0.116,-0.1l0.115,-0.101l0.115,-0.101l0.114,-0.102l0.114,-0.102l0.113,-0.104l0.112,-0.104l0.112,-0.104l0.111,-0.106l0.111,-0.106l0.11,-0.106l0.109,-0.108l0.108,-0.108l0.108,-0.108l0.108,-0.109l0.106,-0.11l0.106,-0.111l0.106,-0.111l0.104,-0.112l0.104,-0.112l0.104,-0.113l0.102,-0.114l0.102,-0.114l0.101,-0.115l0.101,-0.115l0.1,-0.116l0.099,-0.117l0.099,-0.117l0.098,-0.118l0.097,-0.119l0.096,-0.119l0.096,-0.119l0.095,-0.121l0.095,-0.12l0.093,-0.122l0.093,-0.122l0.092,-0.122l0.092,-0.123l0.091,-0.124l0.09,-0.124l0.089,-0.125l0.089,-0.125l0.088,-0.126l0.087,-0.126l0.086,-0.127l0.086,-0.128l0.084,-0.128l0.085,-0.128l0.083,-0.13l0.082,-0.129l0.082,-0.13l0.081,-0.131l0.081,-0.131l0.079,-0.132l0.079,-0.132l0.078,-0.133l0.077,-0.133l0.076,-0.134l0.076,-0.134l0.075,-0.135l0.074,-0.135l0.073,-0.136l0.073,-0.136l0.071,-0.137l0.071,-0.137l0.07,-0.137l0.069,-0.138l0.069,-0.139l0.067,-0.139l0.067,-0.14l0.066,-0.14l0.065,-0.14l0.064,-0.141l0.064,-0.141l0.062,-0.142l0.062,-0.142l0.061,-0.143l0.06,-0.143l0.059,-0.144l0.059,-0.144l0.057,-0.144l0.057,-0.145l0.055,-0.145l0.055,-0.146l0.054,-0.146l0.054,-0.147l0.052,-0.146l0.051,-0.148l0.051,-0.148l0.05,-0.148l0.048,-0.148l0.048,-0.149l0.047,-0.15l0.046,-0.149l0.046,-0.151l0.044,-0.15l0.043,-0.151l0.043,-0.151l0.041,-0.152l0.041,-0.152l0.04,-0.152l0.039,-0.153l0.038,-0.153l0.037,-0.154l0.036,-0.154l0.035,-0.154l0.034,-0.154l0.033,-0.155l0.033,-0.156l0.031,-0.155l0.03,-0.156l0.03,-0.157l0.028,-0.156l0.028,-0.157l0.027,-0.158l0.025,-0.157l0.025,-0.158l0.024,-0.159l0.022,-0.158l0.022,-0.159l0.021,-0.16l0.02,-0.159l0.018,-0.16l0.018,-0.16l0.017,-0.161l0.016,-0.161l0.015,-0.161l0.014,-0.161l0.013,-0.162l0.011,-0.162l0.011,-0.162l0.01,-0.163l0.009,-0.163l0.008,-0.163l0.006,-0.163l0.006,-0.164l0.005,-0.164l0.003,-0.164l0.003,-0.165l0.001,-0.165l0.001,-0.165l-0.001,-0.165l-0.001,-0.165l-0.003,-0.165l-0.003,-0.164l-0.005,-0.164l-0.006,-0.164l-0.006,-0.163l-0.008,-0.163l-0.009,-0.163l-0.01,-0.163l-0.011,-0.162l-0.011,-0.162l-0.013,-0.162l-0.014,-0.161l-0.015,-0.161l-0.016,-0.161l-0.017,-0.161l-0.018,-0.16l-0.018,-0.16l-0.02,-0.159l-0.021,-0.16l-0.022,-0.159l-0.022,-0.158l-0.024,-0.159l-0.025,-0.158l-0.025,-0.157l-0.027,-0.158l-0.028,-0.157l-0.028,-0.156l-0.03,-0.157l-0.03,-0.156l-0.031,-0.155l-0.033,-0.156l-0.033,-0.155l-0.034,-0.154l-0.035,-0.154l-0.036,-0.154l-0.037,-0.154l-0.038,-0.153l-0.039,-0.153l-0.04,-0.152l-0.041,-0.152l-0.041,-0.152l-0.043,-0.151l-0.043,-0.151l-0.044,-0.15l-0.046,-0.151l-0.046,-0.149l-0.047,-0.15l-0.048,-0.149l-0.048,-0.148l-0.05,-0.148l-0.051,-0.148l-0.051,-0.148l-0.052,-0.146l-0.054,-0.147l-0.054,-0.146l-0.055,-0.146l-0.055,-0.145l-0.057,-0.145l-0.057,-0.144l-0.059,-0.144l-0.059,-0.144l-0.06,-0.143l-0.061,-0.143l-0.062,-0.142l-0.062,-0.142l-0.064,-0.141l-0.064,-0.141l-0.065,-0.14l-0.066,-0.14l-0.067,-0.14l-0.067,-0.139l-0.069,-0.139l-0.069,-0.138l-0.07,-0.137l-0.071,-0.137l-0.071,-0.137l-0.073,-0.136l-0.073,-0.136l-0.074,-0.135l-0.075,-0.135l-0.076,-0.134l-0.076,-0.134l-0.077,-0.133l-0.078,-0.133l-0.079,-0.132l-0.079,-0.132l-0.081,-0.131l-0.081,-0.131l-0.082,-0.13l-0.082,-0.129l-0.083,-0.13l-0.085,-0.128l-0.084,-0.128l-0.086,-0.128l-0.086,-0.127l-0.087,-0.126l-0.088,-0.126l-0.089,-0.125l-0.089,-0.125l-0.09,-0.124l-0.091,-0.124l-0.092,-0.123l-0.092,-0.122l-0.093,-0.122l-0.093,-0.122l-0.095,-0.121l-0.095,-0.12l-0.096,-0.119l-0.096,-0.119l-0.097,-0.119l-0.098,-0.118l-0.099,-0.117l-0.099,-0.117l-0.1,-0.116l-0.101,-0.115l-0.101,-0.115l-0.102,-0.114l-0.102,-0.114l-0.104,-0.113l-0.104,-0.112l-0.104,-0.112l-0.106,-0.111l-0.106,-0.111l-0.106,-0.11l-0.108,-0.109l-0.108,-0.108l-0.108,-0.108l-0.109,-0.108l-0.11,-0.106l-0.111,-0.106l-0.111,-0.106l-0.112,-0.104l-0.112,-0.104l-0.113,-0.104l-0.114,-0.102l-0.114,-0.102l-0.115,-0.101l-0.115,-0.101l-0.116,-0.1l-0.117,-0.099l-0.117,-0.099l-0.118,-0.098l-0.119,-0.097l-0.119,-0.096l-0.119,-0.096l-0.121,-0.095l-0.12,-0.095l-0.122,-0.093l-0.122,-0.093l-0.122,-0.092l-0.123,-0.092l-0.124,-0.091l-0.124,-0.09l-0.125,-0.089l-0.125,-0.089l-0.126,-0.088l-0.126,-0.087l-0.127,-0.086l-0.128,-0.086l-0.128,-0.084l-0.128,-0.085l-0.13,-0.083l-0.129,-0.082l-0.13,-0.082l-0.131,-0.081l-0.131,-0.081l-0.132,-0.079l-0.132,-0.079l-0.133,-0.078l-0.133,-0.077l-0.134,-0.076l-0.134,-0.076l-0.135,-0.075l-0.135,-0.074l-0.136,-0.073l-0.136,-0.073l-0.137,-0.071l-0.137,-0.071l-0.137,-0.07l-0.138,-0.069l-0.139,-0.069l-0.139,-0.067l-0.14,-0.067l-0.14,-0.066l-0.14,-0.065l-0.141,-0.064l-0.141,-0.064l-0.142,-0.062l-0.142,-0.062l-0.143,-0.061l-0.143,-0.06l-0.144,-0.059l-0.144,-0.059l-0.144,-0.057l-0.145,-0.057l-0.145,-0.055l-0.146,-0.055l-0.146,-0.054l-0.147,-0.054l-0.146,-0.052l-0.148,-0.051l-0.148,-0.051l-0.148,-0.05l-0.148,-0.048l-0.149,-0.048l-0.15,-0.047l-0.149,-0.046l-0.15,-0.046l-0.151,-0.044l-0.151,-0.043l-0.151,-0.043l-0.152,-0.041l-0.152,-0.041l-0.152,-0.04l-0.153,-0.039l-0.153,-0.038l-0.154,-0.037l-0.154,-0.036l-0.154,-0.035l-0.154,-0.034l-0.155,-0.033l-0.156,-0.033l-0.155,-0.031l-0.156,-0.03l-0.157,-0.03l-0.156,-0.028l-0.157,-0.028l-0.158,-0.027l-0.157,-0.025l-0.158,-0.025l-0.159,-0.024l-0.158,-0.022l-0.159,-0.022l-0.16,-0.021l-0.159,-0.02l-0.16,-0.018l-0.16,-0.018l-0.161,-0.017l-0.161,-0.016l-0.161,-0.015l-0.161,-0.014l-0.162,-0.013l-0.162,-0.011l-0.162,-0.011l-0.163,-0.01l-0.163,-0.009l-0.163,-0.008l-0.163,-0.006l-0.164,-0.006l-0.164,-0.005l-0.164,-0.003l-0.165,-0.003l-0.165,-0.001l-0.165,-0.001l-0.165,0.001Z"/><path d="M32,44.082l0,-30.082" style="fill:none;stroke:#000;stroke-width:2.5px;stroke-dasharray:2.5,5,0,0;stroke-dashoffset:2.5;"/></svg>